STARTFONT 2.3
FONT -FontForge-Source Code Pro-Bold-R-Normal--20-200-72-72-M-120-ISO10646-1
SIZE 20 72 72  2
FONTBOUNDINGBOX 20 30 -4 -9
COMMENT "Generated by fontforge, http://fontforge.sourceforge.net"
COMMENT "Copyright 2010, 2012 Adobe Systems Incorporated (http://www.adobe.com/), with Reserved Font Name `Source'."
STARTPROPERTIES 41
FOUNDRY "FontForge"
FAMILY_NAME "Source Code Pro"
WEIGHT_NAME "Bold"
SLANT "R"
SETWIDTH_NAME "Normal"
ADD_STYLE_NAME ""
PIXEL_SIZE 20
POINT_SIZE 200
RESOLUTION_X 72
RESOLUTION_Y 72
SPACING "M"
AVERAGE_WIDTH 120
CHARSET_REGISTRY "ISO10646"
CHARSET_ENCODING "1"
FONTNAME_REGISTRY ""
CHARSET_COLLECTIONS "ASCII ISOLatin1Encoding ISO8859-2 ISO8859-5 ISO8859-7 ISO8859-9 ISO8859-4 ISO10646-1"
BITS_PER_PIXEL 2
FONT_NAME "SourceCodePro-Bold"
FACE_NAME "Source Code Pro Bold"
COPYRIGHT "Copyright 2010, 2012 Adobe Systems Incorporated (http://www.adobe.com/), with Reserved Font Name `Source'."
FONT_VERSION "2.030;PS 1.000;hotconv 16.6.51;makeotf.lib2.5.65220"
FONT_ASCENT 15
FONT_DESCENT 5
UNDERLINE_POSITION -2
UNDERLINE_THICKNESS 1
X_HEIGHT 9
CAP_HEIGHT 12
RAW_ASCENT 750
RAW_DESCENT 250
NORM_SPACE 12
RELATIVE_WEIGHT 70
RELATIVE_SETWIDTH 50
SUPERSCRIPT_X 0
SUPERSCRIPT_Y 7
SUPERSCRIPT_SIZE 12
SUBSCRIPT_X 0
SUBSCRIPT_Y 1
SUBSCRIPT_SIZE 12
FIGURE_WIDTH 12
AVG_LOWERCASE_WIDTH 120
AVG_UPPERCASE_WIDTH 120
ENDPROPERTIES
CHARS 1564
STARTCHAR space
ENCODING 32
SWIDTH 600 0
DWIDTH 12 0
BBX 1 1 0 0
BITMAP
00
ENDCHAR
STARTCHAR exclam
ENCODING 33
SWIDTH 600 0
DWIDTH 12 0
BBX 4 13 4 0
BITMAP
7D
7D
7D
7D
7D
3C
3C
3C
00
7D
FF
FF
7D
ENDCHAR
STARTCHAR quotedbl
ENCODING 34
SWIDTH 600 0
DWIDTH 12 0
BBX 10 8 1 6
BITMAP
7F0FD0
7F0FD0
7F0FD0
7F0FD0
3E0BC0
3E0BC0
2D0780
2D0780
ENDCHAR
STARTCHAR numbersign
ENCODING 35
SWIDTH 600 0
DWIDTH 12 0
BBX 10 13 1 0
BITMAP
038740
038740
074740
7FAF90
7FFFE0
0B5F40
0B0E00
BFAF90
BFFFD0
0E6E40
1D1D00
1D2C00
2D2C00
ENDCHAR
STARTCHAR dollar
ENCODING 36
SWIDTH 600 0
DWIDTH 12 0
BBX 10 17 1 -2
BITMAP
00F000
00F000
00F000
07FE00
2FFFC0
3E0640
3F4000
2FE400
0BFF40
00BFC0
000BD0
390BD0
7FFF80
1BF900
00F000
00F000
00F000
ENDCHAR
STARTCHAR percent
ENCODING 37
SWIDTH 600 0
DWIDTH 12 0
BBX 12 13 0 0
BITMAP
1B8018
3FF03D
78B4B8
78B6D0
78B640
3FF000
1B82E4
018FFC
079E2D
2F1E2D
7C1E2D
240FFC
0002E4
ENDCHAR
STARTCHAR ampersand
ENCODING 38
SWIDTH 600 0
DWIDTH 12 0
BBX 12 13 0 0
BITMAP
02F800
0BFE00
0F5F00
1F5F00
0FBE00
0BFC19
0FF07D
3FF8BC
7EBEF8
BD2FF0
7E0FF9
2FFFFD
0BF91C
ENDCHAR
STARTCHAR quotesingle
ENCODING 39
SWIDTH 600 0
DWIDTH 12 0
BBX 4 8 4 6
BITMAP
BE
BE
BE
BE
7D
7D
3C
3C
ENDCHAR
STARTCHAR parenleft
ENCODING 40
SWIDTH 600 0
DWIDTH 12 0
BBX 7 18 3 -3
BITMAP
0090
02F4
07D0
0F80
1F00
3E00
3D00
7D00
7C00
7C00
7D00
3D00
3E00
1F00
0F80
07D0
02F4
0090
ENDCHAR
STARTCHAR parenright
ENCODING 41
SWIDTH 600 0
DWIDTH 12 0
BBX 7 18 2 -3
BITMAP
1800
7E00
1F40
0BC0
03D0
02F0
01F0
01F4
00F4
00F4
01F4
01F0
02F0
03D0
0BC0
1F40
7E00
1800
ENDCHAR
STARTCHAR asterisk
ENCODING 42
SWIDTH 600 0
DWIDTH 12 0
BBX 10 10 1 2
BITMAP
005000
00F000
00F000
64F190
BFFFE0
1BFE40
03FC00
0BAE00
1F0F40
180240
ENDCHAR
STARTCHAR plus
ENCODING 43
SWIDTH 600 0
DWIDTH 12 0
BBX 10 10 1 2
BITMAP
00A000
00F000
00F000
00F000
BFFFE0
BFFFE0
00F000
00F000
00F000
00A000
ENDCHAR
STARTCHAR comma
ENCODING 44
SWIDTH 600 0
DWIDTH 12 0
BBX 5 9 4 -5
BITMAP
7D00
FF40
FF40
7F80
0F40
1F00
BE00
F800
4000
ENDCHAR
STARTCHAR hyphen
ENCODING 45
SWIDTH 600 0
DWIDTH 12 0
BBX 10 2 1 6
BITMAP
BFFFE0
BFFFE0
ENDCHAR
STARTCHAR period
ENCODING 46
SWIDTH 600 0
DWIDTH 12 0
BBX 6 5 3 0
BITMAP
1F40
3FC0
7FD0
3FC0
1F40
ENDCHAR
STARTCHAR slash
ENCODING 47
SWIDTH 600 0
DWIDTH 12 0
BBX 10 17 1 -3
BITMAP
0003D0
000BC0
000F80
001F00
002E00
003D00
007C00
00F800
01F400
02F000
03D000
07C000
0B8000
0F4000
2F0000
3E0000
7C0000
ENDCHAR
STARTCHAR zero
ENCODING 48
SWIDTH 600 0
DWIDTH 12 0
BBX 10 13 1 0
BITMAP
06F900
1FFF40
3E0BC0
7C03D0
BC03E0
B9F6E0
F9F6F0
B8F2E0
BC03E0
7D07D0
3E0BC0
1FFF40
06F900
ENDCHAR
STARTCHAR one
ENCODING 49
SWIDTH 600 0
DWIDTH 12 0
BBX 10 13 1 0
BITMAP
1B9400
2FFC00
15FC00
00FC00
00FC00
00FC00
00FC00
00FC00
00FC00
00FC00
00FD50
7FFFE0
7FFFE0
ENDCHAR
STARTCHAR two
ENCODING 50
SWIDTH 600 0
DWIDTH 12 0
BBX 10 13 1 0
BITMAP
1BF800
BFFF00
782F80
000FC0
000BC0
000F80
002F40
007E00
01FC00
07F000
1FC000
7FFFE0
FFFFE0
ENDCHAR
STARTCHAR three
ENCODING 51
SWIDTH 600 0
DWIDTH 12 0
BBX 10 13 1 0
BITMAP
1BF900
BFFF80
281FC0
000BC0
002F80
03FE00
03FE40
001FC0
0007E0
0007E0
741FD0
FFFF80
1BF900
ENDCHAR
STARTCHAR four
ENCODING 52
SWIDTH 600 0
DWIDTH 12 0
BBX 11 13 0 0
BITMAP
001FE0
003FE0
00BBE0
01F7E0
03E7E0
0BC7E0
1F47E0
2E07E0
7FFFFC
7FFFFC
0007E0
0007E0
0007E0
ENDCHAR
STARTCHAR five
ENCODING 53
SWIDTH 600 0
DWIDTH 12 0
BBX 10 13 1 0
BITMAP
2FFFC0
2FFFC0
3E0000
3E0000
3E0000
3FF900
3FFF80
041FD0
0007E0
0007E0
741FD0
BFFF80
1BF900
ENDCHAR
STARTCHAR six
ENCODING 54
SWIDTH 600 0
DWIDTH 12 0
BBX 10 13 1 0
BITMAP
01FE40
0BFFD0
2F4180
7E0000
BD0000
BDBE40
BFFFD0
BE47E0
BC03F0
7D03E0
3F47E0
1FFF80
02FE00
ENDCHAR
STARTCHAR seven
ENCODING 55
SWIDTH 600 0
DWIDTH 12 0
BBX 10 13 1 0
BITMAP
BFFFE0
BFFFE0
000B80
001F40
003E00
007C00
00F800
01F400
02F400
02F000
03F000
03F000
03F000
ENDCHAR
STARTCHAR eight
ENCODING 56
SWIDTH 600 0
DWIDTH 12 0
BBX 10 13 1 0
BITMAP
06F900
2FFF80
3E0BC0
7D07D0
3F4BC0
0BFF00
1FFF40
7E6FD0
BC07E0
BC03E0
BE0BE0
3FFFC0
07FE00
ENDCHAR
STARTCHAR nine
ENCODING 57
SWIDTH 600 0
DWIDTH 12 0
BBX 10 13 1 0
BITMAP
0BF800
2FFF40
BD1FC0
FC07D0
F803E0
BD1BE0
7FFFE0
1BE3E0
0007D0
000BD0
241F80
7FFE00
1BF400
ENDCHAR
STARTCHAR colon
ENCODING 58
SWIDTH 600 0
DWIDTH 12 0
BBX 6 11 3 0
BITMAP
1F40
3FC0
7FD0
3FC0
1F40
0000
1F40
3FC0
7FD0
3FC0
1F40
ENDCHAR
STARTCHAR semicolon
ENCODING 59
SWIDTH 600 0
DWIDTH 12 0
BBX 6 16 3 -5
BITMAP
1F40
3FC0
7FD0
3FC0
1F40
0000
0000
1F40
3FD0
3FD0
1FE0
03D0
07C0
2F80
3E00
1000
ENDCHAR
STARTCHAR less
ENCODING 60
SWIDTH 600 0
DWIDTH 12 0
BBX 8 10 2 2
BITMAP
0006
006F
02FD
2FD0
BE00
BE00
2FD0
02FD
006F
0006
ENDCHAR
STARTCHAR equal
ENCODING 61
SWIDTH 600 0
DWIDTH 12 0
BBX 10 6 1 4
BITMAP
BFFFE0
BFFFE0
000000
000000
BFFFE0
BFFFE0
ENDCHAR
STARTCHAR greater
ENCODING 62
SWIDTH 600 0
DWIDTH 12 0
BBX 8 10 2 2
BITMAP
9000
F900
7F80
07F8
00BE
00BE
07F8
7F80
F900
9000
ENDCHAR
STARTCHAR question
ENCODING 63
SWIDTH 600 0
DWIDTH 12 0
BBX 8 13 2 0
BITMAP
1BE4
BFFD
247F
003F
00BD
02F4
07D0
0BC0
0000
0B80
1FE0
1FE0
0B80
ENDCHAR
STARTCHAR at
ENCODING 64
SWIDTH 600 0
DWIDTH 12 0
BBX 11 16 0 -3
BITMAP
00BF80
07FFF0
0F91B8
2E003C
3D007C
3C1BFC
787FBC
78B83C
78B8BC
787FFC
3C2F6C
3D0000
1F0000
0FD050
03FFF0
006F90
ENDCHAR
STARTCHAR A
ENCODING 65
SWIDTH 600 0
DWIDTH 12 0
BBX 12 13 0 0
BITMAP
00FF00
01FF40
02FF80
03EBC0
07DBC0
07C7D0
0BC3E0
0F82F0
1FFFF4
2FFFF8
3F00FC
7E00BD
BD007E
ENDCHAR
STARTCHAR B
ENCODING 66
SWIDTH 600 0
DWIDTH 12 0
BBX 11 13 1 0
BITMAP
BFFE40
BFFFD0
BD0BE0
BD07E0
BD0BD0
BFFE40
BFFF80
BD07F0
BD02F0
BD02F4
BD07F0
BFFFD0
BFFE40
ENDCHAR
STARTCHAR C
ENCODING 67
SWIDTH 600 0
DWIDTH 12 0
BBX 10 13 1 0
BITMAP
01BF80
0BFFF0
2F8180
7E0000
BD0000
FD0000
FC0000
FD0000
BD0000
7F0000
2F81D0
0BFFF0
01BF80
ENDCHAR
STARTCHAR D
ENCODING 68
SWIDTH 600 0
DWIDTH 12 0
BBX 11 13 1 0
BITMAP
BFF900
BFFF40
BD1FD0
BD07E0
BD03F0
BD02F4
BD02F4
BD02F4
BD03F0
BD07E0
BD1FD0
BFFF40
BFF900
ENDCHAR
STARTCHAR E
ENCODING 69
SWIDTH 600 0
DWIDTH 12 0
BBX 9 13 2 0
BITMAP
FFFF40
FFFF40
F80000
F80000
F80000
F80000
FFFE00
FFFE00
F80000
F80000
F80000
FFFF80
FFFF80
ENDCHAR
STARTCHAR F
ENCODING 70
SWIDTH 600 0
DWIDTH 12 0
BBX 9 13 2 0
BITMAP
FFFF80
FFFF80
FC0000
FC0000
FC0000
FC0000
FFFF00
FFFF00
FC0000
FC0000
FC0000
FC0000
FC0000
ENDCHAR
STARTCHAR G
ENCODING 71
SWIDTH 600 0
DWIDTH 12 0
BBX 10 13 1 0
BITMAP
02BE40
1FFFD0
3F8280
BE0000
FD0000
FC0000
FC2FF0
FC2FF0
FD02F0
BE02F0
3F42F0
1FFFE0
02FE40
ENDCHAR
STARTCHAR H
ENCODING 72
SWIDTH 600 0
DWIDTH 12 0
BBX 10 13 1 0
BITMAP
BD07E0
BD07E0
BD07E0
BD07E0
BD07E0
BD07E0
BFFFE0
BFFFE0
BD07E0
BD07E0
BD07E0
BD07E0
BD07E0
ENDCHAR
STARTCHAR I
ENCODING 73
SWIDTH 600 0
DWIDTH 12 0
BBX 10 13 1 0
BITMAP
BFFFE0
BFFFE0
01F400
01F400
01F400
01F400
01F400
01F400
01F400
01F400
01F400
BFFFE0
BFFFE0
ENDCHAR
STARTCHAR J
ENCODING 74
SWIDTH 600 0
DWIDTH 12 0
BBX 10 13 1 0
BITMAP
2FFFD0
2FFFD0
000BD0
000BD0
000BD0
000BD0
000BD0
000BD0
000BD0
000BC0
391FC0
7FFF40
1BF900
ENDCHAR
STARTCHAR K
ENCODING 75
SWIDTH 600 0
DWIDTH 12 0
BBX 11 13 1 0
BITMAP
BD03F4
BD0BD0
BD2F80
BD7E00
BDFC00
BFF800
BFFD00
BFFF00
BF2F40
BD0FC0
BD0BE0
BD03F0
BD02F8
ENDCHAR
STARTCHAR L
ENCODING 76
SWIDTH 600 0
DWIDTH 12 0
BBX 9 13 2 0
BITMAP
FC0000
FC0000
FC0000
FC0000
FC0000
FC0000
FC0000
FC0000
FC0000
FC0000
FC0000
FFFFC0
FFFFC0
ENDCHAR
STARTCHAR M
ENCODING 77
SWIDTH 600 0
DWIDTH 12 0
BBX 10 13 1 0
BITMAP
FD07F0
FE0BF0
FF0FF0
FF5FF0
FB5EF0
F7ADF0
F6FAF0
F9F6F0
F8F2F0
F852F0
F802F0
F802F0
F802F0
ENDCHAR
STARTCHAR N
ENCODING 78
SWIDTH 600 0
DWIDTH 12 0
BBX 10 13 1 0
BITMAP
BE03E0
BF03E0
BF43E0
BF83E0
BBD3E0
BDE3E0
BCF3E0
BCB7E0
BC7EE0
BC2FE0
BC1FE0
BC0FE0
BC0BE0
ENDCHAR
STARTCHAR O
ENCODING 79
SWIDTH 600 0
DWIDTH 12 0
BBX 12 13 0 0
BITMAP
01BE40
0BFFE0
1F82F4
2F41F8
3F00FC
7E00BD
7E00BD
7E00BD
3F00FC
2F41F8
1F82F4
0BFFE0
01BE40
ENDCHAR
STARTCHAR P
ENCODING 80
SWIDTH 600 0
DWIDTH 12 0
BBX 11 13 1 0
BITMAP
BFFE40
BFFFD0
BD07F0
BD02F0
BD02F4
BD03F0
BD0BE0
BFFFC0
BFFE00
BD0000
BD0000
BD0000
BD0000
ENDCHAR
STARTCHAR Q
ENCODING 81
SWIDTH 600 0
DWIDTH 12 0
BBX 12 16 0 -3
BITMAP
01BE40
0BFFE0
1F82F4
2F41F8
3F00FC
3E00BC
7E00BD
7E00FC
3F00FC
2F41F8
1F82F4
0BFFE0
02FF40
003F40
001FFD
0002FD
ENDCHAR
STARTCHAR R
ENCODING 82
SWIDTH 600 0
DWIDTH 12 0
BBX 11 13 1 0
BITMAP
BFFE40
BFFFD0
BD07E0
BD03F0
BD03F0
BD0BE0
BFFFD0
BFFF00
BD3F40
BD1F80
BD0FD0
BD07F0
BD03F4
ENDCHAR
STARTCHAR S
ENCODING 83
SWIDTH 600 0
DWIDTH 12 0
BBX 10 13 1 0
BITMAP
06FE40
2FFFD0
7E0680
7E0000
7F4000
3FF800
0BFF80
01BFE0
000BF0
0003F0
3D07E0
BFFFC0
1BFE00
ENDCHAR
STARTCHAR T
ENCODING 84
SWIDTH 600 0
DWIDTH 12 0
BBX 12 13 0 0
BITMAP
7FFFFD
7FFFFD
007D00
007D00
007D00
007D00
007D00
007D00
007D00
007D00
007D00
007D00
007D00
ENDCHAR
STARTCHAR U
ENCODING 85
SWIDTH 600 0
DWIDTH 12 0
BBX 10 13 1 0
BITMAP
BD03E0
BD03E0
BD03E0
BD03E0
BD03E0
BD03E0
BD03E0
BD03E0
BD03E0
BD07E0
7E0BD0
2FFF80
06F900
ENDCHAR
STARTCHAR V
ENCODING 86
SWIDTH 600 0
DWIDTH 12 0
BBX 12 13 0 0
BITMAP
BE007E
7E00BD
3F00FC
2F41F8
1F81F4
0FC2F0
0BC3E0
07D7D0
03EBC0
02FBC0
02FF80
01FF40
00FF00
ENDCHAR
STARTCHAR W
ENCODING 87
SWIDTH 600 0
DWIDTH 12 0
BBX 12 13 0 0
BITMAP
FD003F
BD003E
BD003E
7D283D
7D3D7D
7D7E7D
3EBE7C
3EBF7C
2EEBBC
2EE7B8
2FD7F8
1FC3F4
1FC3F4
ENDCHAR
STARTCHAR X
ENCODING 88
SWIDTH 600 0
DWIDTH 12 0
BBX 12 13 0 0
BITMAP
3F00FC
2F81F8
0FC3F0
07E7D0
03FFC0
01FF40
00FF00
02FF40
03EFC0
0BD7E0
1F83F4
2F41F8
7E00FD
ENDCHAR
STARTCHAR Y
ENCODING 89
SWIDTH 600 0
DWIDTH 12 0
BBX 12 13 0 0
BITMAP
7E00BD
3F00FC
1F81F4
0FC3F0
07D7D0
03EBC0
02FF80
00FF00
00BE00
007D00
007D00
007D00
007D00
ENDCHAR
STARTCHAR Z
ENCODING 90
SWIDTH 600 0
DWIDTH 12 0
BBX 10 13 1 0
BITMAP
7FFFF0
7FFFE0
000FC0
002F40
007E00
00FD00
02F800
07F000
0FD000
1F8000
3F0000
BFFFF0
FFFFF0
ENDCHAR
STARTCHAR bracketleft
ENCODING 91
SWIDTH 600 0
DWIDTH 12 0
BBX 6 17 4 -3
BITMAP
FFF0
FFF0
F400
F400
F400
F400
F400
F400
F400
F400
F400
F400
F400
F400
F400
FFF0
FFF0
ENDCHAR
STARTCHAR backslash
ENCODING 92
SWIDTH 600 0
DWIDTH 12 0
BBX 10 17 1 -3
BITMAP
7C0000
3E0000
2F0000
0F4000
0B8000
07C000
03D000
02F000
01F400
00F800
007C00
003D00
002E00
001F00
000F80
000BC0
0003D0
ENDCHAR
STARTCHAR bracketright
ENCODING 93
SWIDTH 600 0
DWIDTH 12 0
BBX 6 17 2 -3
BITMAP
FFF0
FFF0
01F0
01F0
01F0
01F0
01F0
01F0
01F0
01F0
01F0
01F0
01F0
01F0
01F0
FFF0
FFF0
ENDCHAR
STARTCHAR asciicircum
ENCODING 94
SWIDTH 600 0
DWIDTH 12 0
BBX 8 8 2 5
BITMAP
07D0
0BE0
0FF0
2EB8
3D7C
7C3D
B82E
F41F
ENDCHAR
STARTCHAR underscore
ENCODING 95
SWIDTH 600 0
DWIDTH 12 0
BBX 10 2 1 -3
BITMAP
BFFFE0
BFFFE0
ENDCHAR
STARTCHAR grave
ENCODING 96
SWIDTH 600 0
DWIDTH 12 0
BBX 5 5 3 11
BITMAP
2000
F800
BE00
2F40
0600
ENDCHAR
STARTCHAR a
ENCODING 97
SWIDTH 600 0
DWIDTH 12 0
BBX 10 10 1 0
BITMAP
1AFE00
7FFF80
291FD0
0007E0
06BFE0
3FFFE0
BE47E0
BD1BE0
7FFFE0
1FE2E0
ENDCHAR
STARTCHAR b
ENCODING 98
SWIDTH 600 0
DWIDTH 12 0
BBX 10 14 1 0
BITMAP
BD0000
BD0000
BD0000
BD0000
BDBE40
BFFFC0
BF4BE0
BD03F0
BD03F0
BD03F0
BD07F0
BF4BD0
BFFF80
BCBE00
ENDCHAR
STARTCHAR c
ENCODING 99
SWIDTH 600 0
DWIDTH 12 0
BBX 10 10 1 0
BITMAP
01BF80
1FFFD0
3F8180
7E0000
BD0000
BD0000
7E0000
3F8180
1FFFE0
02FE80
ENDCHAR
STARTCHAR d
ENCODING 100
SWIDTH 600 0
DWIDTH 12 0
BBX 10 14 1 0
BITMAP
0007E0
0007E0
0007E0
0007E0
0BE7E0
2FFFE0
BE0BE0
FD07E0
FC07E0
FC07E0
FC07E0
BE1FE0
3FFFE0
0BE3E0
ENDCHAR
STARTCHAR e
ENCODING 101
SWIDTH 600 0
DWIDTH 12 0
BBX 10 10 1 0
BITMAP
06FE00
1FFF80
7F47D0
BD02E0
FFFFF0
FFFFF0
BD0000
7F4140
1FFFD0
06FE40
ENDCHAR
STARTCHAR f
ENCODING 102
SWIDTH 600 0
DWIDTH 12 0
BBX 11 14 1 0
BITMAP
002FE4
00FFF4
02F810
02F400
7FFFE0
7FFFE0
02F400
02F400
02F400
02F400
02F400
02F400
02F400
02F400
ENDCHAR
STARTCHAR g
ENCODING 103
SWIDTH 600 0
DWIDTH 12 0
BBX 11 14 1 -4
BITMAP
06FFF4
2FFFF4
7E1F80
BD0F80
7E5F80
2FFF00
2EA800
7C0000
7FFF90
2FFFF4
B802F4
F906F4
BFFFD0
1BFA40
ENDCHAR
STARTCHAR h
ENCODING 104
SWIDTH 600 0
DWIDTH 12 0
BBX 10 14 1 0
BITMAP
BD0000
BD0000
BD0000
BD0000
BD7F40
BFFFD0
BF4BE0
BD07E0
BD03E0
BD03E0
BD03E0
BD03E0
BD03E0
BD03E0
ENDCHAR
STARTCHAR i
ENCODING 105
SWIDTH 600 0
DWIDTH 12 0
BBX 8 15 1 0
BITMAP
007D
00FE
00FE
007D
0000
7FFE
7FFE
007E
007E
007E
007E
007E
007E
007E
007E
ENDCHAR
STARTCHAR j
ENCODING 106
SWIDTH 600 0
DWIDTH 12 0
BBX 8 19 1 -4
BITMAP
007D
00FE
00FE
007D
0000
7FFE
7FFE
007E
007E
007E
007E
007E
007E
007E
007D
00BD
50FC
BFF8
BF90
ENDCHAR
STARTCHAR k
ENCODING 107
SWIDTH 600 0
DWIDTH 12 0
BBX 11 14 1 0
BITMAP
7D0000
7D0000
7D0000
7D0000
7D07F0
7D1FC0
7D3F40
7EFD00
7FFC00
7FFE00
7F6F40
7E0FC0
7D07E0
7D02F4
ENDCHAR
STARTCHAR l
ENCODING 108
SWIDTH 600 0
DWIDTH 12 0
BBX 10 14 1 0
BITMAP
FFF000
FFF000
03F000
03F000
03F000
03F000
03F000
03F000
03F000
03F000
02F000
02F800
00FFE0
006FE0
ENDCHAR
STARTCHAR m
ENCODING 109
SWIDTH 600 0
DWIDTH 12 0
BBX 12 10 0 0
BITMAP
7CB5F8
7FFFFD
7F7E7D
7E3D7D
7E3D7D
7E3D7D
7E3D7D
7E3D7D
7E3D7D
7E3D7D
ENDCHAR
STARTCHAR n
ENCODING 110
SWIDTH 600 0
DWIDTH 12 0
BBX 10 10 1 0
BITMAP
BC7F40
BEFFD0
BF4BE0
BD07E0
BD03E0
BD03E0
BD03E0
BD03E0
BD03E0
BD03E0
ENDCHAR
STARTCHAR o
ENCODING 111
SWIDTH 600 0
DWIDTH 12 0
BBX 10 10 1 0
BITMAP
06F900
2FFF80
7E0BD0
FD07F0
FC03F0
FC03F0
FD07F0
7E0BD0
2FFF80
06F900
ENDCHAR
STARTCHAR p
ENCODING 112
SWIDTH 600 0
DWIDTH 12 0
BBX 10 14 1 -4
BITMAP
BCBE40
BFFFC0
BF4BE0
BD03F0
BD03F0
BD03F0
BD07F0
BE4BD0
BFFF80
BDBE00
BD0000
BD0000
BD0000
BD0000
ENDCHAR
STARTCHAR q
ENCODING 113
SWIDTH 600 0
DWIDTH 12 0
BBX 10 14 1 -4
BITMAP
0BE7E0
2FFFE0
BE0FE0
FD07E0
FC07E0
FC07E0
FC07E0
BE1BE0
3FFFE0
0BE7E0
0007E0
0007E0
0007E0
0007E0
ENDCHAR
STARTCHAR r
ENCODING 114
SWIDTH 600 0
DWIDTH 12 0
BBX 9 10 2 0
BITMAP
B86F80
BDFF80
BF9000
BE0000
BD0000
BD0000
BD0000
BD0000
BD0000
BD0000
ENDCHAR
STARTCHAR s
ENCODING 115
SWIDTH 600 0
DWIDTH 12 0
BBX 10 10 1 0
BITMAP
06FE40
2FFFD0
7E0680
7F5000
2FFE40
06FFD0
001BE0
7907E0
BFFFD0
1BFE00
ENDCHAR
STARTCHAR t
ENCODING 116
SWIDTH 600 0
DWIDTH 12 0
BBX 10 13 1 0
BITMAP
03D000
07D000
07D000
FFFFE0
FFFFE0
0BD000
0BD000
0BD000
0BD000
07E000
07F400
02FFE0
00BFE0
ENDCHAR
STARTCHAR u
ENCODING 117
SWIDTH 600 0
DWIDTH 12 0
BBX 10 10 1 0
BITMAP
BD07E0
BD07E0
BD07E0
BD07E0
BD07E0
BD07E0
BD0BE0
BE1FE0
7FFBE0
1FD3E0
ENDCHAR
STARTCHAR v
ENCODING 118
SWIDTH 600 0
DWIDTH 12 0
BBX 12 10 0 0
BITMAP
7E00BD
2F00F8
1F41F4
0F82F0
0BC3E0
07D7D0
03EBC0
02FB80
01FF40
00BF00
ENDCHAR
STARTCHAR w
ENCODING 119
SWIDTH 600 0
DWIDTH 12 0
BBX 12 10 0 0
BITMAP
FC003F
BC283E
BD7D3E
7D7E7D
7EBE7D
3EAB7C
3EEBBC
2FE7F8
2FD7F8
1FD3F4
ENDCHAR
STARTCHAR x
ENCODING 120
SWIDTH 600 0
DWIDTH 12 0
BBX 10 10 1 0
BITMAP
BD07E0
3F0FC0
1F9F40
0BFE00
03FD00
07FC00
0FFE00
2F6F40
7E0FD0
FC07F0
ENDCHAR
STARTCHAR y
ENCODING 121
SWIDTH 600 0
DWIDTH 12 0
BBX 11 14 1 -4
BITMAP
F802F4
BC03F0
7E07D0
2F0BC0
1F4F80
0F9F40
07DF00
03FE00
01FC00
00F800
01F400
07F000
7FD000
7E4000
ENDCHAR
STARTCHAR z
ENCODING 122
SWIDTH 600 0
DWIDTH 12 0
BBX 10 10 1 0
BITMAP
3FFFE0
3FFFD0
002F80
00BF00
01FD00
03F400
0FE000
2F8000
7FFFE0
BFFFE0
ENDCHAR
STARTCHAR braceleft
ENCODING 123
SWIDTH 600 0
DWIDTH 12 0
BBX 8 17 2 -3
BITMAP
01BF
03FF
07D0
07C0
07C0
03C0
0BC0
FF40
FF40
1BC0
07C0
07C0
07C0
07C0
07D0
03FF
01BF
ENDCHAR
STARTCHAR bar
ENCODING 124
SWIDTH 600 0
DWIDTH 12 0
BBX 4 20 4 -5
BITMAP
7D
7D
7D
7D
7D
7D
7D
7D
7D
7D
7D
7D
7D
7D
7D
7D
7D
7D
7D
7D
ENDCHAR
STARTCHAR braceright
ENCODING 125
SWIDTH 600 0
DWIDTH 12 0
BBX 8 17 2 -3
BITMAP
FE40
FFC0
07D0
03D0
03D0
03C0
03E0
01FF
01FF
03E4
03D0
03D0
03D0
03D0
07D0
FFC0
FE40
ENDCHAR
STARTCHAR asciitilde
ENCODING 126
SWIDTH 600 0
DWIDTH 12 0
BBX 10 3 1 5
BITMAP
1F91E0
7FFFD0
B46F40
ENDCHAR
STARTCHAR uni00A0
ENCODING 160
SWIDTH 600 0
DWIDTH 12 0
BBX 1 1 0 0
BITMAP
00
ENDCHAR
STARTCHAR exclamdown
ENCODING 161
SWIDTH 600 0
DWIDTH 12 0
BBX 4 14 4 -4
BITMAP
7D
FF
FF
7D
00
3C
3C
3C
7D
7D
7D
7D
7D
7D
ENDCHAR
STARTCHAR cent
ENCODING 162
SWIDTH 600 0
DWIDTH 12 0
BBX 8 14 2 -1
BITMAP
00B0
00B0
06FE
2FFE
7EB4
FCB0
F8B0
F8B0
FCB0
7EB5
2FFF
07FD
00B0
00B0
ENDCHAR
STARTCHAR sterling
ENCODING 163
SWIDTH 600 0
DWIDTH 12 0
BBX 10 13 1 0
BITMAP
01BF80
07FFE0
0FD180
1F8000
1F8000
0F8000
BFFF00
BFFF00
07D000
07C000
0F8000
7FFFF0
BFFFF0
ENDCHAR
STARTCHAR currency
ENCODING 164
SWIDTH 600 0
DWIDTH 12 0
BBX 10 10 1 2
BITMAP
B000E0
FEFBF0
3FFFC0
3E0BC0
7D07D0
7D07D0
3E0BC0
3FFFC0
FEFBF0
B000E0
ENDCHAR
STARTCHAR yen
ENCODING 165
SWIDTH 600 0
DWIDTH 12 0
BBX 10 13 1 0
BITMAP
FC02F0
BD07E0
3E0BC0
2F0F80
0F9F00
07FD00
BFFFE0
FFFFF0
02F800
BFFFE0
FFFFF0
02F800
01F400
ENDCHAR
STARTCHAR brokenbar
ENCODING 166
SWIDTH 600 0
DWIDTH 12 0
BBX 4 20 4 -5
BITMAP
7D
7D
7D
7D
7D
7D
7D
7D
69
00
00
69
7D
7D
7D
7D
7D
7D
7D
7D
ENDCHAR
STARTCHAR section
ENCODING 167
SWIDTH 600 0
DWIDTH 12 0
BBX 10 16 1 -2
BITMAP
06F900
0FFF40
1F4600
1F8000
1FF400
2FFF40
7D7FC0
BC0BD0
7E03E0
3FE7D0
1FFF80
01FF00
002F40
191F40
3FFE00
1BF800
ENDCHAR
STARTCHAR dieresis
ENCODING 168
SWIDTH 600 0
DWIDTH 12 0
BBX 8 3 2 12
BITMAP
782D
BD7E
782D
ENDCHAR
STARTCHAR copyright
ENCODING 169
SWIDTH 600 0
DWIDTH 12 0
BBX 12 13 0 0
BITMAP
01BE40
0BFFE0
2E41B8
38142C
71FF4D
A3EA0A
A7C00A
A3EA0A
71FF4D
38152C
1E41B4
0BFFE0
01BE40
ENDCHAR
STARTCHAR ordfeminine
ENCODING 170
SWIDTH 600 0
DWIDTH 12 0
BBX 7 7 3 7
BITMAP
2F90
BFF0
11F0
2BF4
FFF4
FFF4
7EB4
ENDCHAR
STARTCHAR guillemotleft
ENCODING 171
SWIDTH 600 0
DWIDTH 12 0
BBX 10 9 1 1
BITMAP
060090
1F47E0
BD1F80
F83F00
F43D00
F83F00
BD1F80
1F47E0
060090
ENDCHAR
STARTCHAR logicalnot
ENCODING 172
SWIDTH 600 0
DWIDTH 12 0
BBX 10 6 1 2
BITMAP
BFFFE0
BFFFE0
0002E0
0002E0
0002E0
000190
ENDCHAR
STARTCHAR uni00AD
ENCODING 173
SWIDTH 600 0
DWIDTH 12 0
BBX 10 2 1 6
BITMAP
BFFFE0
BFFFE0
ENDCHAR
STARTCHAR registered
ENCODING 174
SWIDTH 600 0
DWIDTH 12 0
BBX 8 9 2 5
BITMAP
0BE0
3FFC
B41D
D956
CBD7
D9A6
B41D
3FFC
0BE0
ENDCHAR
STARTCHAR macron
ENCODING 175
SWIDTH 600 0
DWIDTH 12 0
BBX 6 2 3 12
BITMAP
FFF0
FFF0
ENDCHAR
STARTCHAR degree
ENCODING 176
SWIDTH 600 0
DWIDTH 12 0
BBX 6 6 3 8
BITMAP
2F80
7FD0
B0E0
B0E0
7FD0
2F80
ENDCHAR
STARTCHAR plusminus
ENCODING 177
SWIDTH 600 0
DWIDTH 12 0
BBX 10 11 1 0
BITMAP
00F000
00F000
00F000
BFFFE0
BFFFE0
00F000
00F000
00F000
000000
BFFFE0
BFFFE0
ENDCHAR
STARTCHAR two.sups
ENCODING 178
SWIDTH 600 0
DWIDTH 12 0
BBX 6 8 3 7
BITMAP
6F80
FFE0
92E0
01E0
07C0
1E00
BFF0
FFF0
ENDCHAR
STARTCHAR three.sups
ENCODING 179
SWIDTH 600 0
DWIDTH 12 0
BBX 6 8 3 7
BITMAP
2F80
FFE0
51E0
0FD0
0FE0
91F0
FFF0
6F80
ENDCHAR
STARTCHAR acute
ENCODING 180
SWIDTH 600 0
DWIDTH 12 0
BBX 5 5 4 11
BITMAP
0200
0BC0
2F80
7E00
2400
ENDCHAR
STARTCHAR uni00B5
ENCODING 181
SWIDTH 600 0
DWIDTH 12 0
BBX 11 14 1 -4
BITMAP
BD07D0
BD07D0
BD07D0
BD07D0
BD07D0
BD07D0
BD0BD0
BE1FD0
BFFBF4
BEE1F8
BC0000
BC0000
BC0000
BD0000
ENDCHAR
STARTCHAR paragraph
ENCODING 182
SWIDTH 600 0
DWIDTH 12 0
BBX 10 15 1 -2
BITMAP
0BE7E0
3FE7E0
BFE7E0
FFE7E0
FFE7E0
FFE7E0
BFE7E0
3FE7E0
0BE7E0
0007E0
0007E0
0007E0
0007E0
0007E0
0007E0
ENDCHAR
STARTCHAR periodcentered
ENCODING 183
SWIDTH 600 0
DWIDTH 12 0
BBX 6 5 3 5
BITMAP
1F40
3FC0
7FD0
3FC0
1F40
ENDCHAR
STARTCHAR cedilla
ENCODING 184
SWIDTH 600 0
DWIDTH 12 0
BBX 4 5 4 -5
BITMAP
38
7D
2F
2E
E8
ENDCHAR
STARTCHAR one.sups
ENCODING 185
SWIDTH 600 0
DWIDTH 12 0
BBX 7 8 3 7
BITMAP
1BC0
7FC0
07C0
07C0
07C0
07C0
BFFC
BFFC
ENDCHAR
STARTCHAR ordmasculine
ENCODING 186
SWIDTH 600 0
DWIDTH 12 0
BBX 8 7 2 7
BITMAP
0BE0
2FF8
7C3D
782D
7C3D
2FF8
0BE0
ENDCHAR
STARTCHAR guillemotright
ENCODING 187
SWIDTH 600 0
DWIDTH 12 0
BBX 10 9 1 1
BITMAP
600900
7D1F40
2F47E0
0FC2F0
07C0F0
0FC2F0
2F47E0
7D1F40
600900
ENDCHAR
STARTCHAR onequarter
ENCODING 188
SWIDTH 600 0
DWIDTH 12 0
BBX 12 13 0 0
BITMAP
000018
1BC03D
3FC0B8
07C2D0
07C240
07C000
07C000
018280
0787A8
2E0B3C
7C1FFF
241FFF
00003C
ENDCHAR
STARTCHAR onehalf
ENCODING 189
SWIDTH 600 0
DWIDTH 12 0
BBX 12 13 0 0
BITMAP
000018
1BC03D
3FC0B8
07C2D0
07C240
07C000
07C2F4
018BFC
07813D
2E007C
7C01F0
2407FD
000BFD
ENDCHAR
STARTCHAR threequarters
ENCODING 190
SWIDTH 600 0
DWIDTH 12 0
BBX 12 13 0 0
BITMAP
2F8008
7FD03E
12D0B8
0BC2E0
1BE180
7FE000
2F8000
018280
0787A8
1F0B3C
7D1FFF
241FFF
00003C
ENDCHAR
STARTCHAR questiondown
ENCODING 191
SWIDTH 600 0
DWIDTH 12 0
BBX 8 14 2 -4
BITMAP
02E0
0BF4
0BF4
02E0
0000
03E0
07D0
1FC0
3F40
BD00
FC00
BD18
7FFE
1BE4
ENDCHAR
STARTCHAR Agrave
ENCODING 192
SWIDTH 600 0
DWIDTH 12 0
BBX 12 18 0 0
BITMAP
009000
02F800
00BE00
001900
000000
00FF00
01FF40
02FF80
03EBC0
07DBC0
07C7D0
0BC3E0
0F82F0
1FFFF4
2FFFF8
3F00FC
7E00BD
BD007E
ENDCHAR
STARTCHAR Aacute
ENCODING 193
SWIDTH 600 0
DWIDTH 12 0
BBX 12 18 0 0
BITMAP
000600
002F80
00BE00
006400
000000
00FF00
01FF40
02FF80
03EBC0
07DBC0
07C7D0
0BC3E0
0F82F0
1FFFF4
2FFFF8
3F00FC
7E00BD
BD007E
ENDCHAR
STARTCHAR Acircumflex
ENCODING 194
SWIDTH 600 0
DWIDTH 12 0
BBX 12 17 0 0
BITMAP
00FF00
02EB80
024180
000000
00FF00
01FF40
02FF80
03EBC0
07DBC0
07C7D0
0BC3E0
0F82F0
1FFFF4
2FFFF8
3F00FC
7E00BD
BD007E
ENDCHAR
STARTCHAR Atilde
ENCODING 195
SWIDTH 600 0
DWIDTH 12 0
BBX 12 17 0 0
BITMAP
02E4A0
0BFFE0
0A1B80
000000
00FF00
01FF40
02FF80
03EBC0
07DBC0
07C7D0
0BC3E0
0F82F0
1FFFF4
2FFFF8
3F00FC
7E00BD
BD007E
ENDCHAR
STARTCHAR Adieresis
ENCODING 196
SWIDTH 600 0
DWIDTH 12 0
BBX 12 17 0 0
BITMAP
0782D0
0BD7E0
0782D0
000000
00FF00
01FF40
02FF80
03EBC0
07DBC0
07C7D0
0BC3E0
0F82F0
1FFFF4
2FFFF8
3F00FC
7E00BD
BD007E
ENDCHAR
STARTCHAR Aring
ENCODING 197
SWIDTH 600 0
DWIDTH 12 0
BBX 12 18 0 0
BITMAP
007D00
01D740
01D740
007D00
000000
00FF00
01FF40
02FF80
03EBC0
07DBC0
07C7D0
0BC3E0
0F82F0
1FFFF4
2FFFF8
3F00FC
7E00BD
BD007E
ENDCHAR
STARTCHAR AE
ENCODING 198
SWIDTH 600 0
DWIDTH 12 0
BBX 12 13 0 0
BITMAP
00FFFE
01FFFE
02FF80
03EB80
07EB80
0BDB80
0FCBFD
1F8BFD
2FFF80
3FFF80
7E0B80
BD0BFF
FC0BFF
ENDCHAR
STARTCHAR Ccedilla
ENCODING 199
SWIDTH 600 0
DWIDTH 12 0
BBX 10 18 1 -5
BITMAP
01BF80
0BFFF0
2F8180
7E0000
BD0000
FD0000
FC0000
FD0000
BD0000
7F0000
2F81D0
0BFFF0
01BF80
003800
00BD00
002E00
002E00
01E400
ENDCHAR
STARTCHAR Egrave
ENCODING 200
SWIDTH 600 0
DWIDTH 12 0
BBX 9 18 2 0
BITMAP
060000
1FD000
07F400
00A000
000000
FFFF40
FFFF40
F80000
F80000
F80000
F80000
FFFE00
FFFE00
F80000
F80000
F80000
FFFF80
FFFF80
ENDCHAR
STARTCHAR Eacute
ENCODING 201
SWIDTH 600 0
DWIDTH 12 0
BBX 9 18 2 0
BITMAP
002400
01FC00
07F400
028000
000000
FFFF40
FFFF40
F80000
F80000
F80000
F80000
FFFE00
FFFE00
F80000
F80000
F80000
FFFF80
FFFF80
ENDCHAR
STARTCHAR Ecircumflex
ENCODING 202
SWIDTH 600 0
DWIDTH 12 0
BBX 9 17 2 0
BITMAP
0BF400
1F7D00
181900
000000
FFFF40
FFFF40
F80000
F80000
F80000
F80000
FFFE00
FFFE00
F80000
F80000
F80000
FFFF80
FFFF80
ENDCHAR
STARTCHAR Edieresis
ENCODING 203
SWIDTH 600 0
DWIDTH 12 0
BBX 9 17 2 0
BITMAP
2D1E00
7E2F00
2D1E00
000000
FFFF40
FFFF40
F80000
F80000
F80000
F80000
FFFE00
FFFE00
F80000
F80000
F80000
FFFF80
FFFF80
ENDCHAR
STARTCHAR Igrave
ENCODING 204
SWIDTH 600 0
DWIDTH 12 0
BBX 10 18 1 0
BITMAP
024000
0BE000
02F800
006400
000000
BFFFE0
BFFFE0
01F400
01F400
01F400
01F400
01F400
01F400
01F400
01F400
01F400
BFFFE0
BFFFE0
ENDCHAR
STARTCHAR Iacute
ENCODING 205
SWIDTH 600 0
DWIDTH 12 0
BBX 10 18 1 0
BITMAP
001800
00BE00
02F800
019000
000000
BFFFE0
BFFFE0
01F400
01F400
01F400
01F400
01F400
01F400
01F400
01F400
01F400
BFFFE0
BFFFE0
ENDCHAR
STARTCHAR Icircumflex
ENCODING 206
SWIDTH 600 0
DWIDTH 12 0
BBX 10 17 1 0
BITMAP
03FC00
0BAE00
090600
000000
BFFFE0
BFFFE0
01F400
01F400
01F400
01F400
01F400
01F400
01F400
01F400
01F400
BFFFE0
BFFFE0
ENDCHAR
STARTCHAR Idieresis
ENCODING 207
SWIDTH 600 0
DWIDTH 12 0
BBX 10 17 1 0
BITMAP
1E0B40
2F5F80
1E0B40
000000
BFFFE0
BFFFE0
01F400
01F400
01F400
01F400
01F400
01F400
01F400
01F400
01F400
BFFFE0
BFFFE0
ENDCHAR
STARTCHAR Eth
ENCODING 208
SWIDTH 600 0
DWIDTH 12 0
BBX 12 13 0 0
BITMAP
2FFE40
2FFFD0
2F47F4
2F41F8
2F40FC
FFF8BD
FFF8BD
2F40BD
2F40FC
2F41F8
2F47F4
2FFFD0
2FFE40
ENDCHAR
STARTCHAR Ntilde
ENCODING 209
SWIDTH 600 0
DWIDTH 12 0
BBX 10 17 1 0
BITMAP
0BD280
1FFFC0
196E40
000000
BE03E0
BF03E0
BF43E0
BF83E0
BBD3E0
BDE3E0
BCF3E0
BCB7E0
BC7EE0
BC2FE0
BC1FE0
BC0FE0
BC0BE0
ENDCHAR
STARTCHAR Ograve
ENCODING 210
SWIDTH 600 0
DWIDTH 12 0
BBX 12 18 0 0
BITMAP
009000
02F800
00BE00
001900
000000
01BE40
0BFFE0
1F82F4
2F41F8
3F00FC
7E00BD
7E00BD
7E00BD
3F00FC
2F41F8
1F82F4
0BFFE0
01BE40
ENDCHAR
STARTCHAR Oacute
ENCODING 211
SWIDTH 600 0
DWIDTH 12 0
BBX 12 18 0 0
BITMAP
000600
002F80
00BE00
006400
000000
01BE40
0BFFE0
1F82F4
2F41F8
3F00FC
7E00BD
7E00BD
7E00BD
3F00FC
2F41F8
1F82F4
0BFFE0
01BE40
ENDCHAR
STARTCHAR Ocircumflex
ENCODING 212
SWIDTH 600 0
DWIDTH 12 0
BBX 12 17 0 0
BITMAP
00FF00
02EB80
024180
000000
01BE40
0BFFE0
1F82F4
2F41F8
3F00FC
7E00BD
7E00BD
7E00BD
3F00FC
2F41F8
1F82F4
0BFFE0
01BE40
ENDCHAR
STARTCHAR Otilde
ENCODING 213
SWIDTH 600 0
DWIDTH 12 0
BBX 12 17 0 0
BITMAP
02E4A0
0BFFE0
0A1B80
000000
01BE40
0BFFE0
1F82F4
2F41F8
3F00FC
7E00BD
7E00BD
7E00BD
3F00FC
2F41F8
1F82F4
0BFFE0
01BE40
ENDCHAR
STARTCHAR Odieresis
ENCODING 214
SWIDTH 600 0
DWIDTH 12 0
BBX 12 17 0 0
BITMAP
0782D0
0BD7E0
0782D0
000000
01BE40
0BFFE0
1F82F4
2F41F8
3F00FC
7E00BD
7E00BD
7E00BD
3F00FC
2F41F8
1F82F4
0BFFE0
01BE40
ENDCHAR
STARTCHAR multiply
ENCODING 215
SWIDTH 600 0
DWIDTH 12 0
BBX 8 9 2 2
BITMAP
5009
F42F
BD7D
2FF4
0BE0
1FF4
7EBD
F82F
6009
ENDCHAR
STARTCHAR Oslash
ENCODING 216
SWIDTH 600 0
DWIDTH 12 0
BBX 12 15 0 -1
BITMAP
000004
01BE6D
0BFFF8
1F87F4
2F43F8
3F0BFC
7E1FFD
7E7DBD
7FF4BD
3FE0FC
2FC1F8
1FD2F4
2FFFE0
79BE40
100000
ENDCHAR
STARTCHAR Ugrave
ENCODING 217
SWIDTH 600 0
DWIDTH 12 0
BBX 10 18 1 0
BITMAP
024000
0BE000
02F800
006400
000000
BD03E0
BD03E0
BD03E0
BD03E0
BD03E0
BD03E0
BD03E0
BD03E0
BD03E0
BD07E0
7E0BD0
2FFF80
06F900
ENDCHAR
STARTCHAR Uacute
ENCODING 218
SWIDTH 600 0
DWIDTH 12 0
BBX 10 18 1 0
BITMAP
001800
00BE00
02F800
019000
000000
BD03E0
BD03E0
BD03E0
BD03E0
BD03E0
BD03E0
BD03E0
BD03E0
BD03E0
BD07E0
7E0BD0
2FFF80
06F900
ENDCHAR
STARTCHAR Ucircumflex
ENCODING 219
SWIDTH 600 0
DWIDTH 12 0
BBX 10 17 1 0
BITMAP
03FC00
0BAE00
090600
000000
BD03E0
BD03E0
BD03E0
BD03E0
BD03E0
BD03E0
BD03E0
BD03E0
BD03E0
BD07E0
7E0BD0
2FFF80
06F900
ENDCHAR
STARTCHAR Udieresis
ENCODING 220
SWIDTH 600 0
DWIDTH 12 0
BBX 10 17 1 0
BITMAP
1E0B40
2F5F80
1E0B40
000000
BD03E0
BD03E0
BD03E0
BD03E0
BD03E0
BD03E0
BD03E0
BD03E0
BD03E0
BD07E0
7E0BD0
2FFF80
06F900
ENDCHAR
STARTCHAR Yacute
ENCODING 221
SWIDTH 600 0
DWIDTH 12 0
BBX 12 18 0 0
BITMAP
000600
002F80
00BE00
006400
000000
7E00BD
3F00FC
1F81F4
0FC3F0
07D7D0
03EBC0
02FF80
00FF00
00BE00
007D00
007D00
007D00
007D00
ENDCHAR
STARTCHAR Thorn
ENCODING 222
SWIDTH 600 0
DWIDTH 12 0
BBX 11 13 1 0
BITMAP
BD0000
BD0000
BFFE40
BFFFD0
BD07F0
BD02F4
BD02F4
BD07F0
BFFFD0
BFFE00
BD0000
BD0000
BD0000
ENDCHAR
STARTCHAR germandbls
ENCODING 223
SWIDTH 600 0
DWIDTH 12 0
BBX 11 14 1 0
BITMAP
0BF800
2FFF00
7E1F40
BD1F40
BC2F40
BC3E00
BC7D00
BC7E00
BC2FD0
BC0BF0
BC02F4
BC11F4
BC7FF0
BC6F80
ENDCHAR
STARTCHAR agrave
ENCODING 224
SWIDTH 600 0
DWIDTH 12 0
BBX 10 16 1 0
BITMAP
024000
0BD000
07F000
01F800
006000
000000
1AFE00
7FFF80
291FD0
0007E0
06BFE0
3FFFE0
BE47E0
BD1BE0
7FFFE0
1FE2E0
ENDCHAR
STARTCHAR aacute
ENCODING 225
SWIDTH 600 0
DWIDTH 12 0
BBX 10 16 1 0
BITMAP
000900
001F40
007F40
00FD00
006000
000000
1AFE00
7FFF80
291FD0
0007E0
06BFE0
3FFFE0
BE47E0
BD1BE0
7FFFE0
1FE2E0
ENDCHAR
STARTCHAR acircumflex
ENCODING 226
SWIDTH 600 0
DWIDTH 12 0
BBX 10 15 1 0
BITMAP
01FD00
07FF00
0F8B80
090240
000000
1AFE00
7FFF80
291FD0
0007E0
06BFE0
3FFFE0
BE47E0
BD1BE0
7FFFE0
1FE2E0
ENDCHAR
STARTCHAR atilde
ENCODING 227
SWIDTH 600 0
DWIDTH 12 0
BBX 10 14 1 0
BITMAP
0BE2C0
1FFFC0
192F40
000000
1AFE00
7FFF80
291FD0
0007E0
06BFE0
3FFFE0
BE47E0
BD1BE0
7FFFE0
1FE2E0
ENDCHAR
STARTCHAR adieresis
ENCODING 228
SWIDTH 600 0
DWIDTH 12 0
BBX 10 15 1 0
BITMAP
0B4780
1F8FD0
0B4B80
000000
000000
1AFE00
7FFF80
291FD0
0007E0
06BFE0
3FFFE0
BE47E0
BD1BE0
7FFFE0
1FE2E0
ENDCHAR
STARTCHAR aring
ENCODING 229
SWIDTH 600 0
DWIDTH 12 0
BBX 10 15 1 0
BITMAP
01F900
038F00
038F00
01F900
000000
1AFE00
7FFF80
291FD0
0007E0
06BFE0
3FFFE0
BE47E0
BD1BE0
7FFFE0
1FE2E0
ENDCHAR
STARTCHAR ae
ENCODING 230
SWIDTH 600 0
DWIDTH 12 0
BBX 12 10 0 0
BITMAP
1BD2F4
3FFFFC
147E2D
06FD1E
2FFFFE
7E7FFE
BC3D00
BC7E04
7FFFFD
1F86F8
ENDCHAR
STARTCHAR ccedilla
ENCODING 231
SWIDTH 600 0
DWIDTH 12 0
BBX 10 15 1 -5
BITMAP
01BF80
1FFFD0
3F8180
7E0000
BD0000
BD0000
7E0000
3F8180
1FFFE0
02FE80
003800
00BD00
002E00
002E00
01E400
ENDCHAR
STARTCHAR egrave
ENCODING 232
SWIDTH 600 0
DWIDTH 12 0
BBX 10 16 1 0
BITMAP
024000
0BC000
0BE000
01F800
006000
000000
06FE00
1FFF80
7F47D0
BD02E0
FFFFF0
FFFFF0
BD0000
7F4140
1FFFD0
06FE40
ENDCHAR
STARTCHAR eacute
ENCODING 233
SWIDTH 600 0
DWIDTH 12 0
BBX 10 16 1 0
BITMAP
000900
002F40
007F40
00F800
006000
000000
06FE00
1FFF80
7F47D0
BD02E0
FFFFF0
FFFFF0
BD0000
7F4140
1FFFD0
06FE40
ENDCHAR
STARTCHAR ecircumflex
ENCODING 234
SWIDTH 600 0
DWIDTH 12 0
BBX 10 15 1 0
BITMAP
02FC00
07FE00
1F9F80
090240
000000
06FE00
1FFF80
7F47D0
BD02E0
FFFFF0
FFFFF0
BD0000
7F4140
1FFFD0
06FE40
ENDCHAR
STARTCHAR edieresis
ENCODING 235
SWIDTH 600 0
DWIDTH 12 0
BBX 10 15 1 0
BITMAP
1F4B80
2F8FC0
1F4B80
000000
000000
06FE00
1FFF80
7F47D0
BD02E0
FFFFF0
FFFFF0
BD0000
7F4140
1FFFD0
06FE40
ENDCHAR
STARTCHAR igrave
ENCODING 236
SWIDTH 600 0
DWIDTH 12 0
BBX 8 16 1 0
BITMAP
0180
07E0
02F8
00BD
0028
0000
7FFE
7FFE
007E
007E
007E
007E
007E
007E
007E
007E
ENDCHAR
STARTCHAR iacute
ENCODING 237
SWIDTH 600 0
DWIDTH 12 0
BBX 9 16 1 0
BITMAP
000200
000BC0
002F80
007E00
002400
000000
7FFE00
7FFE00
007E00
007E00
007E00
007E00
007E00
007E00
007E00
007E00
ENDCHAR
STARTCHAR icircumflex
ENCODING 238
SWIDTH 600 0
DWIDTH 12 0
BBX 10 15 1 0
BITMAP
00FE00
02FF80
07D7D0
060180
000000
7FFE00
7FFE00
007E00
007E00
007E00
007E00
007E00
007E00
007E00
007E00
ENDCHAR
STARTCHAR idieresis
ENCODING 239
SWIDTH 600 0
DWIDTH 12 0
BBX 10 15 1 0
BITMAP
0783D0
0FD7E0
0783D0
000000
000000
7FFE00
7FFE00
007E00
007E00
007E00
007E00
007E00
007E00
007E00
007E00
ENDCHAR
STARTCHAR eth
ENCODING 240
SWIDTH 600 0
DWIDTH 12 0
BBX 10 14 1 0
BITMAP
064180
0FEBC0
03FE00
1FBF00
191F80
0BEBD0
3FFFE0
BD0BF0
F802F0
F802F0
FC03E0
BE0BD0
2FFF80
06F900
ENDCHAR
STARTCHAR ntilde
ENCODING 241
SWIDTH 600 0
DWIDTH 12 0
BBX 10 14 1 0
BITMAP
0BE3C0
1FFF80
192E40
000000
BC7F40
BEFFD0
BF4BE0
BD07E0
BD03E0
BD03E0
BD03E0
BD03E0
BD03E0
BD03E0
ENDCHAR
STARTCHAR ograve
ENCODING 242
SWIDTH 600 0
DWIDTH 12 0
BBX 10 16 1 0
BITMAP
020000
0F8000
0BE000
02F400
006000
000000
06F900
2FFF80
7E0BD0
FD07F0
FC03F0
FC03F0
FD07F0
7E0BD0
2FFF80
06F900
ENDCHAR
STARTCHAR oacute
ENCODING 243
SWIDTH 600 0
DWIDTH 12 0
BBX 10 16 1 0
BITMAP
000800
002F00
00BE00
01F800
009000
000000
06F900
2FFF80
7E0BD0
FD07F0
FC03F0
FC03F0
FD07F0
7E0BD0
2FFF80
06F900
ENDCHAR
STARTCHAR ocircumflex
ENCODING 244
SWIDTH 600 0
DWIDTH 12 0
BBX 10 15 1 0
BITMAP
03FC00
0BFE00
1F5F40
090600
000000
06F900
2FFF80
7E0BD0
FD07F0
FC03F0
FC03F0
FD07F0
7E0BD0
2FFF80
06F900
ENDCHAR
STARTCHAR otilde
ENCODING 245
SWIDTH 600 0
DWIDTH 12 0
BBX 10 15 1 0
BITMAP
010000
0FD780
2FFF80
286E00
000000
06F900
2FFF80
7E0BD0
FD07F0
FC03F0
FC03F0
FD07F0
7E0BD0
2FFF80
06F900
ENDCHAR
STARTCHAR odieresis
ENCODING 246
SWIDTH 600 0
DWIDTH 12 0
BBX 10 15 1 0
BITMAP
1E0B40
2F5F80
1E0B40
000000
000000
06F900
2FFF80
7E0BD0
FD07F0
FC03F0
FC03F0
FD07F0
7E0BD0
2FFF80
06F900
ENDCHAR
STARTCHAR divide
ENCODING 247
SWIDTH 600 0
DWIDTH 12 0
BBX 10 10 1 2
BITMAP
01F400
02F800
01F400
000000
BFFFE0
BFFFE0
000000
01F400
02F800
01F400
ENDCHAR
STARTCHAR oslash
ENCODING 248
SWIDTH 600 0
DWIDTH 12 0
BBX 10 10 1 0
BITMAP
06F9D0
2FFFC0
7E1FD0
FD2FF0
FCB7F0
FDE3F0
FF87F0
7F4BD0
3FFF80
76F900
ENDCHAR
STARTCHAR ugrave
ENCODING 249
SWIDTH 600 0
DWIDTH 12 0
BBX 10 16 1 0
BITMAP
060000
1F8000
0BE000
02F400
00A000
000000
BD07E0
BD07E0
BD07E0
BD07E0
BD07E0
BD07E0
BD0BE0
BE1FE0
7FFBE0
1FD3E0
ENDCHAR
STARTCHAR uacute
ENCODING 250
SWIDTH 600 0
DWIDTH 12 0
BBX 10 16 1 0
BITMAP
000800
002F00
00BE00
01F800
009000
000000
BD07E0
BD07E0
BD07E0
BD07E0
BD07E0
BD07E0
BD0BE0
BE1FE0
7FFBE0
1FD3E0
ENDCHAR
STARTCHAR ucircumflex
ENCODING 251
SWIDTH 600 0
DWIDTH 12 0
BBX 10 15 1 0
BITMAP
03F800
0BFE00
1F5F40
180600
000000
BD07E0
BD07E0
BD07E0
BD07E0
BD07E0
BD07E0
BD0BE0
BE1FE0
7FFBE0
1FD3E0
ENDCHAR
STARTCHAR udieresis
ENCODING 252
SWIDTH 600 0
DWIDTH 12 0
BBX 10 15 1 0
BITMAP
1E0B40
2F5F80
1E0F40
000000
000000
BD07E0
BD07E0
BD07E0
BD07E0
BD07E0
BD07E0
BD0BE0
BE1FE0
7FFBE0
1FD3E0
ENDCHAR
STARTCHAR yacute
ENCODING 253
SWIDTH 600 0
DWIDTH 12 0
BBX 11 20 1 -4
BITMAP
000900
002F40
007F00
01F800
006000
000000
F802F4
BC03F0
7E07D0
2F0BC0
1F4F80
0F9F40
07DF00
03FE00
01FC00
00F800
01F400
07F000
7FD000
7E4000
ENDCHAR
STARTCHAR thorn
ENCODING 254
SWIDTH 600 0
DWIDTH 12 0
BBX 10 18 1 -4
BITMAP
BD0000
BD0000
BD0000
BD0000
BDBE40
BFFFC0
BF4BE0
BD03F0
BD03F0
BD03F0
BD07F0
BE4BD0
BFFF80
BDBE00
BD0000
BD0000
BD0000
BD0000
ENDCHAR
STARTCHAR ydieresis
ENCODING 255
SWIDTH 600 0
DWIDTH 12 0
BBX 11 19 1 -4
BITMAP
1F0B40
2F5FC0
1F0B40
000000
000000
F802F4
BC03F0
7E07D0
2F0BC0
1F4F80
0F9F40
07DF00
03FE00
01FC00
00F800
01F400
07F000
7FD000
7E4000
ENDCHAR
STARTCHAR Amacron
ENCODING 256
SWIDTH 600 0
DWIDTH 12 0
BBX 12 16 0 0
BITMAP
03FFC0
03FFC0
000000
00FF00
01FF40
02FF80
03EBC0
07DBC0
07C7D0
0BC3E0
0F82F0
1FFFF4
2FFFF8
3F00FC
7E00BD
BD007E
ENDCHAR
STARTCHAR amacron
ENCODING 257
SWIDTH 600 0
DWIDTH 12 0
BBX 10 14 1 0
BITMAP
0BFF40
0BFF40
000000
000000
1AFE00
7FFF80
291FD0
0007E0
06BFE0
3FFFE0
BE47E0
BD1BE0
7FFFE0
1FE2E0
ENDCHAR
STARTCHAR Abreve
ENCODING 258
SWIDTH 600 0
DWIDTH 12 0
BBX 12 17 0 0
BITMAP
0382C0
03FFC0
00BE00
000000
00FF00
01FF40
02FF80
03EBC0
07DBC0
07C7D0
0BC3E0
0F82F0
1FFFF4
2FFFF8
3F00FC
7E00BD
BD007E
ENDCHAR
STARTCHAR abreve
ENCODING 259
SWIDTH 600 0
DWIDTH 12 0
BBX 10 15 1 0
BITMAP
010100
0F4780
0BFF40
02FD00
000000
1AFE00
7FFF80
291FD0
0007E0
06BFE0
3FFFE0
BE47E0
BD1BE0
7FFFE0
1FE2E0
ENDCHAR
STARTCHAR Aogonek
ENCODING 260
SWIDTH 600 0
DWIDTH 12 0
BBX 12 18 0 -5
BITMAP
00FF00
01FF40
02FF80
03EBC0
07DBC0
07D7D0
0BC3E0
0F82F0
1FFFF4
2FFFF8
3F00FC
7E00BD
BD007E
000078
0000B0
0000F0
0000FF
00007E
ENDCHAR
STARTCHAR aogonek
ENCODING 261
SWIDTH 600 0
DWIDTH 12 0
BBX 10 15 1 -5
BITMAP
1AFE00
7FFF80
291FD0
0007E0
06BFE0
3FFFE0
BE47E0
BD1BE0
7FFFE0
1FE2E0
000780
000E00
001E00
001FF0
000BE0
ENDCHAR
STARTCHAR Cacute
ENCODING 262
SWIDTH 600 0
DWIDTH 12 0
BBX 10 18 1 0
BITMAP
000600
002F80
00BE00
006400
000000
01BF80
0BFFF0
2F8180
7E0000
BD0000
FD0000
FC0000
FD0000
BD0000
7F0000
2F81D0
0BFFF0
01BF80
ENDCHAR
STARTCHAR cacute
ENCODING 263
SWIDTH 600 0
DWIDTH 12 0
BBX 10 16 1 0
BITMAP
000200
000F80
002F80
007D00
002400
000000
01BF80
1FFFD0
3F8180
7E0000
BD0000
BD0000
7E0000
3F8180
1FFFE0
02FE80
ENDCHAR
STARTCHAR Ccircumflex
ENCODING 264
SWIDTH 600 0
DWIDTH 12 0
BBX 10 17 1 0
BITMAP
00FF00
02EB80
028180
000000
01BF80
0BFFF0
2F8180
7E0000
BD0000
FD0000
FC0000
FD0000
BD0000
7F0000
2F81D0
0BFFF0
01BF80
ENDCHAR
STARTCHAR ccircumflex
ENCODING 265
SWIDTH 600 0
DWIDTH 12 0
BBX 10 15 1 0
BITMAP
00FE00
02FF40
0BD7D0
060180
000000
01BF80
1FFFD0
3F8180
7E0000
BD0000
BD0000
7E0000
3F8180
1FFFE0
02FE80
ENDCHAR
STARTCHAR Cdotaccent
ENCODING 266
SWIDTH 600 0
DWIDTH 12 0
BBX 10 17 1 0
BITMAP
007D00
00BE00
007D00
000000
01BF80
0BFFF0
2F8180
7E0000
BD0000
FD0000
FC0000
FD0000
BD0000
7F0000
2F81D0
0BFFF0
01BF80
ENDCHAR
STARTCHAR cdotaccent
ENCODING 267
SWIDTH 600 0
DWIDTH 12 0
BBX 10 15 1 0
BITMAP
007D00
00FE00
00FE00
007D00
000000
01BF80
1FFFD0
3F8180
7E0000
BD0000
BD0000
7E0000
3F8180
1FFFE0
02FE80
ENDCHAR
STARTCHAR Ccaron
ENCODING 268
SWIDTH 600 0
DWIDTH 12 0
BBX 10 17 1 0
BITMAP
028180
02EBC0
00FF00
000000
01BF80
0BFFF0
2F8180
7E0000
BD0000
FD0000
FC0000
FD0000
BD0000
7F0000
2F81D0
0BFFF0
01BF80
ENDCHAR
STARTCHAR ccaron
ENCODING 269
SWIDTH 600 0
DWIDTH 12 0
BBX 10 15 1 0
BITMAP
060180
0BD7D0
02FF40
00FE00
000000
01BF80
1FFFD0
3F8180
7E0000
BD0000
BD0000
7E0000
3F8180
1FFFE0
02FE80
ENDCHAR
STARTCHAR Dcaron
ENCODING 270
SWIDTH 600 0
DWIDTH 12 0
BBX 11 17 1 0
BITMAP
090600
0BAE00
03FC00
000000
BFF900
BFFF40
BD1FD0
BD07E0
BD03F0
BD02F4
BD02F4
BD02F4
BD03F0
BD07E0
BD1FD0
BFFF40
BFF900
ENDCHAR
STARTCHAR dcaron
ENCODING 271
SWIDTH 600 0
DWIDTH 12 0
BBX 13 16 0 0
BITMAP
00000F80
00000F80
0007DF80
0007DF40
0007DB40
0007D000
06EBD000
1FFFD000
2F4FD000
3E07D000
7E07D000
7E07D000
3E07D000
3F4FD000
1FFFD000
07E3D000
ENDCHAR
STARTCHAR Dcroat
ENCODING 272
SWIDTH 600 0
DWIDTH 12 0
BBX 12 13 0 0
BITMAP
2FFE40
2FFFD0
2F47F4
2F41F8
2F40FC
FFF8BD
FFF8BD
2F40BD
2F40FC
2F41F8
2F47F4
2FFFD0
2FFE40
ENDCHAR
STARTCHAR dcroat
ENCODING 273
SWIDTH 600 0
DWIDTH 12 0
BBX 11 14 1 0
BITMAP
0007E0
02FFFC
02FFF8
0007E0
0BE7E0
2FFFE0
7E0BE0
FD07E0
FC07E0
FC07E0
FC07E0
BE1FE0
3FFFE0
0BE3E0
ENDCHAR
STARTCHAR Emacron
ENCODING 274
SWIDTH 600 0
DWIDTH 12 0
BBX 9 16 2 0
BITMAP
2FFD00
2FFD00
000000
FFFF40
FFFF40
F80000
F80000
F80000
F80000
FFFE00
FFFE00
F80000
F80000
F80000
FFFF80
FFFF80
ENDCHAR
STARTCHAR emacron
ENCODING 275
SWIDTH 600 0
DWIDTH 12 0
BBX 10 14 1 0
BITMAP
0BFF40
0BFF40
000000
000000
06FE00
1FFF80
7F47D0
BD02E0
FFFFF0
FFFFF0
BD0000
7F4140
1FFFD0
06FE40
ENDCHAR
STARTCHAR Ebreve
ENCODING 276
SWIDTH 600 0
DWIDTH 12 0
BBX 9 17 2 0
BITMAP
2D1D00
1FFD00
07F400
000000
FFFF40
FFFF40
F80000
F80000
F80000
F80000
FFFE00
FFFE00
F80000
F80000
F80000
FFFF80
FFFF80
ENDCHAR
STARTCHAR ebreve
ENCODING 277
SWIDTH 600 0
DWIDTH 12 0
BBX 10 15 1 0
BITMAP
000100
0F0B80
0BFF40
02F900
000000
06FE00
1FFF80
7F47D0
BD02E0
FFFFF0
FFFFF0
BD0000
7F4140
1FFFD0
06FE40
ENDCHAR
STARTCHAR Edotaccent
ENCODING 278
SWIDTH 600 0
DWIDTH 12 0
BBX 9 17 2 0
BITMAP
02E000
07F400
02E000
000000
FFFF40
FFFF40
F80000
F80000
F80000
F80000
FFFE00
FFFE00
F80000
F80000
F80000
FFFF80
FFFF80
ENDCHAR
STARTCHAR edotaccent
ENCODING 279
SWIDTH 600 0
DWIDTH 12 0
BBX 10 15 1 0
BITMAP
00B400
02FC00
02FC00
00B800
000000
06FE00
1FFF80
7F47D0
BD02E0
FFFFF0
FFFFF0
BD0000
7F4140
1FFFD0
06FE40
ENDCHAR
STARTCHAR Eogonek
ENCODING 280
SWIDTH 600 0
DWIDTH 12 0
BBX 9 18 2 -5
BITMAP
FFFF40
FFFF40
F80000
F80000
F80000
F80000
FFFE00
FFFE00
F80000
F80000
F80000
FFFF80
FFFF80
001E00
003C00
007C00
007F80
002F80
ENDCHAR
STARTCHAR eogonek
ENCODING 281
SWIDTH 600 0
DWIDTH 12 0
BBX 10 15 1 -5
BITMAP
06FE00
1FFF80
7F47D0
BD02E0
FFFFF0
FFFFF0
BD0000
7F4140
1FFFD0
06FFD0
001E00
002C00
003D00
003FD0
001F90
ENDCHAR
STARTCHAR Ecaron
ENCODING 282
SWIDTH 600 0
DWIDTH 12 0
BBX 9 17 2 0
BITMAP
181900
1F7D00
0BF400
000000
FFFF40
FFFF40
F80000
F80000
F80000
F80000
FFFE00
FFFE00
F80000
F80000
F80000
FFFF80
FFFF80
ENDCHAR
STARTCHAR ecaron
ENCODING 283
SWIDTH 600 0
DWIDTH 12 0
BBX 10 15 1 0
BITMAP
090240
1F9F80
07FE00
02FC00
000000
06FE00
1FFF80
7F47D0
BD02E0
FFFFF0
FFFFF0
BD0000
7F4140
1FFFD0
06FE40
ENDCHAR
STARTCHAR Gcircumflex
ENCODING 284
SWIDTH 600 0
DWIDTH 12 0
BBX 10 17 1 0
BITMAP
01FE00
07DF40
064280
000000
02BE40
1FFFD0
3F8280
BE0000
FD0000
FC0000
FC2FF0
FC2FF0
FD02F0
BE02F0
3F42F0
1FFFE0
02FE40
ENDCHAR
STARTCHAR gcircumflex
ENCODING 285
SWIDTH 600 0
DWIDTH 12 0
BBX 11 19 1 -4
BITMAP
02FC00
0BFE00
1F5F40
090240
000000
06FFF4
2FFFF4
7E1F80
BD0F80
7E5F80
2FFF00
2EA800
7C0000
7FFF90
2FFFF4
B802F4
F906F4
BFFFD0
1BFA40
ENDCHAR
STARTCHAR Gbreve
ENCODING 286
SWIDTH 600 0
DWIDTH 12 0
BBX 10 17 1 0
BITMAP
074780
07FF40
01FE00
000000
02BE40
1FFFD0
3F8280
BE0000
FD0000
FC0000
FC2FF0
FC2FF0
FD02F0
BE02F0
3F42F0
1FFFE0
02FE40
ENDCHAR
STARTCHAR gbreve
ENCODING 287
SWIDTH 600 0
DWIDTH 12 0
BBX 11 18 1 -4
BITMAP
1E0B40
0FFF00
02F900
000000
06FFF4
2FFFF4
7E1F80
BD0F80
7E5F80
2FFF00
2EA800
7C0000
7FFF90
2FFFF4
B802F4
F906F4
BFFFD0
1BFA40
ENDCHAR
STARTCHAR Gdotaccent
ENCODING 288
SWIDTH 600 0
DWIDTH 12 0
BBX 10 17 1 0
BITMAP
00B800
00FD00
00B800
000000
02BE40
1FFFD0
3F8280
BE0000
FD0000
FC0000
FC2FF0
FC2FF0
FD02F0
BE02F0
3F42F0
1FFFE0
02FE40
ENDCHAR
STARTCHAR gdotaccent
ENCODING 289
SWIDTH 600 0
DWIDTH 12 0
BBX 11 19 1 -4
BITMAP
01F400
02FC00
02FC00
01F400
000000
06FFF4
2FFFF4
7E1F80
BD0F80
7E5F80
2FFF00
2EA800
7C0000
7FFF90
2FFFF4
B802F4
F906F4
BFFFD0
1BFA40
ENDCHAR
STARTCHAR uni0122
ENCODING 290
SWIDTH 600 0
DWIDTH 12 0
BBX 10 18 1 -5
BITMAP
02BE40
1FFFD0
3F8280
BE0000
FD0000
FC0000
FC2FF0
FC2FF0
FD02F0
BE02F0
3F42F0
1FFFE0
02FE40
000000
00B800
007D00
02FD00
02E400
ENDCHAR
STARTCHAR uni0123
ENCODING 291
SWIDTH 600 0
DWIDTH 12 0
BBX 11 20 1 -4
BITMAP
006D00
01FD00
02E000
02E000
00B400
000000
06FFF4
2FFFF4
7E1F80
BD0F80
7E5F80
2FFF00
2EA800
7C0000
7FFF90
2FFFF4
B802F4
F906F4
BFFFD0
1BFA40
ENDCHAR
STARTCHAR Hcircumflex
ENCODING 292
SWIDTH 600 0
DWIDTH 12 0
BBX 10 17 1 0
BITMAP
03FC00
0BAE00
090600
000000
BD07E0
BD07E0
BD07E0
BD07E0
BD07E0
BD07E0
BFFFE0
BFFFE0
BD07E0
BD07E0
BD07E0
BD07E0
BD07E0
ENDCHAR
STARTCHAR hcircumflex
ENCODING 293
SWIDTH 600 0
DWIDTH 12 0
BBX 11 18 0 0
BITMAP
3FC000
FAE000
90A000
000000
2F4000
2F4000
2F4000
2F4000
2F5FD0
2FFFF4
2FD2F8
2F41F8
2F40F8
2F40F8
2F40F8
2F40F8
2F40F8
2F40F8
ENDCHAR
STARTCHAR Hbar
ENCODING 294
SWIDTH 600 0
DWIDTH 12 0
BBX 12 13 0 0
BITMAP
2F41F8
2F41F8
FFFFFF
FFFFFF
2F41F8
2F41F8
2FFFF8
2FFFF8
2F41F8
2F41F8
2F41F8
2F41F8
2F41F8
ENDCHAR
STARTCHAR hbar
ENCODING 295
SWIDTH 600 0
DWIDTH 12 0
BBX 11 14 0 0
BITMAP
2F4000
BFFF00
FFFF00
2F4000
2F5FD0
2FBFF4
2FD2F8
2F41F8
2F40F8
2F40F8
2F40F8
2F40F8
2F40F8
2F40F8
ENDCHAR
STARTCHAR Itilde
ENCODING 296
SWIDTH 600 0
DWIDTH 12 0
BBX 10 17 1 0
BITMAP
0B9280
2FFF80
286E00
000000
BFFFE0
BFFFE0
01F400
01F400
01F400
01F400
01F400
01F400
01F400
01F400
01F400
BFFFE0
BFFFE0
ENDCHAR
STARTCHAR itilde
ENCODING 297
SWIDTH 600 0
DWIDTH 12 0
BBX 10 15 1 0
BITMAP
004000
07F5E0
0BFFD0
0A1B80
000000
7FFE00
7FFE00
007E00
007E00
007E00
007E00
007E00
007E00
007E00
007E00
ENDCHAR
STARTCHAR Imacron
ENCODING 298
SWIDTH 600 0
DWIDTH 12 0
BBX 10 16 1 0
BITMAP
0FFF00
0FFF00
000000
BFFFE0
BFFFE0
01F400
01F400
01F400
01F400
01F400
01F400
01F400
01F400
01F400
BFFFE0
BFFFE0
ENDCHAR
STARTCHAR imacron
ENCODING 299
SWIDTH 600 0
DWIDTH 12 0
BBX 9 14 1 0
BITMAP
03FFC0
03FFC0
000000
000000
7FFE00
7FFE00
007E00
007E00
007E00
007E00
007E00
007E00
007E00
007E00
ENDCHAR
STARTCHAR Ibreve
ENCODING 300
SWIDTH 600 0
DWIDTH 12 0
BBX 10 17 1 0
BITMAP
0E0B00
0FFF00
02F800
000000
BFFFE0
BFFFE0
01F400
01F400
01F400
01F400
01F400
01F400
01F400
01F400
01F400
BFFFE0
BFFFE0
ENDCHAR
STARTCHAR ibreve
ENCODING 301
SWIDTH 600 0
DWIDTH 12 0
BBX 10 14 1 0
BITMAP
0782D0
03FF80
01BE00
000000
7FFE00
7FFE00
007E00
007E00
007E00
007E00
007E00
007E00
007E00
007E00
ENDCHAR
STARTCHAR Iogonek
ENCODING 302
SWIDTH 600 0
DWIDTH 12 0
BBX 10 18 1 -5
BITMAP
BFFFE0
BFFFE0
01F400
01F400
01F400
01F400
01F400
01F400
01F400
01F400
01F400
BFFFE0
BFFFE0
01E000
02C000
03C000
03FC00
01F800
ENDCHAR
STARTCHAR iogonek
ENCODING 303
SWIDTH 600 0
DWIDTH 12 0
BBX 8 20 1 -5
BITMAP
007D
00FE
00FE
007D
0000
7FFE
7FFE
007E
007E
007E
007E
007E
007E
007E
007E
0078
00E0
01E0
01FF
007E
ENDCHAR
STARTCHAR Idotaccent
ENCODING 304
SWIDTH 600 0
DWIDTH 12 0
BBX 10 17 1 0
BITMAP
01F400
02F800
01F400
000000
BFFFE0
BFFFE0
01F400
01F400
01F400
01F400
01F400
01F400
01F400
01F400
01F400
BFFFE0
BFFFE0
ENDCHAR
STARTCHAR dotlessi
ENCODING 305
SWIDTH 600 0
DWIDTH 12 0
BBX 8 10 1 0
BITMAP
7FFE
7FFE
007E
007E
007E
007E
007E
007E
007E
007E
ENDCHAR
STARTCHAR IJ
ENCODING 306
SWIDTH 600 0
DWIDTH 12 0
BBX 10 16 1 -3
BITMAP
BD07E0
BD07E0
BD07E0
BD07E0
BD07E0
BD07E0
BD07E0
BD07E0
BD07E0
BD07E0
BD07E0
BD07E0
BD07D0
000BD0
00BFC0
00BE00
ENDCHAR
STARTCHAR ij
ENCODING 307
SWIDTH 600 0
DWIDTH 12 0
BBX 10 18 1 -4
BITMAP
7D03D0
BE07F0
7D03D0
000000
7D07E0
7D07E0
7D07E0
7D07E0
7D07E0
7D07E0
7D07E0
7D07E0
7D07E0
7D07E0
0007E0
000BD0
007FC0
007E40
ENDCHAR
STARTCHAR Jcircumflex
ENCODING 308
SWIDTH 600 0
DWIDTH 12 0
BBX 10 17 1 0
BITMAP
01FE00
07DF40
064240
000000
2FFFD0
2FFFD0
000BD0
000BD0
000BD0
000BD0
000BD0
000BD0
000BD0
000BC0
391FC0
7FFF40
1BF900
ENDCHAR
STARTCHAR jcircumflex
ENCODING 309
SWIDTH 600 0
DWIDTH 12 0
BBX 10 19 1 -4
BITMAP
00FE00
02FF80
07D7D0
060180
000000
7FFE00
7FFE00
007E00
007E00
007E00
007E00
007E00
007E00
007E00
007D00
00BD00
50FC00
BFF800
BF9000
ENDCHAR
STARTCHAR uni0136
ENCODING 310
SWIDTH 600 0
DWIDTH 12 0
BBX 11 18 1 -5
BITMAP
BD03F4
BD0BD0
BD2F80
BD7E00
BDFC00
BFF800
BFFD00
BFFF00
BF2F40
BD0FC0
BD0BE0
BD03F0
BD02F8
000000
00B800
007D00
02FD00
02E400
ENDCHAR
STARTCHAR uni0137
ENCODING 311
SWIDTH 600 0
DWIDTH 12 0
BBX 11 19 1 -5
BITMAP
7D0000
7D0000
7D0000
7D0000
7D07F0
7D1FC0
7D3F40
7EFD00
7FFC00
7FFE00
7F6F40
7E0FC0
7D07E0
7D02F4
000000
00B800
007D00
02FD00
02E400
ENDCHAR
STARTCHAR kgreenlandic
ENCODING 312
SWIDTH 600 0
DWIDTH 12 0
BBX 11 10 1 0
BITMAP
7D07F0
7D1FC0
7D7F40
7EFD00
7FFC00
7FFE00
7F6F40
7E0FC0
7D07E0
7D02F4
ENDCHAR
STARTCHAR Lacute
ENCODING 313
SWIDTH 600 0
DWIDTH 12 0
BBX 9 18 2 0
BITMAP
060000
2F8000
BE0000
640000
000000
FC0000
FC0000
FC0000
FC0000
FC0000
FC0000
FC0000
FC0000
FC0000
FC0000
FC0000
FFFFC0
FFFFC0
ENDCHAR
STARTCHAR lacute
ENCODING 314
SWIDTH 600 0
DWIDTH 12 0
BBX 10 19 1 0
BITMAP
002400
01FC00
07F400
028000
000000
FFF000
FFF000
03F000
03F000
03F000
03F000
03F000
03F000
03F000
03F000
02F000
02F800
00FFE0
006FE0
ENDCHAR
STARTCHAR uni013B
ENCODING 315
SWIDTH 600 0
DWIDTH 12 0
BBX 9 18 2 -5
BITMAP
FC0000
FC0000
FC0000
FC0000
FC0000
FC0000
FC0000
FC0000
FC0000
FC0000
FC0000
FFFFC0
FFFFC0
000000
01E000
00B800
0BF400
079000
ENDCHAR
STARTCHAR uni013C
ENCODING 316
SWIDTH 600 0
DWIDTH 12 0
BBX 10 19 1 -5
BITMAP
FFF000
FFF000
03F000
03F000
03F000
03F000
03F000
03F000
03F000
03F000
02F000
02F800
00FFE0
006FE0
000000
002900
001F40
00FF00
00B900
ENDCHAR
STARTCHAR Lcaron
ENCODING 317
SWIDTH 600 0
DWIDTH 12 0
BBX 9 15 2 0
BITMAP
002F00
002F00
FC2E00
FC2E00
FC2D00
FC0000
FC0000
FC0000
FC0000
FC0000
FC0000
FC0000
FC0000
FFFFC0
FFFFC0
ENDCHAR
STARTCHAR lcaron
ENCODING 318
SWIDTH 600 0
DWIDTH 12 0
BBX 10 16 1 0
BITMAP
0003E0
0002E0
FFF2E0
FFF2D0
03F2D0
03F000
03F000
03F000
03F000
03F000
03F000
03F000
02F000
02F800
00FFE0
006FE0
ENDCHAR
STARTCHAR Ldot
ENCODING 319
SWIDTH 600 0
DWIDTH 12 0
BBX 10 13 2 0
BITMAP
FC0000
FC0000
FC0000
FC0000
FC0B80
FC1FD0
FC1FD0
FC0B80
FC0000
FC0000
FC0000
FFFFC0
FFFFC0
ENDCHAR
STARTCHAR ldot
ENCODING 320
SWIDTH 600 0
DWIDTH 12 0
BBX 13 14 0 0
BITMAP
FFF00000
FFF00000
03F00000
03F00000
03F00000
03F01F40
03F02FC0
03F02FC0
03F01F40
03F00000
02F00000
02F80000
00FFE000
006FE000
ENDCHAR
STARTCHAR Lslash
ENCODING 321
SWIDTH 600 0
DWIDTH 12 0
BBX 11 13 0 0
BITMAP
0FC000
0FC000
0FC000
0FC040
0FC7D0
0FEFD0
0FFD00
BFE000
BFC000
5FC000
0FC000
0FFFFC
0FFFFC
ENDCHAR
STARTCHAR lslash
ENCODING 322
SWIDTH 600 0
DWIDTH 12 0
BBX 10 14 1 0
BITMAP
FFF000
FFF000
03F000
03F040
03FBC0
03FF90
1FFD00
7FF000
3BF000
03F000
02F000
02F800
00FFE0
006FE0
ENDCHAR
STARTCHAR Nacute
ENCODING 323
SWIDTH 600 0
DWIDTH 12 0
BBX 10 18 1 0
BITMAP
001800
007E00
02F900
009000
000000
BE03E0
BF03E0
BF43E0
BF83E0
BBD3E0
BDE3E0
BCF3E0
BCB7E0
BC7EE0
BC2FE0
BC1FE0
BC0FE0
BC0BE0
ENDCHAR
STARTCHAR nacute
ENCODING 324
SWIDTH 600 0
DWIDTH 12 0
BBX 10 16 1 0
BITMAP
000900
001F40
007F40
00F800
006000
000000
BC7F40
BEFFD0
BF4BE0
BD07E0
BD03E0
BD03E0
BD03E0
BD03E0
BD03E0
BD03E0
ENDCHAR
STARTCHAR uni0145
ENCODING 325
SWIDTH 600 0
DWIDTH 12 0
BBX 10 18 1 -5
BITMAP
BE03E0
BF03E0
BF43E0
BF83E0
BBD3E0
BDE3E0
BCF3E0
BCB7E0
BC7EE0
BC2FE0
BC1FE0
BC0FE0
BC0BE0
000000
01E400
00B800
07F800
03A000
ENDCHAR
STARTCHAR uni0146
ENCODING 326
SWIDTH 600 0
DWIDTH 12 0
BBX 10 15 1 -5
BITMAP
BC7F40
BEFFD0
BF4BE0
BD07E0
BD03E0
BD03E0
BD03E0
BD03E0
BD03E0
BD03E0
000000
00E400
007C00
03FC00
03E000
ENDCHAR
STARTCHAR Ncaron
ENCODING 327
SWIDTH 600 0
DWIDTH 12 0
BBX 10 17 1 0
BITMAP
0A0640
0BAF00
02FD00
000000
BE03E0
BF03E0
BF43E0
BF83E0
BBD3E0
BDE3E0
BCF3E0
BCB7E0
BC7EE0
BC2FE0
BC1FE0
BC0FE0
BC0BE0
ENDCHAR
STARTCHAR ncaron
ENCODING 328
SWIDTH 600 0
DWIDTH 12 0
BBX 10 15 1 0
BITMAP
090240
0F9F80
07FF00
02FD00
000000
BC7F40
BEFFD0
BF4BE0
BD07E0
BD03E0
BD03E0
BD03E0
BD03E0
BD03E0
BD03E0
ENDCHAR
STARTCHAR napostrophe
ENCODING 329
SWIDTH 600 0
DWIDTH 12 0
BBX 14 14 -1 0
BITMAP
7D000000
BF000000
FF400000
7F400000
0B6E2F80
1E2FFFD0
7D2FC7E0
B42F43E0
002F43F0
002F43F0
002F43F0
002F43F0
002F43F0
002F43F0
ENDCHAR
STARTCHAR Eng
ENCODING 330
SWIDTH 600 0
DWIDTH 12 0
BBX 10 13 1 0
BITMAP
BDBE00
BFFFC0
BF4BD0
BD07E0
BD03F0
BD03F0
BD03F0
BD03F0
BD03F0
BD03F0
BD07E0
BD3FC0
BD7E40
ENDCHAR
STARTCHAR eng
ENCODING 331
SWIDTH 600 0
DWIDTH 12 0
BBX 10 14 1 -4
BITMAP
BC7F40
BEFFD0
BF4BE0
BD07E0
BD03E0
BD03E0
BD03E0
BD03E0
BD03E0
BD03E0
0003E0
0007E0
003FD0
007F40
ENDCHAR
STARTCHAR Omacron
ENCODING 332
SWIDTH 600 0
DWIDTH 12 0
BBX 12 16 0 0
BITMAP
03FFC0
03FFC0
000000
01BE40
0BFFE0
1F82F4
2F41F8
3F00FC
7E00BD
7E00BD
7E00BD
3F00FC
2F41F8
1F82F4
0BFFE0
01BE40
ENDCHAR
STARTCHAR omacron
ENCODING 333
SWIDTH 600 0
DWIDTH 12 0
BBX 10 14 1 0
BITMAP
0FFF00
0FFF00
000000
000000
06F900
2FFF80
7E0BD0
FD07F0
FC03F0
FC03F0
FD07F0
7E0BD0
2FFF80
06F900
ENDCHAR
STARTCHAR Obreve
ENCODING 334
SWIDTH 600 0
DWIDTH 12 0
BBX 12 17 0 0
BITMAP
0382C0
03FFC0
00BE00
000000
01BE40
0BFFE0
1F82F4
2F41F8
3F00FC
7E00BD
7E00BD
7E00BD
3F00FC
2F41F8
1F82F4
0BFFE0
01BE40
ENDCHAR
STARTCHAR obreve
ENCODING 335
SWIDTH 600 0
DWIDTH 12 0
BBX 10 14 1 0
BITMAP
1E0B40
0FFF00
02F800
000000
06F900
2FFF80
7E0BD0
FD07F0
FC03F0
FC03F0
FD07F0
7E0BD0
2FFF80
06F900
ENDCHAR
STARTCHAR Ohungarumlaut
ENCODING 336
SWIDTH 600 0
DWIDTH 12 0
BBX 12 18 0 0
BITMAP
002460
00B8F4
01F2E0
018280
000000
01BE40
0BFFE0
1F82F4
2F41F8
3F00FC
7E00BD
7E00BD
7E00BD
3F00FC
2F41F8
1F82F4
0BFFE0
01BE40
ENDCHAR
STARTCHAR ohungarumlaut
ENCODING 337
SWIDTH 600 0
DWIDTH 12 0
BBX 10 15 1 0
BITMAP
009290
02E3D0
07CB80
064A00
000000
06F900
2FFF80
7E0BD0
FD07F0
FC03F0
FC03F0
FD07F0
7E0BD0
2FFF80
06F900
ENDCHAR
STARTCHAR OE
ENCODING 338
SWIDTH 600 0
DWIDTH 12 0
BBX 12 13 0 0
BITMAP
02BFFE
0FFFFE
2F4F80
3E0F80
7E0F80
BD0F80
BD0FFC
BD0FFC
7E0F80
3E0F80
2F4F80
0FFFFF
02FFFF
ENDCHAR
STARTCHAR oe
ENCODING 339
SWIDTH 600 0
DWIDTH 12 0
BBX 12 10 0 0
BITMAP
0BD2F4
2FFBFC
7D7E2D
BC3D1E
BC2FFE
BC2FFE
BC3D00
7D7E04
2FFBFC
0BD2F9
ENDCHAR
STARTCHAR Racute
ENCODING 340
SWIDTH 600 0
DWIDTH 12 0
BBX 11 18 1 0
BITMAP
001800
00BE00
02F800
019000
000000
BFFE40
BFFFD0
BD07E0
BD03F0
BD03F0
BD0BE0
BFFFD0
BFFF00
BD3F40
BD1F80
BD0FD0
BD07F0
BD03F4
ENDCHAR
STARTCHAR racute
ENCODING 341
SWIDTH 600 0
DWIDTH 12 0
BBX 9 16 2 0
BITMAP
000800
002F00
00BE00
01F800
009000
000000
B86F80
BDFF80
BF9000
BE0000
BD0000
BD0000
BD0000
BD0000
BD0000
BD0000
ENDCHAR
STARTCHAR uni0156
ENCODING 342
SWIDTH 600 0
DWIDTH 12 0
BBX 11 18 1 -5
BITMAP
BFFE40
BFFFD0
BD07E0
BD03F0
BD03F0
BD0BE0
BFFFD0
BFFF00
BD3F40
BD1F80
BD0FD0
BD07F0
BD03F4
000000
00A400
007D00
02FC00
02E400
ENDCHAR
STARTCHAR uni0157
ENCODING 343
SWIDTH 600 0
DWIDTH 12 0
BBX 10 15 1 -5
BITMAP
2E1BE0
2F7FE0
2FE400
2F8000
2F4000
2F4000
2F4000
2F4000
2F4000
2F4000
000000
1E4000
0B8000
7F8000
7A0000
ENDCHAR
STARTCHAR Rcaron
ENCODING 344
SWIDTH 600 0
DWIDTH 12 0
BBX 11 17 1 0
BITMAP
0A0600
0BAE00
03FC00
000000
BFFE40
BFFFD0
BD07E0
BD03F0
BD03F0
BD0BE0
BFFFD0
BFFF00
BD3F40
BD1F80
BD0FD0
BD07F0
BD03F4
ENDCHAR
STARTCHAR rcaron
ENCODING 345
SWIDTH 600 0
DWIDTH 12 0
BBX 9 15 2 0
BITMAP
090600
1F5F40
0BFE00
03F800
000000
B86F80
BDFF80
BF9000
BE0000
BD0000
BD0000
BD0000
BD0000
BD0000
BD0000
ENDCHAR
STARTCHAR Sacute
ENCODING 346
SWIDTH 600 0
DWIDTH 12 0
BBX 10 18 1 0
BITMAP
000900
007F00
01FD00
009000
000000
06FE40
2FFFD0
7E0680
7E0000
7F4000
3FF800
0BFF80
01BFE0
000BF0
0003F0
3D07E0
BFFFC0
1BFE00
ENDCHAR
STARTCHAR sacute
ENCODING 347
SWIDTH 600 0
DWIDTH 12 0
BBX 10 16 1 0
BITMAP
000900
002F40
007F40
00F800
006000
000000
06FE40
2FFFD0
7E0680
7F5000
2FFE40
06FFD0
001BE0
7907E0
BFFFD0
1BFE00
ENDCHAR
STARTCHAR Scircumflex
ENCODING 348
SWIDTH 600 0
DWIDTH 12 0
BBX 10 17 1 0
BITMAP
02FD00
07DF40
0A0640
000000
06FE40
2FFFD0
7E0680
7E0000
7F4000
3FF800
0BFF80
01BFE0
000BF0
0003F0
3D07E0
BFFFC0
1BFE00
ENDCHAR
STARTCHAR scircumflex
ENCODING 349
SWIDTH 600 0
DWIDTH 12 0
BBX 10 15 1 0
BITMAP
02FC00
07FE00
1F9F80
090240
000000
06FE40
2FFFD0
7E0680
7F5000
2FFE40
06FFD0
001BE0
7907E0
BFFFD0
1BFE00
ENDCHAR
STARTCHAR uni015E
ENCODING 350
SWIDTH 600 0
DWIDTH 12 0
BBX 10 18 1 -5
BITMAP
06FE40
2FFFD0
7E0680
7E0000
7F4000
3FF800
0BFF80
01BFE0
000BF0
0003F0
3D07E0
BFFFC0
1BFE00
00E000
01F400
007C00
007800
03E000
ENDCHAR
STARTCHAR uni015F
ENCODING 351
SWIDTH 600 0
DWIDTH 12 0
BBX 10 15 1 -5
BITMAP
06FE40
2FFFD0
7E0680
7F5000
2FFE40
06FFD0
001BE0
7907E0
BFFFD0
1BFE00
00B000
01F800
007C00
007C00
03E000
ENDCHAR
STARTCHAR Scaron
ENCODING 352
SWIDTH 600 0
DWIDTH 12 0
BBX 10 17 1 0
BITMAP
0A0640
07DF40
02FD00
000000
06FE40
2FFFD0
7E0680
7E0000
7F4000
3FF800
0BFF80
01BFE0
000BF0
0003F0
3D07E0
BFFFC0
1BFE00
ENDCHAR
STARTCHAR scaron
ENCODING 353
SWIDTH 600 0
DWIDTH 12 0
BBX 10 15 1 0
BITMAP
090240
1F9F80
07FE00
02FC00
000000
06FE40
2FFFD0
7E0680
7F5000
2FFE40
06FFD0
001BE0
7907E0
BFFFD0
1BFE00
ENDCHAR
STARTCHAR uni0162
ENCODING 354
SWIDTH 600 0
DWIDTH 12 0
BBX 12 18 0 -5
BITMAP
7FFFFD
7FFFFD
007D00
007D00
007D00
007D00
007D00
007D00
007D00
007D00
007D00
007D00
007D00
003800
007D00
002F00
002E00
00E800
ENDCHAR
STARTCHAR uni0163
ENCODING 355
SWIDTH 600 0
DWIDTH 12 0
BBX 10 18 1 -5
BITMAP
03D000
07D000
07D000
FFFFE0
FFFFE0
0BD000
0BD000
0BD000
0BD000
07E000
07F400
02FFE0
00BFE0
001D00
003E00
001F40
001F40
00B900
ENDCHAR
STARTCHAR Tcaron
ENCODING 356
SWIDTH 600 0
DWIDTH 12 0
BBX 12 17 0 0
BITMAP
024180
02EB80
00FF00
000000
7FFFFD
7FFFFD
007D00
007D00
007D00
007D00
007D00
007D00
007D00
007D00
007D00
007D00
007D00
ENDCHAR
STARTCHAR tcaron
ENCODING 357
SWIDTH 600 0
DWIDTH 12 0
BBX 10 16 1 0
BITMAP
0007C0
0007C0
0007C0
03D7C0
07D780
07D000
FFFFE0
FFFFE0
0BD000
0BD000
0BD000
0BD000
07E000
07F400
02FFE0
00BFE0
ENDCHAR
STARTCHAR Tbar
ENCODING 358
SWIDTH 600 0
DWIDTH 12 0
BBX 12 13 0 0
BITMAP
7FFFFD
7FFFFD
007D00
007D00
007D00
0FFFF0
0FFFF0
007D00
007D00
007D00
007D00
007D00
007D00
ENDCHAR
STARTCHAR tbar
ENCODING 359
SWIDTH 600 0
DWIDTH 12 0
BBX 10 13 1 0
BITMAP
03D000
07D000
07D000
FFFFE0
FFFFE0
0BD000
FFFFD0
FFFFD0
07D000
07E000
07F400
02FFE0
00BFE0
ENDCHAR
STARTCHAR Utilde
ENCODING 360
SWIDTH 600 0
DWIDTH 12 0
BBX 10 17 1 0
BITMAP
0B9280
2FFF80
286E00
000000
BD03E0
BD03E0
BD03E0
BD03E0
BD03E0
BD03E0
BD03E0
BD03E0
BD03E0
BD07E0
7E0BD0
2FFF80
06F900
ENDCHAR
STARTCHAR utilde
ENCODING 361
SWIDTH 600 0
DWIDTH 12 0
BBX 10 15 1 0
BITMAP
010000
1FD780
2FFF40
286E00
000000
BD07E0
BD07E0
BD07E0
BD07E0
BD07E0
BD07E0
BD0BE0
BE1FE0
7FFBE0
1FD3E0
ENDCHAR
STARTCHAR Umacron
ENCODING 362
SWIDTH 600 0
DWIDTH 12 0
BBX 10 16 1 0
BITMAP
0FFF00
0FFF00
000000
BD03E0
BD03E0
BD03E0
BD03E0
BD03E0
BD03E0
BD03E0
BD03E0
BD03E0
BD07E0
7E0BD0
2FFF80
06F900
ENDCHAR
STARTCHAR umacron
ENCODING 363
SWIDTH 600 0
DWIDTH 12 0
BBX 10 14 1 0
BITMAP
0FFF00
0FFF00
000000
000000
BD07E0
BD07E0
BD07E0
BD07E0
BD07E0
BD07E0
BD0BE0
BE1FE0
7FFBE0
1FD3E0
ENDCHAR
STARTCHAR Ubreve
ENCODING 364
SWIDTH 600 0
DWIDTH 12 0
BBX 10 17 1 0
BITMAP
0E0B00
0FFF00
02F800
000000
BD03E0
BD03E0
BD03E0
BD03E0
BD03E0
BD03E0
BD03E0
BD03E0
BD03E0
BD07E0
7E0BD0
2FFF80
06F900
ENDCHAR
STARTCHAR ubreve
ENCODING 365
SWIDTH 600 0
DWIDTH 12 0
BBX 10 14 1 0
BITMAP
1E0B40
0FFF00
06F800
000000
BD07E0
BD07E0
BD07E0
BD07E0
BD07E0
BD07E0
BD0BE0
BE1FE0
7FFBE0
1FD3E0
ENDCHAR
STARTCHAR Uring
ENCODING 366
SWIDTH 600 0
DWIDTH 12 0
BBX 10 18 1 0
BITMAP
01F400
075D00
075D00
01F400
000000
BD03E0
BD03E0
BD03E0
BD03E0
BD03E0
BD03E0
BD03E0
BD03E0
BD03E0
BD07E0
7E0BD0
2FFF80
06F900
ENDCHAR
STARTCHAR uring
ENCODING 367
SWIDTH 600 0
DWIDTH 12 0
BBX 10 15 1 0
BITMAP
02F800
0B5D00
0B5D00
02F800
000000
BD07E0
BD07E0
BD07E0
BD07E0
BD07E0
BD07E0
BD0BE0
BE1FE0
7FFBE0
1FD3E0
ENDCHAR
STARTCHAR Uhungarumlaut
ENCODING 368
SWIDTH 600 0
DWIDTH 12 0
BBX 10 18 1 0
BITMAP
009180
02E3D0
07CB80
060A00
000000
BD03E0
BD03E0
BD03E0
BD03E0
BD03E0
BD03E0
BD03E0
BD03E0
BD03E0
BD07E0
7E0BD0
2FFF80
06F900
ENDCHAR
STARTCHAR uhungarumlaut
ENCODING 369
SWIDTH 600 0
DWIDTH 12 0
BBX 10 15 1 0
BITMAP
019290
02E3D0
07CB40
074A00
000000
BD07E0
BD07E0
BD07E0
BD07E0
BD07E0
BD07E0
BD0BE0
BE1FE0
7FFBE0
1FD3E0
ENDCHAR
STARTCHAR Uogonek
ENCODING 370
SWIDTH 600 0
DWIDTH 12 0
BBX 10 18 1 -5
BITMAP
BD03E0
BD03E0
BD03E0
BD03E0
BD03E0
BD03E0
BD03E0
BD03E0
BD03E0
BD07E0
7E0BD0
2FFF80
07FD00
00F000
02D000
02D000
02FD00
01B900
ENDCHAR
STARTCHAR uogonek
ENCODING 371
SWIDTH 600 0
DWIDTH 12 0
BBX 10 15 1 -5
BITMAP
BD07E0
BD07E0
BD07E0
BD07E0
BD07E0
BD07E0
BD0BE0
BE1FE0
7FFBE0
1FD3D0
000740
001E00
002E00
001FE0
000BD0
ENDCHAR
STARTCHAR Wcircumflex
ENCODING 372
SWIDTH 600 0
DWIDTH 12 0
BBX 12 17 0 0
BITMAP
00FF00
02EB80
024180
000000
FD003F
BD003E
BD003E
7D283D
7D3D7D
7D7E7D
3EBE7C
3EBF7C
2EEBBC
2EE7B8
2FD7F8
1FC3F4
1FC3F4
ENDCHAR
STARTCHAR wcircumflex
ENCODING 373
SWIDTH 600 0
DWIDTH 12 0
BBX 12 15 0 0
BITMAP
00FF00
02FF80
07D7D0
024180
000000
FC003F
BC283E
BD7D3E
7D7E7D
7EBE7D
3EAB7C
3EEBBC
2FE7F8
2FD7F8
1FD3F4
ENDCHAR
STARTCHAR Ycircumflex
ENCODING 374
SWIDTH 600 0
DWIDTH 12 0
BBX 12 17 0 0
BITMAP
00FF00
02EB80
024180
000000
7E00BD
3F00FC
1F81F4
0FC3F0
07D7D0
03EBC0
02FF80
00FF00
00BE00
007D00
007D00
007D00
007D00
ENDCHAR
STARTCHAR ycircumflex
ENCODING 375
SWIDTH 600 0
DWIDTH 12 0
BBX 11 19 1 -4
BITMAP
02FC00
07FE00
1F5F80
090240
000000
F802F4
BC03F0
7E07D0
2F0BC0
1F4F80
0F9F40
07DF00
03FE00
01FC00
00F800
01F400
07F000
7FD000
7E4000
ENDCHAR
STARTCHAR Ydieresis
ENCODING 376
SWIDTH 600 0
DWIDTH 12 0
BBX 12 17 0 0
BITMAP
0782D0
0BD7E0
0782D0
000000
7E00BD
3F00FC
1F81F4
0FC3F0
07D7D0
03EBC0
02FF80
00FF00
00BE00
007D00
007D00
007D00
007D00
ENDCHAR
STARTCHAR Zacute
ENCODING 377
SWIDTH 600 0
DWIDTH 12 0
BBX 10 18 1 0
BITMAP
000900
007F00
01FD00
009000
000000
7FFFF0
7FFFE0
000FC0
002F40
007E00
00FD00
02F800
07F000
0FD000
1F8000
3F0000
BFFFF0
FFFFF0
ENDCHAR
STARTCHAR zacute
ENCODING 378
SWIDTH 600 0
DWIDTH 12 0
BBX 10 16 1 0
BITMAP
000600
001F80
003F40
00BD00
002000
000000
3FFFE0
3FFFD0
002F80
00BF00
01FD00
03F400
0FE000
2F8000
7FFFE0
BFFFE0
ENDCHAR
STARTCHAR Zdotaccent
ENCODING 379
SWIDTH 600 0
DWIDTH 12 0
BBX 10 17 1 0
BITMAP
00B800
01FC00
00B800
000000
7FFFF0
7FFFE0
000FC0
002F40
007E00
00FD00
02F800
07F000
0FD000
1F8000
3F0000
BFFFF0
FFFFF0
ENDCHAR
STARTCHAR zdotaccent
ENCODING 380
SWIDTH 600 0
DWIDTH 12 0
BBX 10 15 1 0
BITMAP
00B800
01FD00
01FD00
00B800
000000
3FFFE0
3FFFD0
002F80
00BF00
01FD00
03F400
0FE000
2F8000
7FFFE0
BFFFE0
ENDCHAR
STARTCHAR Zcaron
ENCODING 381
SWIDTH 600 0
DWIDTH 12 0
BBX 10 17 1 0
BITMAP
0A0640
07DF40
02FD00
000000
7FFFF0
7FFFE0
000FC0
002F40
007E00
00FD00
02F800
07F000
0FD000
1F8000
3F0000
BFFFF0
FFFFF0
ENDCHAR
STARTCHAR zcaron
ENCODING 382
SWIDTH 600 0
DWIDTH 12 0
BBX 10 15 1 0
BITMAP
060280
0B8BC0
03FF40
01FD00
000000
3FFFE0
3FFFD0
002F80
00BF00
01FD00
03F400
0FE000
2F8000
7FFFE0
BFFFE0
ENDCHAR
STARTCHAR longs
ENCODING 383
SWIDTH 600 0
DWIDTH 12 0
BBX 11 14 1 0
BITMAP
002FE4
00FFF4
02F810
02F400
7FF400
7FF400
02F400
02F400
02F400
02F400
02F400
02F400
02F400
02F400
ENDCHAR
STARTCHAR uni0180
ENCODING 384
SWIDTH 600 0
DWIDTH 12 0
BBX 11 14 0 0
BITMAP
2F4000
BFFF00
FFFF00
2F4000
2F6F90
2FFFF0
2FD2F8
2F40FC
2F40FC
2F40FC
2F41FC
2FD2F4
2FFFE0
2E2F80
ENDCHAR
STARTCHAR uni018A
ENCODING 394
SWIDTH 600 0
DWIDTH 12 0
BBX 12 13 0 0
BITMAP
06FE40
3FFFE0
BDF5F8
F5F4BD
F5F47D
B9F43E
7DF43E
15F43E
01F47D
01F4BD
01F5F8
01FFF0
01FF80
ENDCHAR
STARTCHAR uni018F
ENCODING 399
SWIDTH 600 0
DWIDTH 12 0
BBX 11 13 1 0
BITMAP
0BF900
1FFF80
091FD0
0007E0
0003F0
0002F0
FFFFF4
FFFFF0
FC03F0
BD03E0
7E0BD0
1FFF80
06F900
ENDCHAR
STARTCHAR uni0192
ENCODING 402
SWIDTH 600 0
DWIDTH 12 0
BBX 10 15 1 -2
BITMAP
001BE0
007FE0
00BD00
00F800
01F800
1FFF80
1FFF80
02F400
02F000
02F000
03F000
03E000
0BD000
BFC000
FE0000
ENDCHAR
STARTCHAR uni0193
ENCODING 403
SWIDTH 600 0
DWIDTH 12 0
BBX 11 16 1 0
BITMAP
0001BC
0003F8
0007D0
02BFD0
1FFFD0
3F8240
BE0000
FD0000
FC0000
FC2FF0
FC2FF0
FD02F0
BE02F0
3F42F0
1FFFE0
02FE40
ENDCHAR
STARTCHAR Ohorn
ENCODING 416
SWIDTH 600 0
DWIDTH 12 0
BBX 12 16 0 0
BITMAP
00001A
00002F
00002E
01BEBD
0BFFF0
1F82F4
2F41FC
3F00FC
7E00BD
7E00BD
7E00BC
3F00FC
2F41F8
1F82F4
0BFFE0
01BE40
ENDCHAR
STARTCHAR ohorn
ENCODING 417
SWIDTH 600 0
DWIDTH 12 0
BBX 11 14 1 0
BITMAP
000064
0000B8
0000B8
0000F4
06FAE0
2FFF80
7E0BD0
FD07F0
FC03F0
FC03F0
FD07E0
7E0BD0
2FFF80
06F900
ENDCHAR
STARTCHAR Uhorn
ENCODING 431
SWIDTH 600 0
DWIDTH 12 0
BBX 12 17 1 0
BITMAP
00000A
00001F
00001F
00002F
BD03F8
BD03E0
BD03E0
BD03E0
BD03E0
BD03E0
BD03E0
BD03E0
BD03E0
BD07E0
7E0BD0
2FFF80
06F900
ENDCHAR
STARTCHAR uhorn
ENCODING 432
SWIDTH 600 0
DWIDTH 12 0
BBX 12 14 1 0
BITMAP
000018
00003D
00003D
0000BC
BD07F4
BD07E0
BD07E0
BD07E0
BD07E0
BD07E0
BD0BE0
BE1FE0
7FFBE0
1FD3E0
ENDCHAR
STARTCHAR uni01C2
ENCODING 450
SWIDTH 600 0
DWIDTH 12 0
BBX 10 18 1 -4
BITMAP
01F400
01F400
01F400
01F400
01F400
01F400
BFFFE0
BFFFE0
01F400
01F400
BFFFE0
BFFFE0
01F400
01F400
01F400
01F400
01F400
01F400
ENDCHAR
STARTCHAR uni01CD
ENCODING 461
SWIDTH 600 0
DWIDTH 12 0
BBX 12 17 0 0
BITMAP
024180
02EB80
00FF00
000000
00FF00
01FF40
02FF80
03EBC0
07DBC0
07C7D0
0BC3E0
0F82F0
1FFFF4
2FFFF8
3F00FC
7E00BD
BD007E
ENDCHAR
STARTCHAR uni01CE
ENCODING 462
SWIDTH 600 0
DWIDTH 12 0
BBX 10 15 1 0
BITMAP
090240
0F8B80
07FF00
01FD00
000000
1AFE00
7FFF80
291FD0
0007E0
06BFE0
3FFFE0
BE47E0
BD1BE0
7FFFE0
1FE2E0
ENDCHAR
STARTCHAR uni01CF
ENCODING 463
SWIDTH 600 0
DWIDTH 12 0
BBX 10 17 1 0
BITMAP
090600
0BAE00
03FC00
000000
BFFFE0
BFFFE0
01F400
01F400
01F400
01F400
01F400
01F400
01F400
01F400
01F400
BFFFE0
BFFFE0
ENDCHAR
STARTCHAR uni01D0
ENCODING 464
SWIDTH 600 0
DWIDTH 12 0
BBX 10 15 1 0
BITMAP
060180
07D7D0
02FF80
00FE00
000000
7FFE00
7FFE00
007E00
007E00
007E00
007E00
007E00
007E00
007E00
007E00
ENDCHAR
STARTCHAR uni01D1
ENCODING 465
SWIDTH 600 0
DWIDTH 12 0
BBX 12 17 0 0
BITMAP
024180
02EB80
00FF00
000000
01BE40
0BFFE0
1F82F4
2F41F8
3F00FC
7E00BD
7E00BD
7E00BD
3F00FC
2F41F8
1F82F4
0BFFE0
01BE40
ENDCHAR
STARTCHAR uni01D2
ENCODING 466
SWIDTH 600 0
DWIDTH 12 0
BBX 10 15 1 0
BITMAP
090600
1F5F40
0BFE00
03FC00
000000
06F900
2FFF80
7E0BD0
FD07F0
FC03F0
FC03F0
FD07F0
7E0BD0
2FFF80
06F900
ENDCHAR
STARTCHAR uni01D3
ENCODING 467
SWIDTH 600 0
DWIDTH 12 0
BBX 10 17 1 0
BITMAP
090600
0BAE00
03FC00
000000
BD03E0
BD03E0
BD03E0
BD03E0
BD03E0
BD03E0
BD03E0
BD03E0
BD03E0
BD07E0
7E0BD0
2FFF80
06F900
ENDCHAR
STARTCHAR uni01D4
ENCODING 468
SWIDTH 600 0
DWIDTH 12 0
BBX 10 15 1 0
BITMAP
180600
1F5F40
0BFE00
03F800
000000
BD07E0
BD07E0
BD07E0
BD07E0
BD07E0
BD07E0
BD0BE0
BE1FE0
7FFBE0
1FD3E0
ENDCHAR
STARTCHAR uni01D5
ENCODING 469
SWIDTH 600 0
DWIDTH 12 0
BBX 10 18 1 0
BITMAP
0FFF00
000000
1E0B40
1E0B40
000000
BD03E0
BD03E0
BD03E0
BD03E0
BD03E0
BD03E0
BD03E0
BD03E0
BD03E0
BD07E0
7E0BD0
2FFF80
06F900
ENDCHAR
STARTCHAR uni01D6
ENCODING 470
SWIDTH 600 0
DWIDTH 12 0
BBX 10 16 1 0
BITMAP
0FFF00
000000
1E0B00
1E0B40
000000
000000
BD07E0
BD07E0
BD07E0
BD07E0
BD07E0
BD07E0
BD0BE0
BE1FE0
7FFBE0
1FD3E0
ENDCHAR
STARTCHAR uni01D7
ENCODING 471
SWIDTH 600 0
DWIDTH 12 0
BBX 10 20 1 0
BITMAP
001800
003D00
00B800
00A000
1E0B40
1E0B40
000000
BD03E0
BD03E0
BD03E0
BD03E0
BD03E0
BD03E0
BD03E0
BD03E0
BD03E0
BD07E0
7E0BD0
2FFF80
06F900
ENDCHAR
STARTCHAR uni01D8
ENCODING 472
SWIDTH 600 0
DWIDTH 12 0
BBX 10 17 1 0
BITMAP
002400
007800
00A000
1E0B00
1E0B40
000000
000000
BD07E0
BD07E0
BD07E0
BD07E0
BD07E0
BD07E0
BD0BE0
BE1FE0
7FFBE0
1FD3E0
ENDCHAR
STARTCHAR uni01D9
ENCODING 473
SWIDTH 600 0
DWIDTH 12 0
BBX 10 20 1 0
BITMAP
0A0A00
0BAE00
02F800
000000
1E0B40
1E0B40
000000
BD03E0
BD03E0
BD03E0
BD03E0
BD03E0
BD03E0
BD03E0
BD03E0
BD03E0
BD07E0
7E0BD0
2FFF80
06F900
ENDCHAR
STARTCHAR uni01DA
ENCODING 474
SWIDTH 600 0
DWIDTH 12 0
BBX 10 18 1 0
BITMAP
0A0900
0BBD00
02F800
000000
1E0B00
1E0B40
000000
000000
BD07E0
BD07E0
BD07E0
BD07E0
BD07E0
BD07E0
BD0BE0
BE1FE0
7FFBE0
1FD3E0
ENDCHAR
STARTCHAR uni01DB
ENCODING 475
SWIDTH 600 0
DWIDTH 12 0
BBX 10 20 1 0
BITMAP
024000
07C000
02E000
00A000
1E0B40
1E0B40
000000
BD03E0
BD03E0
BD03E0
BD03E0
BD03E0
BD03E0
BD03E0
BD03E0
BD03E0
BD07E0
7E0BD0
2FFF80
06F900
ENDCHAR
STARTCHAR uni01DC
ENCODING 476
SWIDTH 600 0
DWIDTH 12 0
BBX 10 17 1 0
BITMAP
018000
02D000
00A000
1E0B00
1E0B40
000000
000000
BD07E0
BD07E0
BD07E0
BD07E0
BD07E0
BD07E0
BD0BE0
BE1FE0
7FFBE0
1FD3E0
ENDCHAR
STARTCHAR uni01E2
ENCODING 482
SWIDTH 600 0
DWIDTH 12 0
BBX 12 16 0 0
BITMAP
007FF8
007FF8
000000
00FFFE
01FFFE
02FF80
03EB80
07EB80
0BDB80
0FCBFD
1F8BFD
2FFF80
3FFF80
7E0B80
BD0BFF
FC0BFF
ENDCHAR
STARTCHAR uni01E3
ENCODING 483
SWIDTH 600 0
DWIDTH 12 0
BBX 12 14 0 0
BITMAP
02FFC0
02FFC0
000000
000000
1BD2F4
3FFFFC
147E2D
06FD1E
2FFFFE
7E7FFE
BC3D00
BC7E04
7FFFFD
1F86F8
ENDCHAR
STARTCHAR Gcaron
ENCODING 486
SWIDTH 600 0
DWIDTH 12 0
BBX 10 17 1 0
BITMAP
064240
07DF40
01FE00
000000
02BE40
1FFFD0
3F8280
BE0000
FD0000
FC0000
FC2FF0
FC2FF0
FD02F0
BE02F0
3F42F0
1FFFE0
02FE40
ENDCHAR
STARTCHAR gcaron
ENCODING 487
SWIDTH 600 0
DWIDTH 12 0
BBX 11 19 1 -4
BITMAP
090240
1F5F40
0BFE00
02FC00
000000
06FFF4
2FFFF4
7E1F80
BD0F80
7E5F80
2FFF00
2EA800
7C0000
7FFF90
2FFFF4
B802F4
F906F4
BFFFD0
1BFA40
ENDCHAR
STARTCHAR uni01EA
ENCODING 490
SWIDTH 600 0
DWIDTH 12 0
BBX 12 18 0 -5
BITMAP
01BE40
0BFFE0
1F82F4
2F41F8
3F00FC
7E00BD
7E00BD
7E00BD
3F00FC
2F41F8
1F82F4
0BFFD0
01BF40
003800
00B400
00F400
00BF40
006E40
ENDCHAR
STARTCHAR uni01EB
ENCODING 491
SWIDTH 600 0
DWIDTH 12 0
BBX 10 15 1 -5
BITMAP
06F900
2FFF80
7E0BD0
FD07E0
FC03F0
FC03F0
FD07E0
7E0BD0
2FFF80
06FD00
00E000
02D000
03D000
02FD00
01B900
ENDCHAR
STARTCHAR uni01F4
ENCODING 500
SWIDTH 600 0
DWIDTH 12 0
BBX 10 18 1 0
BITMAP
000900
003F40
01FD00
00A000
000000
02BE40
1FFFD0
3F8280
BE0000
FD0000
FC0000
FC2FF0
FC2FF0
FD02F0
BE02F0
3F42F0
1FFFE0
02FE40
ENDCHAR
STARTCHAR uni01F5
ENCODING 501
SWIDTH 600 0
DWIDTH 12 0
BBX 11 20 1 -4
BITMAP
000900
002F40
00BE00
01F800
00A000
000000
06FFF4
2FFFF4
7E1F80
BD0F80
7E5F80
2FFF00
2EA800
7C0000
7FFF90
2FFFF4
B802F4
F906F4
BFFFD0
1BFA40
ENDCHAR
STARTCHAR uni01F8
ENCODING 504
SWIDTH 600 0
DWIDTH 12 0
BBX 10 18 1 0
BITMAP
024000
07E000
02FC00
002400
000000
BE03E0
BF03E0
BF43E0
BF83E0
BBD3E0
BDE3E0
BCF3E0
BCB7E0
BC7EE0
BC2FE0
BC1FE0
BC0FE0
BC0BE0
ENDCHAR
STARTCHAR uni01F9
ENCODING 505
SWIDTH 600 0
DWIDTH 12 0
BBX 10 16 1 0
BITMAP
024000
0BC000
0BF000
01F800
006000
000000
BC7F40
BEFFD0
BF4BE0
BD07E0
BD03E0
BD03E0
BD03E0
BD03E0
BD03E0
BD03E0
ENDCHAR
STARTCHAR Aringacute
ENCODING 506
SWIDTH 600 0
DWIDTH 12 0
BBX 12 20 0 0
BITMAP
000700
001F40
007D00
00EB40
01D740
00BD00
000000
00FF00
01FF40
02EF80
03EBC0
07D7C0
07C7D0
0BC3E0
0F82F0
1FFFF4
2FFFF8
3F00FC
7E00BD
BD007E
ENDCHAR
STARTCHAR aringacute
ENCODING 507
SWIDTH 600 0
DWIDTH 12 0
BBX 10 17 1 0
BITMAP
001D00
007D00
02FD00
038F00
038F00
01F900
000000
1AFE00
7FFF80
290BD0
06BFE0
2FFFE0
7F47E0
BC07E0
BD1FE0
7FFFE0
1BE2E0
ENDCHAR
STARTCHAR AEacute
ENCODING 508
SWIDTH 600 0
DWIDTH 12 0
BBX 12 18 0 0
BITMAP
000060
0002F4
000FE0
000600
000000
00FFFE
01FFFE
02FF80
03EB80
07EB80
0BDB80
0FCBFD
1F8BFD
2FFF80
3FFF80
7E0B80
BD0BFF
FC0BFF
ENDCHAR
STARTCHAR aeacute
ENCODING 509
SWIDTH 600 0
DWIDTH 12 0
BBX 12 16 0 0
BITMAP
000240
000BD0
001FC0
003E00
001800
000000
1BD2F4
3FFFFC
147E2D
06FD1E
2FFFFE
7E7FFE
BC3D00
BC7E04
7FFFFD
1F86F8
ENDCHAR
STARTCHAR Oslashacute
ENCODING 510
SWIDTH 600 0
DWIDTH 12 0
BBX 12 19 0 -1
BITMAP
000600
002F80
00BE00
006400
000004
01BE6D
0BFFF8
1F87F4
2F43F8
3F0BFC
7E1FFD
7E7DBD
7FF4BD
3FE0FC
2FC1F8
1FD2F4
2FFFE0
79BE40
100000
ENDCHAR
STARTCHAR oslashacute
ENCODING 511
SWIDTH 600 0
DWIDTH 12 0
BBX 10 16 1 0
BITMAP
000800
002F00
00BE00
01F800
009000
000000
06F9D0
2FFFC0
7E1FD0
FD2FF0
FCB7F0
FDE3F0
FF87F0
7F4BD0
3FFF80
76F900
ENDCHAR
STARTCHAR uni0218
ENCODING 536
SWIDTH 600 0
DWIDTH 12 0
BBX 10 18 1 -5
BITMAP
06FE40
2FFFD0
7E0680
7E0000
7F4000
3FF800
0BFF80
01BFE0
000BF0
0003F0
3D07E0
BFFFC0
1BFE00
000000
00E400
007C00
03F800
03E000
ENDCHAR
STARTCHAR uni0219
ENCODING 537
SWIDTH 600 0
DWIDTH 12 0
BBX 10 15 1 -5
BITMAP
06FE40
2FFFD0
7E0680
7F5000
2FFE40
06FFD0
001BE0
7907E0
BFFFD0
1BFE00
000000
00E400
007C00
03FC00
03E000
ENDCHAR
STARTCHAR uni021A
ENCODING 538
SWIDTH 600 0
DWIDTH 12 0
BBX 12 18 0 -5
BITMAP
7FFFFD
7FFFFD
007D00
007D00
007D00
007D00
007D00
007D00
007D00
007D00
007D00
007D00
007D00
000000
007900
002E00
01FE00
00E800
ENDCHAR
STARTCHAR uni021B
ENCODING 539
SWIDTH 600 0
DWIDTH 12 0
BBX 10 18 1 -5
BITMAP
03D000
07D000
07D000
FFFFE0
FFFFE0
0BD000
0BD000
0BD000
0BD000
07E000
07F400
02FFE0
00BFE0
000000
002900
001F40
00FF00
00B900
ENDCHAR
STARTCHAR uni0237
ENCODING 567
SWIDTH 600 0
DWIDTH 12 0
BBX 8 14 1 -4
BITMAP
7FFE
7FFE
007E
007E
007E
007E
007E
007E
007E
007D
00BD
50FC
BFF8
BF90
ENDCHAR
STARTCHAR uni0243
ENCODING 579
SWIDTH 600 0
DWIDTH 12 0
BBX 12 13 0 0
BITMAP
1FFF80
1FFFF4
1F82F8
1F81F8
1F82F4
1FFFD0
1FFFE4
1F81FC
BFF8BD
BFF8BD
1F81FC
1FFFF4
1FFF90
ENDCHAR
STARTCHAR uni0250
ENCODING 592
SWIDTH 600 0
DWIDTH 12 0
BBX 10 10 1 0
BITMAP
BC6F80
BFFFE0
BF43F0
BD1BE0
BFFFD0
BFE900
7D0000
7F4280
2FFFD0
06FE40
ENDCHAR
STARTCHAR uni0251
ENCODING 593
SWIDTH 600 0
DWIDTH 12 0
BBX 10 10 1 0
BITMAP
0BE7E0
2FFFE0
BE0FE0
FD07E0
FC07E0
FC07E0
FC07E0
BE1FE0
3FFFE0
0BE3E0
ENDCHAR
STARTCHAR uni0252
ENCODING 594
SWIDTH 600 0
DWIDTH 12 0
BBX 10 10 1 0
BITMAP
BCBE40
BFFFC0
BF4BE0
BD03F0
BD03F0
BD03F0
BD07F0
BF4BD0
BFFF80
BCBE00
ENDCHAR
STARTCHAR uni0253
ENCODING 595
SWIDTH 600 0
DWIDTH 12 0
BBX 10 14 1 0
BITMAP
0BF800
2FF800
7E0000
7D0000
BDBE00
BFFFC0
BF4BE0
BD03F0
BD03F0
BD03F0
BD07E0
BF4BD0
BFFF80
B8BE00
ENDCHAR
STARTCHAR uni0254
ENCODING 596
SWIDTH 600 0
DWIDTH 12 0
BBX 10 10 1 0
BITMAP
2BF800
7FFF40
242FC0
000BD0
0007E0
0007E0
000BD0
242FC0
BFFF40
2BF800
ENDCHAR
STARTCHAR uni0255
ENCODING 597
SWIDTH 600 0
DWIDTH 12 0
BBX 10 12 1 -2
BITMAP
02BF80
1FFFE0
3F4180
7E0000
BD2F80
BDFFF0
7FE1F0
3FD1F0
1FFFE0
3FBE40
7D0000
180000
ENDCHAR
STARTCHAR uni0256
ENCODING 598
SWIDTH 600 0
DWIDTH 12 0
BBX 12 18 1 -4
BITMAP
0007D0
0007D0
0007D0
0007D0
0BE7D0
2FFFD0
BE1FD0
FD07D0
FC07D0
FC07D0
FC07D0
BE1FD0
3FFFD0
0BE7D0
0007D0
0007E0
0002FC
0000BD
ENDCHAR
STARTCHAR uni0257
ENCODING 599
SWIDTH 600 0
DWIDTH 12 0
BBX 12 14 1 0
BITMAP
0001BD
0003FC
0007E0
0007D0
0BE7D0
2FFFD0
BE1FD0
FD0BD0
FC0BD0
FC0BD0
FC0BD0
BE1FD0
3FFFD0
0BE3D0
ENDCHAR
STARTCHAR uni0258
ENCODING 600
SWIDTH 600 0
DWIDTH 12 0
BBX 10 10 1 0
BITMAP
06F900
2FFF80
7D1FD0
B807E0
FFFFF0
FFFFF0
0007E0
141FD0
7FFF40
1BF900
ENDCHAR
STARTCHAR uni0259
ENCODING 601
SWIDTH 600 0
DWIDTH 12 0
BBX 10 10 1 0
BITMAP
1BF900
3FFF80
141BD0
0007E0
FFFFF0
FFFFF0
BC07E0
7D0BD0
2FFF80
07F900
ENDCHAR
STARTCHAR uni025A
ENCODING 602
SWIDTH 600 0
DWIDTH 12 0
BBX 13 10 0 0
BITMAP
2FE00000
3FFC5000
147FF400
007FB800
0BFF6F00
BFAF5F40
B82F0000
BC3E0000
3FFD0000
0BE40000
ENDCHAR
STARTCHAR uni025B
ENCODING 603
SWIDTH 600 0
DWIDTH 12 0
BBX 10 10 1 0
BITMAP
06FE40
2FFFD0
3F4180
3F4000
1BFC00
2FFC00
7E0000
BE0180
3FFFE0
0AFE80
ENDCHAR
STARTCHAR uni025C
ENCODING 604
SWIDTH 600 0
DWIDTH 12 0
BBX 10 10 1 0
BITMAP
1BFA00
BFFFC0
240BD0
000BD0
07FF40
07FF80
0007E0
6407E0
BFFFD0
1BFA00
ENDCHAR
STARTCHAR uni025E
ENCODING 606
SWIDTH 600 0
DWIDTH 12 0
BBX 10 10 1 0
BITMAP
06FE00
2FFFC0
7E4BD0
FC0BD0
FC7F40
FC7FD0
FC07E0
7E07F0
2FFFD0
06FE40
ENDCHAR
STARTCHAR uni025F
ENCODING 607
SWIDTH 600 0
DWIDTH 12 0
BBX 10 14 1 -4
BITMAP
7FFE00
7FFE00
007E00
007E00
2FFFF0
3FFFF0
007E00
007E00
007E00
007D00
00BD00
50FC00
BFF800
BF9000
ENDCHAR
STARTCHAR uni0260
ENCODING 608
SWIDTH 600 0
DWIDTH 12 0
BBX 12 17 1 -4
BITMAP
0000BD
0003FC
0007E0
0BE7D0
2FFFD0
7E1FD0
BD07D0
FC07D0
FC07D0
FD07D0
7E5FD0
2FFFD0
0AA7D0
000BD0
141FC0
3FFF80
1BF900
ENDCHAR
STARTCHAR uni0261
ENCODING 609
SWIDTH 600 0
DWIDTH 12 0
BBX 10 14 1 -4
BITMAP
0BE7E0
2FFFE0
7E1FE0
FD07E0
FC07E0
FC07E0
FC07E0
BE1BE0
3FFFE0
0BE7E0
0007D0
141FD0
3FFF80
1BF900
ENDCHAR
STARTCHAR uni0262
ENCODING 610
SWIDTH 600 0
DWIDTH 12 0
BBX 10 10 1 0
BITMAP
02FE40
1FFFD0
3F4180
7E0000
BD2FE0
BD2FE0
BE03E0
3F43E0
1FFFE0
06FE40
ENDCHAR
STARTCHAR uni0263
ENCODING 611
SWIDTH 600 0
DWIDTH 12 0
BBX 10 14 1 -4
BITMAP
F802F0
BC03E0
7E07D0
3F0BC0
1F4F40
0F9F00
0BEE00
03FD00
03FD00
0BEE00
0F5F40
0F5F40
0BFF00
02F800
ENDCHAR
STARTCHAR uni0264
ENCODING 612
SWIDTH 600 0
DWIDTH 12 0
BBX 12 10 0 0
BITMAP
7F82FD
3FFFFC
01FF40
02FF80
07EBD0
0FC3F0
0F82F0
0FC3F0
07FFD0
01BE40
ENDCHAR
STARTCHAR uni0265
ENCODING 613
SWIDTH 600 0
DWIDTH 12 0
BBX 10 14 1 -4
BITMAP
BC07E0
BC07E0
BC07E0
BC07E0
BC07E0
BC07E0
BD07E0
BE1FE0
7FFFE0
1FD7E0
0007E0
0007E0
0007E0
0007E0
ENDCHAR
STARTCHAR uni0266
ENCODING 614
SWIDTH 600 0
DWIDTH 12 0
BBX 10 14 1 0
BITMAP
0BF800
2FF800
7E0000
7D0000
BD7F40
BEFFD0
BF4BE0
BD07E0
BD03E0
BD03E0
BD03E0
BD03E0
BD03E0
BD03E0
ENDCHAR
STARTCHAR uni0267
ENCODING 615
SWIDTH 600 0
DWIDTH 12 0
BBX 10 18 1 -4
BITMAP
0BF800
2FF800
7E0000
7D0000
BD7F40
BEFFD0
BF4BE0
BD07E0
BD03E0
BD03E0
BD03E0
BD03E0
BD03E0
BD03E0
0007E0
0007E0
007FC0
007E40
ENDCHAR
STARTCHAR uni0268
ENCODING 616
SWIDTH 600 0
DWIDTH 12 0
BBX 10 15 1 0
BITMAP
007D00
00FE00
00FE00
007D00
000000
7FFE00
7FFE00
007E00
007E00
2FFFF0
2FFFF0
007E00
007E00
007E00
007E00
ENDCHAR
STARTCHAR uni026A
ENCODING 618
SWIDTH 600 0
DWIDTH 12 0
BBX 10 10 1 0
BITMAP
7FFFD0
7FFFD0
01F400
01F400
01F400
01F400
01F400
01F400
7FFFD0
7FFFD0
ENDCHAR
STARTCHAR uni026B
ENCODING 619
SWIDTH 600 0
DWIDTH 12 0
BBX 10 14 1 0
BITMAP
FFF000
FFF000
03F000
03F000
03F000
07F000
7FF380
BFFFC0
63FF40
03F000
02F000
02F800
00FFE0
006FE0
ENDCHAR
STARTCHAR uni026C
ENCODING 620
SWIDTH 600 0
DWIDTH 12 0
BBX 10 14 1 0
BITMAP
FFF000
FFF000
03F000
7FF000
FFF000
E3F000
FFFF80
6FFF80
03F000
03F000
02F000
02F800
00FFE0
006FE0
ENDCHAR
STARTCHAR uni026D
ENCODING 621
SWIDTH 600 0
DWIDTH 12 0
BBX 10 18 1 -4
BITMAP
FFF000
FFF000
03F000
03F000
03F000
03F000
03F000
03F000
03F000
03F000
03F000
03F000
03F000
03F000
02F000
02F800
00FFE0
006FE0
ENDCHAR
STARTCHAR uni026E
ENCODING 622
SWIDTH 600 0
DWIDTH 12 0
BBX 12 18 0 -4
BITMAP
7E0000
7E0000
7E0000
7E0000
7FFFFE
7FFFFD
7E01FC
7E03F4
7E0BE0
7E1FC0
7E3FE4
7E2FFD
7E00BE
7E003F
00003F
0090BE
02FFFC
006FE0
ENDCHAR
STARTCHAR uni026F
ENCODING 623
SWIDTH 600 0
DWIDTH 12 0
BBX 12 10 0 0
BITMAP
7D7CBD
7D7CBD
7D7CBD
7D7CBD
7D7CBD
7D7CBD
7D7CBD
7DBDFD
7FFFFD
2F5E3D
ENDCHAR
STARTCHAR uni0270
ENCODING 624
SWIDTH 600 0
DWIDTH 12 0
BBX 12 14 0 -4
BITMAP
7D7CBD
7D7CBD
7D7CBD
7D7CBD
7D7CBD
7D7CBD
7D7CBD
7DBDBD
7FFFFD
1F6FBD
00007D
00007D
00007D
00007D
ENDCHAR
STARTCHAR uni0271
ENCODING 625
SWIDTH 600 0
DWIDTH 12 0
BBX 12 14 0 -4
BITMAP
7CB5B4
7FFFFD
7F7E7D
7E3D7D
7E3D7D
7E3D7D
7E3D7D
7E3D7D
7E3D7D
7E3D7D
00007D
00007D
0002FC
0003F4
ENDCHAR
STARTCHAR uni0272
ENCODING 626
SWIDTH 600 0
DWIDTH 12 0
BBX 12 14 -1 -4
BITMAP
07C6F4
07EFFD
07F4BE
07E07E
07E03E
07E03E
07E03E
07E03E
07E03E
07E03E
07E000
0BD000
3FC000
7E4000
ENDCHAR
STARTCHAR uni0273
ENCODING 627
SWIDTH 600 0
DWIDTH 12 0
BBX 12 14 1 -4
BITMAP
BC7E40
BEFFC0
BF4BD0
BD07E0
BD07E0
BD07E0
BD07E0
BD07E0
BD07E0
BD07E0
0007E0
0003E0
0002FD
0000BD
ENDCHAR
STARTCHAR uni0274
ENCODING 628
SWIDTH 600 0
DWIDTH 12 0
BBX 10 10 1 0
BITMAP
BE07E0
BF07E0
BF87E0
BFD7E0
BEF7E0
BDFBE0
BD7FE0
BD2FE0
BD0FE0
BD0BE0
ENDCHAR
STARTCHAR uni0275
ENCODING 629
SWIDTH 600 0
DWIDTH 12 0
BBX 10 10 1 0
BITMAP
06F900
2FFF80
7E0BD0
FC03F0
FFFFF0
FFFFF0
FC03F0
7E0BD0
2FFF80
06F900
ENDCHAR
STARTCHAR uni0276
ENCODING 630
SWIDTH 600 0
DWIDTH 12 0
BBX 12 10 0 0
BITMAP
06FFFE
1FFFFE
3F5F80
7E0F80
BD0FFC
BD0FFC
7E0F80
3F5F80
1FFFFF
06FFFF
ENDCHAR
STARTCHAR uni0278
ENCODING 632
SWIDTH 600 0
DWIDTH 12 0
BBX 12 18 0 -4
BITMAP
007D00
007D00
007D00
007D00
06FF90
1FFFF4
3E7DBC
7D7D7D
7C7D3D
7C7D3D
7D7D7D
3E7DBC
1FFFF4
06FF90
007D00
007D00
007D00
007D00
ENDCHAR
STARTCHAR uni0279
ENCODING 633
SWIDTH 600 0
DWIDTH 12 0
BBX 9 10 1 0
BITMAP
001F80
001F80
001F80
001F80
001F80
001F80
002F80
01BF80
BFDF80
BE4B80
ENDCHAR
STARTCHAR uni027A
ENCODING 634
SWIDTH 600 0
DWIDTH 12 0
BBX 9 14 1 0
BITMAP
001F80
001F80
001F80
001F80
001F80
001F80
001F80
001F80
001F80
001F80
002F80
01BF80
BFDF80
BE4B80
ENDCHAR
STARTCHAR uni027B
ENCODING 635
SWIDTH 600 0
DWIDTH 12 0
BBX 10 14 1 -4
BITMAP
007E00
007E00
007E00
007E00
007E00
007E00
00BE00
02FE00
BFBE00
BD3E00
003E00
002F00
001FF0
0007F0
ENDCHAR
STARTCHAR uni027D
ENCODING 637
SWIDTH 600 0
DWIDTH 12 0
BBX 9 14 2 -4
BITMAP
B86F80
BDFF80
BF9000
BE0000
BD0000
BD0000
BD0000
BD0000
BD0000
BD0000
BD0000
7E0000
3FFE00
0BF900
ENDCHAR
STARTCHAR uni027E
ENCODING 638
SWIDTH 600 0
DWIDTH 12 0
BBX 9 10 2 0
BITMAP
06FF80
1FFF80
3F8000
BE0000
BD0000
BD0000
BD0000
BD0000
BD0000
BD0000
ENDCHAR
STARTCHAR uni0280
ENCODING 640
SWIDTH 600 0
DWIDTH 12 0
BBX 10 10 1 0
BITMAP
BFFE00
BFFFC0
BD0BE0
BD07E0
BD0BD0
BFFFC0
BFFF00
BD2F40
BD0FD0
BD07F0
ENDCHAR
STARTCHAR uni0281
ENCODING 641
SWIDTH 600 0
DWIDTH 12 0
BBX 10 10 1 0
BITMAP
FD07E0
7F07E0
1F87E0
0FFFE0
3FFFE0
7E07E0
BD07E0
BE07E0
3FFFE0
1BFFE0
ENDCHAR
STARTCHAR uni0282
ENCODING 642
SWIDTH 600 0
DWIDTH 12 0
BBX 10 14 1 -4
BITMAP
06FE40
2FFFD0
7E0680
7F5000
2FFE40
06FFD0
001BE0
7907E0
BFFFD0
FFFE00
F80000
BC0000
7F8000
2F8000
ENDCHAR
STARTCHAR uni0283
ENCODING 643
SWIDTH 600 0
DWIDTH 12 0
BBX 10 18 1 -4
BITMAP
002FE0
00BFE0
01F800
01F800
01F800
01F800
01F800
01F800
01F800
01F800
01F800
01F800
01F800
01F400
01F400
02F400
BFE000
BF8000
ENDCHAR
STARTCHAR uni0284
ENCODING 644
SWIDTH 600 0
DWIDTH 12 0
BBX 10 18 1 -4
BITMAP
002FE0
00BFE0
01F800
01F800
01F800
01F800
01F800
01F800
7FFFE0
7FFFE0
01F800
01F800
01F800
01F800
01F400
02F400
BFF000
BF8000
ENDCHAR
STARTCHAR uni0287
ENCODING 647
SWIDTH 600 0
DWIDTH 12 0
BBX 10 13 1 -3
BITMAP
BFE000
BFF800
01FD00
00BD00
007E00
007E00
007E00
007E00
BFFFF0
BFFFF0
007D00
007D00
007C00
ENDCHAR
STARTCHAR uni0288
ENCODING 648
SWIDTH 600 0
DWIDTH 12 0
BBX 10 17 1 -4
BITMAP
03D000
07D000
07D000
FFFFE0
FFFFE0
0BD000
0BD000
0BD000
0BD000
0BD000
0BD000
0BD000
07D000
07E000
07F400
02FFE0
00BFE0
ENDCHAR
STARTCHAR uni0289
ENCODING 649
SWIDTH 600 0
DWIDTH 12 0
BBX 13 10 -1 0
BITMAP
0BD0BD00
0BD0BD00
0BD0BD00
7FFFFFC0
7FFFFFC0
0BD0BD00
0BD0BD00
07E1FD00
03FFFD00
01BE7D00
ENDCHAR
STARTCHAR uni028A
ENCODING 650
SWIDTH 600 0
DWIDTH 12 0
BBX 12 11 0 0
BITMAP
000154
7FD7FD
7FC7FD
0B82F4
1F41F4
3F00F8
3F00FC
3F00FC
2F82F8
0BFFE0
01BE40
ENDCHAR
STARTCHAR uni028B
ENCODING 651
SWIDTH 600 0
DWIDTH 12 0
BBX 10 10 1 0
BITMAP
BD2F40
BD2FD0
BD07F0
BD03F0
BD03F0
BD03F0
BD07E0
7E0BD0
2FFF80
06F900
ENDCHAR
STARTCHAR uni028C
ENCODING 652
SWIDTH 600 0
DWIDTH 12 0
BBX 12 10 0 0
BITMAP
00FE00
01FF40
02EF80
03EBC0
07D7D0
0BC3E0
0F82F0
1F41F4
2F00F8
7E00BD
ENDCHAR
STARTCHAR uni028D
ENCODING 653
SWIDTH 600 0
DWIDTH 12 0
BBX 12 10 0 0
BITMAP
1FC7F4
2FD7F8
2FDBF8
3EEBBC
3DEABC
7DBEBD
7DBD7D
BC7D7E
BC283E
FC003F
ENDCHAR
STARTCHAR uni028E
ENCODING 654
SWIDTH 600 0
DWIDTH 12 0
BBX 11 14 0 0
BITMAP
0002F8
000FF4
002F40
007E00
00BD00
00FD00
01FE00
02EF40
07DB80
0BC7D0
0F83E0
1F42F4
2F00F8
7E00BC
ENDCHAR
STARTCHAR uni028F
ENCODING 655
SWIDTH 600 0
DWIDTH 12 0
BBX 10 10 1 0
BITMAP
FC03F0
BE07E0
3F0FC0
1F5F40
0BAF00
07FD00
02F800
01F800
01F800
01F800
ENDCHAR
STARTCHAR uni0290
ENCODING 656
SWIDTH 600 0
DWIDTH 12 0
BBX 12 14 1 -4
BITMAP
3FFFE0
3FFFD0
002F80
00BF00
01FD00
07F400
0FE000
2F8000
7FFFE0
BFFFE0
0007E0
0003F0
0002FD
0000BE
ENDCHAR
STARTCHAR uni0291
ENCODING 657
SWIDTH 600 0
DWIDTH 12 0
BBX 11 12 1 -2
BITMAP
3FFFC0
3FFF80
007E00
00FD00
02F400
07E2E4
0FC7F8
2F4E78
7FFFF4
BFFFD0
003800
007400
ENDCHAR
STARTCHAR uni0292
ENCODING 658
SWIDTH 600 0
DWIDTH 12 0
BBX 10 14 1 -4
BITMAP
7FFFD0
7FFFC0
002F00
00BC00
02F400
0BFE00
0FFF80
001FD0
0007E0
0007E0
000BD0
781FC0
BFFF40
1BF900
ENDCHAR
STARTCHAR uni0294
ENCODING 660
SWIDTH 600 0
DWIDTH 12 0
BBX 10 14 1 0
BITMAP
1BF900
BFFF40
781FD0
000BD0
000BD0
000FD0
007F80
02FE00
03F800
03F000
03F000
03F000
03F000
03F000
ENDCHAR
STARTCHAR uni0295
ENCODING 661
SWIDTH 600 0
DWIDTH 12 0
BBX 10 14 1 0
BITMAP
06FE40
2FFFE0
7F42D0
BD0000
BD0000
7F0000
2FD000
0BF400
02FC00
00FC00
00FC00
00FC00
00FC00
00FC00
ENDCHAR
STARTCHAR uni0298
ENCODING 664
SWIDTH 600 0
DWIDTH 12 0
BBX 10 14 1 0
BITMAP
06F900
1FFF40
3E0BC0
BD07E0
BC03E0
F852F0
F9F6F0
F9F6F0
F852F0
BC03E0
BD03E0
3E0BC0
1FFF40
06F900
ENDCHAR
STARTCHAR uni0299
ENCODING 665
SWIDTH 600 0
DWIDTH 12 0
BBX 10 10 2 0
BITMAP
BFFA00
BFFF80
BC0FC0
BC0FC0
BFFE40
BFFF80
BC0BD0
BC0BD0
BFFFC0
BFFE00
ENDCHAR
STARTCHAR uni029C
ENCODING 668
SWIDTH 600 0
DWIDTH 12 0
BBX 10 10 1 0
BITMAP
BD07E0
BD07E0
BD07E0
BD07E0
BFFFE0
BFFFE0
BD07E0
BD07E0
BD07E0
BD07E0
ENDCHAR
STARTCHAR uni029D
ENCODING 669
SWIDTH 600 0
DWIDTH 12 0
BBX 11 20 0 -5
BITMAP
001F40
003F80
003F80
001F40
000000
1FFF80
1FFF80
001F80
001F80
001F80
001F80
001F80
001F80
001F80
1BFF80
7FFF40
7C3FC0
3FFFE0
1BF5F4
000090
ENDCHAR
STARTCHAR uni029E
ENCODING 670
SWIDTH 600 0
DWIDTH 12 0
BBX 11 14 0 -4
BITMAP
3F01F4
1F81F4
0BD2F4
03E7F4
01FFF4
00BFF4
01FEF4
07F1F4
1FD1F4
7F41F4
0001F4
0001F4
0001F4
0001F4
ENDCHAR
STARTCHAR uni029F
ENCODING 671
SWIDTH 600 0
DWIDTH 12 0
BBX 9 10 2 0
BITMAP
BD0000
BD0000
BD0000
BD0000
BD0000
BD0000
BD0000
BD0000
BFFF80
BFFF80
ENDCHAR
STARTCHAR uni02A1
ENCODING 673
SWIDTH 600 0
DWIDTH 12 0
BBX 10 14 1 0
BITMAP
1BF900
BFFF80
781FD0
0007E0
000BD0
001F80
00BE00
BFFFE0
FFFFE0
03F000
03F000
03F000
03F000
03F000
ENDCHAR
STARTCHAR uni02A2
ENCODING 674
SWIDTH 600 0
DWIDTH 12 0
BBX 10 14 1 0
BITMAP
06FE40
2FFFE0
7F42D0
BD0000
7E0000
2F4000
0BE000
BFFFF0
FFFFF0
00FC00
00FC00
00FC00
00FC00
00FC00
ENDCHAR
STARTCHAR uni02A4
ENCODING 676
SWIDTH 600 0
DWIDTH 12 0
BBX 13 18 0 -4
BITMAP
00B80000
00B80000
00B80000
00780000
1FBFFF00
7FFFFE00
BCB83D00
F8B87C00
F4B8F400
F4B9F000
F8BAF800
BCB9FE00
7FF82F40
1F681F40
00001F40
00012F00
000BFE00
0006F400
ENDCHAR
STARTCHAR uni02A6
ENCODING 678
SWIDTH 600 0
DWIDTH 12 0
BBX 12 13 0 0
BITMAP
0A4000
1F4000
1F4000
BFFFF9
FFFFFD
2F5F84
2F4BD0
2F43F8
2F40BD
1F803E
1FD07E
0BFFFD
01BFE4
ENDCHAR
STARTCHAR uni02A7
ENCODING 679
SWIDTH 600 0
DWIDTH 12 0
BBX 13 18 0 -4
BITMAP
00002F80
0F40BF80
1F40FC00
1F40FC00
BFFFFC00
FFFFFC00
2F40FC00
2F40FC00
2F40FC00
2F40FC00
1F40FC00
1F80FC00
0FF8FC00
06F8FC00
0000F800
0001F800
000FF400
000FD000
ENDCHAR
STARTCHAR h.sups
ENCODING 688
SWIDTH 600 0
DWIDTH 12 0
BBX 7 10 3 7
BITMAP
5000
F400
F400
F7D0
FFF0
F4F4
F4B4
F4B4
F4B4
F4B4
ENDCHAR
STARTCHAR j.sups
ENCODING 690
SWIDTH 600 0
DWIDTH 12 0
BBX 5 12 3 5
BITMAP
0780
0780
0000
FF80
FF80
0780
0780
0780
0780
0B80
FF40
BD00
ENDCHAR
STARTCHAR r.sups
ENCODING 691
SWIDTH 600 0
DWIDTH 12 0
BBX 6 7 4 7
BITMAP
B2E0
BBE0
BD00
B400
B400
B400
B400
ENDCHAR
STARTCHAR w.sups
ENCODING 695
SWIDTH 600 0
DWIDTH 12 0
BBX 10 7 1 7
BITMAP
F1E1D0
F2F2D0
B6B7C0
77B780
7B7B80
3F2F40
2F2F00
ENDCHAR
STARTCHAR y.sups
ENCODING 696
SWIDTH 600 0
DWIDTH 12 0
BBX 8 9 2 5
BITMAP
782D
2C3C
1E78
0EB0
07E0
03D0
07C0
2F80
2E00
ENDCHAR
STARTCHAR uni02B9
ENCODING 697
SWIDTH 600 0
DWIDTH 12 0
BBX 4 7 4 7
BITMAP
3F
3E
3E
7D
7C
7C
78
ENDCHAR
STARTCHAR uni02BB
ENCODING 699
SWIDTH 600 0
DWIDTH 12 0
BBX 5 8 3 6
BITMAP
0780
1F40
2D00
3C00
7F40
7FC0
3F80
1F40
ENDCHAR
STARTCHAR uni02BC
ENCODING 700
SWIDTH 600 0
DWIDTH 12 0
BBX 5 8 4 6
BITMAP
7D00
FF00
FF40
7F40
0F00
1E00
BD00
B400
ENDCHAR
STARTCHAR uni02BE
ENCODING 702
SWIDTH 600 0
DWIDTH 12 0
BBX 5 6 4 11
BITMAP
B900
BF00
0F40
0F40
BF00
B900
ENDCHAR
STARTCHAR uni02BF
ENCODING 703
SWIDTH 600 0
DWIDTH 12 0
BBX 5 6 3 11
BITMAP
1B80
3F80
7C00
7C00
3F80
1B80
ENDCHAR
STARTCHAR uni02C1
ENCODING 705
SWIDTH 600 0
DWIDTH 12 0
BBX 6 8 3 9
BITMAP
1F90
BFF0
F450
F000
B800
2E00
0F40
0B40
ENDCHAR
STARTCHAR circumflex
ENCODING 710
SWIDTH 600 0
DWIDTH 12 0
BBX 8 4 2 11
BITMAP
0FF0
2FF8
7D7D
2418
ENDCHAR
STARTCHAR caron
ENCODING 711
SWIDTH 600 0
DWIDTH 12 0
BBX 8 4 2 11
BITMAP
2418
7D7D
2FF8
0FF0
ENDCHAR
STARTCHAR uni02C8
ENCODING 712
SWIDTH 600 0
DWIDTH 12 0
BBX 4 7 4 8
BITMAP
7D
7D
7D
7D
3C
3C
3C
ENDCHAR
STARTCHAR uni02C9
ENCODING 713
SWIDTH 600 0
DWIDTH 12 0
BBX 6 2 3 12
BITMAP
FFF0
FFF0
ENDCHAR
STARTCHAR uni02CA
ENCODING 714
SWIDTH 600 0
DWIDTH 12 0
BBX 5 5 4 11
BITMAP
0200
0BC0
2F80
7E00
2400
ENDCHAR
STARTCHAR uni02CB
ENCODING 715
SWIDTH 600 0
DWIDTH 12 0
BBX 5 5 3 11
BITMAP
2000
F800
BE00
2F40
0600
ENDCHAR
STARTCHAR uni02CC
ENCODING 716
SWIDTH 600 0
DWIDTH 12 0
BBX 4 7 4 -5
BITMAP
3C
3C
3C
7D
7D
7D
7D
ENDCHAR
STARTCHAR uni02D0
ENCODING 720
SWIDTH 600 0
DWIDTH 12 0
BBX 6 11 3 0
BITMAP
6A90
3FC0
1F40
0A00
0500
0000
0000
0500
0F00
2F80
7FD0
ENDCHAR
STARTCHAR uni02D1
ENCODING 721
SWIDTH 600 0
DWIDTH 12 0
BBX 6 4 3 6
BITMAP
7FD0
2F80
0F00
0500
ENDCHAR
STARTCHAR breve
ENCODING 728
SWIDTH 600 0
DWIDTH 12 0
BBX 8 3 2 11
BITMAP
782D
3FFC
0BE0
ENDCHAR
STARTCHAR dotaccent
ENCODING 729
SWIDTH 600 0
DWIDTH 12 0
BBX 4 4 4 11
BITMAP
7D
FF
FF
7D
ENDCHAR
STARTCHAR ring
ENCODING 730
SWIDTH 600 0
DWIDTH 12 0
BBX 6 4 3 11
BITMAP
2F80
B5E0
B5E0
2F80
ENDCHAR
STARTCHAR ogonek
ENCODING 731
SWIDTH 600 0
DWIDTH 12 0
BBX 5 5 4 -5
BITMAP
3800
B000
F000
FF40
7E00
ENDCHAR
STARTCHAR tilde
ENCODING 732
SWIDTH 600 0
DWIDTH 12 0
BBX 8 4 2 11
BITMAP
0400
3F5E
BFFE
A1B8
ENDCHAR
STARTCHAR hungarumlaut
ENCODING 733
SWIDTH 600 0
DWIDTH 12 0
BBX 8 4 3 11
BITMAP
0929
2E3D
7CB8
64A0
ENDCHAR
STARTCHAR uni02DE
ENCODING 734
SWIDTH 600 0
DWIDTH 12 0
BBX 7 5 1 4
BITMAP
0180
2FC0
7FD0
65FC
00B8
ENDCHAR
STARTCHAR uni02E0
ENCODING 736
SWIDTH 600 0
DWIDTH 12 0
BBX 8 10 2 4
BITMAP
7C2D
3D3C
1D78
0EB0
0BE0
07D0
0BA0
0EB0
0FF0
07D0
ENDCHAR
STARTCHAR l.sups
ENCODING 737
SWIDTH 600 0
DWIDTH 12 0
BBX 7 10 3 7
BITMAP
7F00
7F00
0F00
0F00
0F00
0F00
0F00
0F40
0BF0
06F4
ENDCHAR
STARTCHAR s.sups
ENCODING 738
SWIDTH 600 0
DWIDTH 12 0
BBX 6 7 3 7
BITMAP
2F90
BFE0
7840
1B90
50F0
FFF0
2F90
ENDCHAR
STARTCHAR x.sups
ENCODING 739
SWIDTH 600 0
DWIDTH 12 0
BBX 8 7 2 7
BITMAP
3C3C
1E74
0BF0
07D0
0FE0
2DB4
7C3D
ENDCHAR
STARTCHAR uni02E4
ENCODING 740
SWIDTH 600 0
DWIDTH 12 0
BBX 6 10 3 7
BITMAP
1F90
BFF0
F450
F000
B800
2F00
0F40
0B40
0B40
0A40
ENDCHAR
STARTCHAR uni0300
ENCODING 768
SWIDTH 600 0
DWIDTH 12 0
BBX 5 5 3 11
BITMAP
2000
F800
BE00
2F40
0600
ENDCHAR
STARTCHAR uni0301
ENCODING 769
SWIDTH 600 0
DWIDTH 12 0
BBX 5 5 4 11
BITMAP
0200
0BC0
2F80
7E00
2400
ENDCHAR
STARTCHAR uni0302
ENCODING 770
SWIDTH 600 0
DWIDTH 12 0
BBX 8 4 2 11
BITMAP
0FF0
2FF8
7D7D
2418
ENDCHAR
STARTCHAR uni0303
ENCODING 771
SWIDTH 600 0
DWIDTH 12 0
BBX 8 4 2 11
BITMAP
0400
3F5E
BFFE
A1B8
ENDCHAR
STARTCHAR uni0304
ENCODING 772
SWIDTH 600 0
DWIDTH 12 0
BBX 6 2 3 12
BITMAP
FFF0
FFF0
ENDCHAR
STARTCHAR uni0305
ENCODING 773
SWIDTH 600 0
DWIDTH 12 0
BBX 6 2 3 12
BITMAP
FFF0
FFF0
ENDCHAR
STARTCHAR uni0306
ENCODING 774
SWIDTH 600 0
DWIDTH 12 0
BBX 8 3 2 11
BITMAP
782D
3FFC
0BE0
ENDCHAR
STARTCHAR uni0307
ENCODING 775
SWIDTH 600 0
DWIDTH 12 0
BBX 4 4 4 11
BITMAP
7D
FF
FF
7D
ENDCHAR
STARTCHAR uni0308
ENCODING 776
SWIDTH 600 0
DWIDTH 12 0
BBX 8 3 2 12
BITMAP
782D
BD7E
782D
ENDCHAR
STARTCHAR uni0309
ENCODING 777
SWIDTH 600 0
DWIDTH 12 0
BBX 4 5 4 11
BITMAP
B8
BE
2F
1E
38
ENDCHAR
STARTCHAR uni030A
ENCODING 778
SWIDTH 600 0
DWIDTH 12 0
BBX 6 4 3 11
BITMAP
2F80
B5E0
B5E0
2F80
ENDCHAR
STARTCHAR uni030B
ENCODING 779
SWIDTH 600 0
DWIDTH 12 0
BBX 8 4 3 11
BITMAP
0929
2E3D
7CB8
64A0
ENDCHAR
STARTCHAR uni030C
ENCODING 780
SWIDTH 600 0
DWIDTH 12 0
BBX 8 4 2 11
BITMAP
2418
7D7D
2FF8
0FF0
ENDCHAR
STARTCHAR uni030F
ENCODING 783
SWIDTH 600 0
DWIDTH 12 0
BBX 8 4 1 11
BITMAP
6860
7CB8
2E3D
0A19
ENDCHAR
STARTCHAR uni0310
ENCODING 784
SWIDTH 600 0
DWIDTH 12 0
BBX 8 6 2 11
BITMAP
0140
07D0
17D4
B55D
3FFC
1BE4
ENDCHAR
STARTCHAR uni0311
ENCODING 785
SWIDTH 600 0
DWIDTH 12 0
BBX 8 3 2 12
BITMAP
0BE0
3FFC
782D
ENDCHAR
STARTCHAR uni0312
ENCODING 786
SWIDTH 600 0
DWIDTH 12 0
BBX 4 5 4 11
BITMAP
18
34
7D
7D
2D
ENDCHAR
STARTCHAR uni0313
ENCODING 787
SWIDTH 600 0
DWIDTH 12 0
BBX 4 5 4 11
BITMAP
78
7D
7D
1C
24
ENDCHAR
STARTCHAR uni0318
ENCODING 792
SWIDTH 600 0
DWIDTH 12 0
BBX 5 6 4 -6
BITMAP
0100
0740
BF40
BF40
0740
0100
ENDCHAR
STARTCHAR uni0319
ENCODING 793
SWIDTH 600 0
DWIDTH 12 0
BBX 5 6 3 -6
BITMAP
1000
7400
7F80
7F80
7400
1000
ENDCHAR
STARTCHAR uni031A
ENCODING 794
SWIDTH 600 0
DWIDTH 12 0
BBX 4 4 4 10
BITMAP
BF
BF
0B
06
ENDCHAR
STARTCHAR uni031B
ENCODING 795
SWIDTH 600 0
DWIDTH 12 0
BBX 4 5 6 9
BITMAP
19
3E
3E
BC
E0
ENDCHAR
STARTCHAR uni031C
ENCODING 796
SWIDTH 600 0
DWIDTH 12 0
BBX 4 4 4 -5
BITMAP
6D
F4
B4
6D
ENDCHAR
STARTCHAR uni031D
ENCODING 797
SWIDTH 600 0
DWIDTH 12 0
BBX 6 4 3 -5
BITMAP
0F00
0F00
BFE0
BFE0
ENDCHAR
STARTCHAR uni031E
ENCODING 798
SWIDTH 600 0
DWIDTH 12 0
BBX 6 4 3 -5
BITMAP
BFE0
BFE0
0F00
0F00
ENDCHAR
STARTCHAR uni031F
ENCODING 799
SWIDTH 600 0
DWIDTH 12 0
BBX 6 6 3 -6
BITMAP
0500
0F00
BFE0
BFE0
0F00
0500
ENDCHAR
STARTCHAR uni0320
ENCODING 800
SWIDTH 600 0
DWIDTH 12 0
BBX 6 2 3 -3
BITMAP
BFE0
BFE0
ENDCHAR
STARTCHAR uni0323
ENCODING 803
SWIDTH 600 0
DWIDTH 12 0
BBX 4 4 4 -5
BITMAP
7D
FF
FF
7D
ENDCHAR
STARTCHAR uni0324
ENCODING 804
SWIDTH 600 0
DWIDTH 12 0
BBX 8 3 2 -4
BITMAP
782D
BD7E
782D
ENDCHAR
STARTCHAR uni0325
ENCODING 805
SWIDTH 600 0
DWIDTH 12 0
BBX 6 4 3 -5
BITMAP
2F80
B5E0
B5E0
2F80
ENDCHAR
STARTCHAR uni0326
ENCODING 806
SWIDTH 600 0
DWIDTH 12 0
BBX 5 4 3 -5
BITMAP
1E40
0B80
7F80
3A00
ENDCHAR
STARTCHAR uni0327
ENCODING 807
SWIDTH 600 0
DWIDTH 12 0
BBX 4 5 4 -5
BITMAP
38
7D
2F
2E
E8
ENDCHAR
STARTCHAR uni0328
ENCODING 808
SWIDTH 600 0
DWIDTH 12 0
BBX 5 5 4 -5
BITMAP
3800
B000
F000
FF40
7E00
ENDCHAR
STARTCHAR uni0329
ENCODING 809
SWIDTH 600 0
DWIDTH 12 0
BBX 4 4 4 -5
BITMAP
3C
3C
3C
7D
ENDCHAR
STARTCHAR uni032A
ENCODING 810
SWIDTH 600 0
DWIDTH 12 0
BBX 6 4 3 -5
BITMAP
BFE0
BFE0
B0E0
5050
ENDCHAR
STARTCHAR uni032C
ENCODING 812
SWIDTH 600 0
DWIDTH 12 0
BBX 8 4 2 -5
BITMAP
2418
7D7D
2FF8
0FF0
ENDCHAR
STARTCHAR uni032E
ENCODING 814
SWIDTH 600 0
DWIDTH 12 0
BBX 8 3 2 -5
BITMAP
782D
3FFC
0BE0
ENDCHAR
STARTCHAR uni032F
ENCODING 815
SWIDTH 600 0
DWIDTH 12 0
BBX 8 3 2 -4
BITMAP
0BE0
3FFC
782D
ENDCHAR
STARTCHAR uni0330
ENCODING 816
SWIDTH 600 0
DWIDTH 12 0
BBX 8 4 2 -5
BITMAP
0400
3F5E
BFFE
A1B8
ENDCHAR
STARTCHAR uni0331
ENCODING 817
SWIDTH 600 0
DWIDTH 12 0
BBX 6 2 3 -4
BITMAP
FFF0
FFF0
ENDCHAR
STARTCHAR uni0334
ENCODING 820
SWIDTH 600 0
DWIDTH 12 0
BBX 10 4 1 3
BITMAP
040000
3FD2D0
7FFFD0
646F80
ENDCHAR
STARTCHAR uni0339
ENCODING 825
SWIDTH 600 0
DWIDTH 12 0
BBX 4 4 4 -5
BITMAP
79
1F
1E
79
ENDCHAR
STARTCHAR uni033A
ENCODING 826
SWIDTH 600 0
DWIDTH 12 0
BBX 6 4 3 -4
BITMAP
5050
B0E0
BFE0
BFE0
ENDCHAR
STARTCHAR uni033B
ENCODING 827
SWIDTH 600 0
DWIDTH 12 0
BBX 6 4 3 -5
BITMAP
BFE0
B0E0
B0E0
BFE0
ENDCHAR
STARTCHAR uni033C
ENCODING 828
SWIDTH 600 0
DWIDTH 12 0
BBX 8 4 2 -5
BITMAP
2D78
7EBE
B3CE
A28A
ENDCHAR
STARTCHAR uni033D
ENCODING 829
SWIDTH 600 0
DWIDTH 12 0
BBX 4 4 4 11
BITMAP
D7
7D
BE
96
ENDCHAR
STARTCHAR uni0342
ENCODING 834
SWIDTH 600 0
DWIDTH 12 0
BBX 8 4 2 11
BITMAP
0400
3F5E
BFFE
A1B8
ENDCHAR
STARTCHAR uni0345
ENCODING 837
SWIDTH 600 0
DWIDTH 12 0
BBX 4 3 5 -4
BITMAP
F0
FC
7D
ENDCHAR
STARTCHAR uni035F
ENCODING 863
SWIDTH 600 0
DWIDTH 12 0
BBX 20 2 -4 -4
BITMAP
FFFFFFFFFF
FFFFFFFFFF
ENDCHAR
STARTCHAR uni0361
ENCODING 865
SWIDTH 600 0
DWIDTH 12 0
BBX 18 4 -3 12
BITMAP
006BFE9000
1BFFFFFE40
BE94016BE0
A0000000A0
ENDCHAR
STARTCHAR uni0374
ENCODING 884
SWIDTH 600 0
DWIDTH 12 0
BBX 4 6 4 8
BITMAP
3F
3E
3E
7D
7C
78
ENDCHAR
STARTCHAR uni0375
ENCODING 885
SWIDTH 600 0
DWIDTH 12 0
BBX 4 6 4 0
BITMAP
2D
3D
7D
BC
BC
FC
ENDCHAR
STARTCHAR uni037A
ENCODING 890
SWIDTH 600 0
DWIDTH 12 0
BBX 4 3 5 -4
BITMAP
F0
FC
7D
ENDCHAR
STARTCHAR uni037E
ENCODING 894
SWIDTH 600 0
DWIDTH 12 0
BBX 6 16 3 -5
BITMAP
1F40
3FC0
7FD0
3FC0
1F40
0000
0000
1F40
3FD0
3FD0
1FE0
03D0
07C0
2F80
3E00
1000
ENDCHAR
STARTCHAR tonos
ENCODING 900
SWIDTH 600 0
DWIDTH 12 0
BBX 4 5 5 11
BITMAP
79
BC
B8
F4
B0
ENDCHAR
STARTCHAR dieresistonos
ENCODING 901
SWIDTH 600 0
DWIDTH 12 0
BBX 8 5 2 11
BITMAP
01E0
02D0
B6DE
B79E
0340
ENDCHAR
STARTCHAR Alphatonos
ENCODING 902
SWIDTH 600 0
DWIDTH 12 0
BBX 12 14 0 0
BITMAP
390000
7D7F40
7CBF80
B8FFC0
B9FBD0
B6F7D0
B2E3E0
03E2F0
07D2F4
0BFFF8
0FFFFC
0F80FC
1F80BD
2F407E
ENDCHAR
STARTCHAR anoteleia
ENCODING 903
SWIDTH 600 0
DWIDTH 12 0
BBX 6 5 3 6
BITMAP
1F40
3FC0
7FD0
3FC0
1F40
ENDCHAR
STARTCHAR Epsilontonos
ENCODING 904
SWIDTH 600 0
DWIDTH 12 0
BBX 11 14 0 0
BITMAP
790000
7CBFF4
7CBFF4
B8B800
B4B800
F4B800
B0B800
00BFE0
00BFE0
00B800
00B800
00B800
00BFF8
00BFF8
ENDCHAR
STARTCHAR Etatonos
ENCODING 905
SWIDTH 600 0
DWIDTH 12 0
BBX 11 14 0 0
BITMAP
790000
7DF8BC
7CF8BC
B8F8BC
B4F8BC
F4F8BC
B0F8BC
00FFFC
00FFFC
00F8BC
00F8BC
00F8BC
00F8BC
00F8BC
ENDCHAR
STARTCHAR Iotatonos
ENCODING 906
SWIDTH 600 0
DWIDTH 12 0
BBX 11 14 0 0
BITMAP
790000
7CFFF8
7CFFF8
B81F80
B41F80
F41F80
B01F80
001F80
001F80
001F80
001F80
001F80
00FFF8
00FFF8
ENDCHAR
STARTCHAR Omicrontonos
ENCODING 908
SWIDTH 600 0
DWIDTH 12 0
BBX 12 14 0 0
BITMAP
790000
7C2F80
7CBFF0
B9F5F8
B6F0BC
F7E0BC
B3E0BD
03E0BD
03E0BD
03E0BC
02F0BC
01F5F8
00BFF0
002F80
ENDCHAR
STARTCHAR Upsilontonos
ENCODING 910
SWIDTH 600 0
DWIDTH 12 0
BBX 13 14 0 0
BITMAP
39000000
3DBC1F40
7C7C1F00
7C3D2E00
782E3D00
B41F7C00
B40FB800
000BF400
0007F000
0003E000
0003E000
0003E000
0003E000
0003E000
ENDCHAR
STARTCHAR Omegatonos
ENCODING 911
SWIDTH 600 0
DWIDTH 12 0
BBX 12 14 0 0
BITMAP
790000
7C2F80
7CBFF0
B9F5F8
B6F0BC
F7E0BC
B3E0BD
03E0BC
03E0BC
02F0B8
01F0F4
00B5F0
07F9FD
07F9FD
ENDCHAR
STARTCHAR iotadieresistonos
ENCODING 912
SWIDTH 600 0
DWIDTH 12 0
BBX 10 16 1 0
BITMAP
00A400
00F000
38EB40
39DB40
01C000
000000
BFF000
BFF000
03F000
03F000
03F000
03F000
02F000
02F400
01FFD0
006FD0
ENDCHAR
STARTCHAR Alpha
ENCODING 913
SWIDTH 600 0
DWIDTH 12 0
BBX 12 13 0 0
BITMAP
00FF00
01FF40
02FF80
03EBC0
07DBC0
07C7D0
0BC3E0
0F82F0
1FFFF4
2FFFF8
3F00FC
7E00BD
BD007E
ENDCHAR
STARTCHAR Beta
ENCODING 914
SWIDTH 600 0
DWIDTH 12 0
BBX 11 13 1 0
BITMAP
BFFE40
BFFFD0
BD0BE0
BD07E0
BD0BD0
BFFE40
BFFF80
BD07F0
BD02F0
BD02F4
BD07F0
BFFFD0
BFFE40
ENDCHAR
STARTCHAR Gamma
ENCODING 915
SWIDTH 600 0
DWIDTH 12 0
BBX 9 13 2 0
BITMAP
FFFF80
FFFF80
FC0000
FC0000
FC0000
FC0000
FC0000
FC0000
FC0000
FC0000
FC0000
FC0000
FC0000
ENDCHAR
STARTCHAR uni0394
ENCODING 916
SWIDTH 600 0
DWIDTH 12 0
BBX 12 13 0 0
BITMAP
00FF00
01FF40
02FF80
03EBC0
07DBD0
0BC7E0
0FC3F0
1F82F4
2F42F4
2F01F8
3F00FC
7FFFFD
7FFFFD
ENDCHAR
STARTCHAR Epsilon
ENCODING 917
SWIDTH 600 0
DWIDTH 12 0
BBX 9 13 2 0
BITMAP
FFFF40
FFFF40
F80000
F80000
F80000
F80000
FFFE00
FFFE00
F80000
F80000
F80000
FFFF80
FFFF80
ENDCHAR
STARTCHAR Zeta
ENCODING 918
SWIDTH 600 0
DWIDTH 12 0
BBX 10 13 1 0
BITMAP
7FFFF0
7FFFE0
000FC0
002F40
007E00
00FD00
02F800
07F000
0FD000
1F8000
3F0000
BFFFF0
FFFFF0
ENDCHAR
STARTCHAR Eta
ENCODING 919
SWIDTH 600 0
DWIDTH 12 0
BBX 10 13 1 0
BITMAP
BD07E0
BD07E0
BD07E0
BD07E0
BD07E0
BD07E0
BFFFE0
BFFFE0
BD07E0
BD07E0
BD07E0
BD07E0
BD07E0
ENDCHAR
STARTCHAR Theta
ENCODING 920
SWIDTH 600 0
DWIDTH 12 0
BBX 12 13 0 0
BITMAP
01BE40
0BFFE0
1F82F4
2F41F8
3F00FC
7F00FD
7E7DBD
3F7DFC
3F00FC
2F41F8
1F83F4
0BFFE0
01BE40
ENDCHAR
STARTCHAR Iota
ENCODING 921
SWIDTH 600 0
DWIDTH 12 0
BBX 10 13 1 0
BITMAP
BFFFE0
BFFFE0
01F400
01F400
01F400
01F400
01F400
01F400
01F400
01F400
01F400
BFFFE0
BFFFE0
ENDCHAR
STARTCHAR Kappa
ENCODING 922
SWIDTH 600 0
DWIDTH 12 0
BBX 11 13 1 0
BITMAP
BD03F4
BD0BD0
BD2F80
BD7E00
BDFC00
BFF800
BFFD00
BFFF00
BF2F40
BD0FC0
BD0BE0
BD03F0
BD02F8
ENDCHAR
STARTCHAR Lambda
ENCODING 923
SWIDTH 600 0
DWIDTH 12 0
BBX 12 13 0 0
BITMAP
00FF00
01FF40
02FF80
03EF80
03DBC0
07D7D0
0BC3E0
0F83F0
1F42F4
2F41F8
3F00FC
7E00BD
BD00BE
ENDCHAR
STARTCHAR Mu
ENCODING 924
SWIDTH 600 0
DWIDTH 12 0
BBX 10 13 1 0
BITMAP
FD07F0
FE0BF0
FF0FF0
FF5FF0
FB5EF0
F7ADF0
F6FAF0
F9F6F0
F8F2F0
F852F0
F802F0
F802F0
F802F0
ENDCHAR
STARTCHAR Nu
ENCODING 925
SWIDTH 600 0
DWIDTH 12 0
BBX 10 13 1 0
BITMAP
BE03E0
BF03E0
BF43E0
BF83E0
BBD3E0
BDE3E0
BCF3E0
BCB7E0
BC7EE0
BC2FE0
BC1FE0
BC0FE0
BC0BE0
ENDCHAR
STARTCHAR Xi
ENCODING 926
SWIDTH 600 0
DWIDTH 12 0
BBX 10 13 1 0
BITMAP
7FFFD0
7FFFD0
000000
000000
000000
000000
1FFF40
1FFF40
000000
000000
000000
BFFFE0
BFFFE0
ENDCHAR
STARTCHAR Omicron
ENCODING 927
SWIDTH 600 0
DWIDTH 12 0
BBX 12 13 0 0
BITMAP
01BE40
0BFFE0
1F82F4
2F41F8
3F00FC
7E00BD
7E00BD
7E00BD
3F00FC
2F41F8
1F82F4
0BFFE0
01BE40
ENDCHAR
STARTCHAR Pi
ENCODING 928
SWIDTH 600 0
DWIDTH 12 0
BBX 10 13 1 0
BITMAP
BFFFE0
BFFFE0
BD07E0
BD07E0
BD07E0
BD07E0
BD07E0
BD07E0
BD07E0
BD07E0
BD07E0
BD07E0
BD07E0
ENDCHAR
STARTCHAR Rho
ENCODING 929
SWIDTH 600 0
DWIDTH 12 0
BBX 11 13 1 0
BITMAP
BFFE40
BFFFD0
BD07F0
BD02F0
BD02F4
BD03F0
BD0BE0
BFFFC0
BFFE00
BD0000
BD0000
BD0000
BD0000
ENDCHAR
STARTCHAR Sigma
ENCODING 931
SWIDTH 600 0
DWIDTH 12 0
BBX 10 13 1 0
BITMAP
BFFFD0
7FFFD0
2F4000
0FC000
07E000
01F800
00FC00
02F400
07E000
0FC000
2F4000
BFFFE0
BFFFE0
ENDCHAR
STARTCHAR Tau
ENCODING 932
SWIDTH 600 0
DWIDTH 12 0
BBX 12 13 0 0
BITMAP
7FFFFD
7FFFFD
007D00
007D00
007D00
007D00
007D00
007D00
007D00
007D00
007D00
007D00
007D00
ENDCHAR
STARTCHAR Upsilon
ENCODING 933
SWIDTH 600 0
DWIDTH 12 0
BBX 12 13 0 0
BITMAP
7E00BD
3F00FC
1F81F4
0FC3F0
07D7D0
03EBC0
02FF80
00FF00
00BE00
007D00
007D00
007D00
007D00
ENDCHAR
STARTCHAR Phi
ENCODING 934
SWIDTH 600 0
DWIDTH 12 0
BBX 12 13 0 0
BITMAP
003C00
007D00
0BFFE0
2FFFF8
7E3CBD
BC3C3E
BC3C3E
BC3C3E
7E3CBD
2FFFF8
0BFFE0
007D00
003C00
ENDCHAR
STARTCHAR Chi
ENCODING 935
SWIDTH 600 0
DWIDTH 12 0
BBX 12 13 0 0
BITMAP
3F00FC
2F81F8
0FC3F0
07E7D0
03FFC0
01FF40
00FF00
02FF40
03EFC0
0BD7E0
1F83F4
2F41F8
7E00FD
ENDCHAR
STARTCHAR Psi
ENCODING 936
SWIDTH 600 0
DWIDTH 12 0
BBX 12 13 0 0
BITMAP
BC7D3E
BC7D3E
BC7D3E
BC7D3E
BD7D7E
7E7DBD
2FFFF8
06FF90
007D00
007D00
007D00
007D00
007D00
ENDCHAR
STARTCHAR uni03A9
ENCODING 937
SWIDTH 600 0
DWIDTH 12 0
BBX 12 13 0 0
BITMAP
01BE40
0BFFE0
1FC3F4
2F41F8
3F00FC
7F00FD
7E00BD
3F00FC
2F00F8
1F41F4
0B82E0
7FC3FD
7FC3FD
ENDCHAR
STARTCHAR Iotadieresis
ENCODING 938
SWIDTH 600 0
DWIDTH 12 0
BBX 10 17 1 0
BITMAP
1E0B40
2F5F80
1E0B40
000000
BFFFE0
BFFFE0
01F400
01F400
01F400
01F400
01F400
01F400
01F400
01F400
01F400
BFFFE0
BFFFE0
ENDCHAR
STARTCHAR Upsilondieresis
ENCODING 939
SWIDTH 600 0
DWIDTH 12 0
BBX 12 17 0 0
BITMAP
0782D0
0BD7E0
0782D0
000000
7E00BD
3F00FC
1F81F4
0FC3F0
07D7D0
03EBC0
02FF80
00FF00
00BE00
007D00
007D00
007D00
007D00
ENDCHAR
STARTCHAR alphatonos
ENCODING 940
SWIDTH 600 0
DWIDTH 12 0
BBX 11 16 1 0
BITMAP
003A00
003E00
007D00
007C00
007800
000000
0BE3F0
3FFBE0
BE1FE0
FC0FD0
FC0BC0
FC0BC0
FC0FC0
BE1FC0
7FFBF8
1BD2F8
ENDCHAR
STARTCHAR epsilontonos
ENCODING 941
SWIDTH 600 0
DWIDTH 12 0
BBX 10 16 1 0
BITMAP
002A00
003E00
003D00
007C00
007800
000000
06FE40
2FFFD0
3F4180
3F0000
1BFC00
2FFC00
7E0000
BE0180
3FFFE0
0AFE80
ENDCHAR
STARTCHAR etatonos
ENCODING 942
SWIDTH 600 0
DWIDTH 12 0
BBX 10 20 1 -4
BITMAP
003A00
007E00
007D00
007C00
007400
000000
BC6F40
BEFFC0
BF4BD0
7E07E0
7D03E0
7D03E0
7D07E0
7D07E0
7D07E0
7D07E0
0007E0
0007E0
0007E0
0007E0
ENDCHAR
STARTCHAR iotatonos
ENCODING 943
SWIDTH 600 0
DWIDTH 12 0
BBX 10 16 1 0
BITMAP
00E800
00F800
01F400
01F000
01E000
000000
BFF000
BFF000
03F000
03F000
03F000
03F000
02F000
02F400
01FFD0
006FD0
ENDCHAR
STARTCHAR upsilondieresistonos
ENCODING 944
SWIDTH 600 0
DWIDTH 12 0
BBX 10 16 1 0
BITMAP
007400
00B400
2CB780
2DE780
00D000
000000
BC06C0
BD0BD0
BD07E0
BD07E0
BD07E0
BC07E0
BD07E0
7E1FC0
2FFF80
07F900
ENDCHAR
STARTCHAR alpha
ENCODING 945
SWIDTH 600 0
DWIDTH 12 0
BBX 11 10 1 0
BITMAP
0BE3F0
3FFBE0
BE1FE0
FC0FD0
FC0BC0
FC0BC0
FC0FC0
BE1FC0
7FFBF8
1BD2F8
ENDCHAR
STARTCHAR beta
ENCODING 946
SWIDTH 600 0
DWIDTH 12 0
BBX 10 18 1 -4
BITMAP
06F900
2FFF40
3F1FC0
7D0BC0
BD0FC0
BD1F40
BD7E00
BD7FD0
BD07E0
BD02F0
BD02F0
BE47F0
BFFFD0
BDBE40
BD0000
BD0000
BD0000
BD0000
ENDCHAR
STARTCHAR gamma
ENCODING 947
SWIDTH 600 0
DWIDTH 12 0
BBX 11 15 0 -4
BITMAP
150000
7F00BC
2F80FC
0FC0F8
0BD1F0
07E2E0
03F3D0
02FB80
01FF00
00FD00
00BD00
00BD00
00BD00
00BD00
00BD00
ENDCHAR
STARTCHAR delta
ENCODING 948
SWIDTH 600 0
DWIDTH 12 0
BBX 10 14 1 0
BITMAP
0BFE40
2FFFD0
3F0580
2F8000
0FF400
07FE00
1FFF80
7E4FD0
BC07E0
FC03F0
BC03E0
7E0BD0
2FFF80
06F900
ENDCHAR
STARTCHAR epsilon
ENCODING 949
SWIDTH 600 0
DWIDTH 12 0
BBX 10 10 1 0
BITMAP
06FE40
2FFFD0
3F4180
3F0000
1BFC00
2FFC00
7E0000
BE0180
3FFFE0
0AFE80
ENDCHAR
STARTCHAR zeta
ENCODING 950
SWIDTH 600 0
DWIDTH 12 0
BBX 10 18 1 -4
BITMAP
2FFFE0
2FFFE0
001F80
00BD00
02F400
0BD000
1F8000
3F4000
7F0000
7E0000
3F0000
3F9000
1FFE40
02FFD0
001BE0
0003E0
0007D0
000680
ENDCHAR
STARTCHAR eta
ENCODING 951
SWIDTH 600 0
DWIDTH 12 0
BBX 10 14 1 -4
BITMAP
BC6F40
BEFFC0
BF4BD0
7E07E0
7D03E0
7D03E0
7D07E0
7D07E0
7D07E0
7D07E0
0007E0
0007E0
0007E0
0007E0
ENDCHAR
STARTCHAR theta
ENCODING 952
SWIDTH 600 0
DWIDTH 12 0
BBX 10 14 1 0
BITMAP
06F900
1FFF40
3E0BC0
7D07D0
BC03E0
BC03E0
FFFFF0
FFFFF0
BC03E0
BC03E0
7D07D0
3E0FC0
1FFF40
06F900
ENDCHAR
STARTCHAR iota
ENCODING 953
SWIDTH 600 0
DWIDTH 12 0
BBX 10 10 1 0
BITMAP
BFF000
BFF000
03F000
03F000
03F000
03F000
02F000
02F400
01FFD0
006FD0
ENDCHAR
STARTCHAR kappa
ENCODING 954
SWIDTH 600 0
DWIDTH 12 0
BBX 11 10 1 0
BITMAP
7D01A0
7E0BE0
7E2F80
7EBD00
7FFC00
7FFD00
7F7F00
7E1F80
7E0BD0
7D07F4
ENDCHAR
STARTCHAR lambda
ENCODING 955
SWIDTH 600 0
DWIDTH 12 0
BBX 11 15 1 -1
BITMAP
BF4000
BFE000
02F400
01F800
00FC00
02FD00
03FE00
07FF00
0FDF80
1F8FC0
2F4BD0
7E07E0
BD03F0
FC02F4
040000
ENDCHAR
STARTCHAR uni03BC
ENCODING 956
SWIDTH 600 0
DWIDTH 12 0
BBX 11 14 1 -4
BITMAP
BD07D0
BD07D0
BD07D0
BD07D0
BD07D0
BD07D0
BD0BD0
BE1FD0
BFFBF4
BEE1F8
BC0000
BC0000
BC0000
BD0000
ENDCHAR
STARTCHAR nu
ENCODING 957
SWIDTH 600 0
DWIDTH 12 0
BBX 11 11 0 0
BITMAP
150000
7F00BC
2F80FC
0FC0F8
0BD1F4
03E2F0
02F3E0
01FBC0
00FF80
00FF00
00BD00
ENDCHAR
STARTCHAR xi
ENCODING 958
SWIDTH 600 0
DWIDTH 12 0
BBX 10 18 1 -4
BITMAP
BFFFE0
BFFFE0
0BD000
1F8000
1F8000
0FD000
02FF40
0BFF40
2F8000
3F0000
7E0000
3F9000
1FFE40
06FFD0
001BE0
0003E0
0007D0
000680
ENDCHAR
STARTCHAR omicron
ENCODING 959
SWIDTH 600 0
DWIDTH 12 0
BBX 10 10 1 0
BITMAP
06F900
2FFF80
7E0BD0
BD07E0
FC03F0
FC03F0
BD07E0
7E0BD0
2FFF80
06F900
ENDCHAR
STARTCHAR pi
ENCODING 960
SWIDTH 600 0
DWIDTH 12 0
BBX 12 10 0 0
BITMAP
BFFFFE
BFFFFE
0FC2F0
0FC2F0
0FC2F0
0F82F0
0F82F0
0F82F4
1F81FD
1F80BE
ENDCHAR
STARTCHAR rho
ENCODING 961
SWIDTH 600 0
DWIDTH 12 0
BBX 10 14 1 -4
BITMAP
06FE00
1FFFC0
3F4BE0
7D03F0
7D03F0
BD03F0
BD07F0
BE0BD0
BFFF80
BDBE00
BD0000
BD0000
BD0000
BD0000
ENDCHAR
STARTCHAR uni03C2
ENCODING 962
SWIDTH 600 0
DWIDTH 12 0
BBX 10 14 1 -4
BITMAP
01BF80
0FFFD0
2F8180
7E0000
7E0000
BE0000
7E0000
3F9000
1FFE40
01BFC0
000BD0
0007D0
000BC0
000640
ENDCHAR
STARTCHAR sigma
ENCODING 963
SWIDTH 600 0
DWIDTH 12 0
BBX 11 10 1 0
BITMAP
06FFF8
2FFFF8
7E1F40
FC0BC0
FC0BD0
FC0BD0
FC0BC0
BE1F80
2FFF40
07F800
ENDCHAR
STARTCHAR tau
ENCODING 964
SWIDTH 600 0
DWIDTH 12 0
BBX 10 10 1 0
BITMAP
FFFFF0
FFFFF0
01F400
01F400
01F400
01F400
01F400
01F800
00FFC0
006F80
ENDCHAR
STARTCHAR upsilon
ENCODING 965
SWIDTH 600 0
DWIDTH 12 0
BBX 10 10 1 0
BITMAP
BC06C0
BD0BD0
BD07E0
BD07E0
BD07E0
BC07E0
BD07E0
7E1FC0
2FFF80
07F900
ENDCHAR
STARTCHAR phi
ENCODING 966
SWIDTH 600 0
DWIDTH 12 0
BBX 12 17 0 -4
BITMAP
007D00
007D00
007D00
06FF90
1FFFF4
3E7DBC
7D7D7D
7C7D3D
7C7D3D
7D7D7D
3E7DBC
1FFFF4
06FF90
007D00
007D00
007D00
007D00
ENDCHAR
STARTCHAR chi
ENCODING 967
SWIDTH 600 0
DWIDTH 12 0
BBX 11 15 1 -5
BITMAP
FD07E0
7E0BD0
2F5F80
1FEF40
0BFE00
03FD00
01F800
02FC00
07FE00
0BFF00
1F9F80
2F4FD0
7E07E0
FD02F4
040040
ENDCHAR
STARTCHAR psi
ENCODING 968
SWIDTH 600 0
DWIDTH 12 0
BBX 12 17 0 -4
BITMAP
007D00
007D00
007D00
BC7D6C
7D7DBD
7D7D7D
7D7D7E
7D7D3E
7D7D3E
7D7D7D
3E7DBC
2FFFF8
06FF90
007D00
007D00
007D00
007D00
ENDCHAR
STARTCHAR omega
ENCODING 969
SWIDTH 600 0
DWIDTH 12 0
BBX 12 10 0 0
BITMAP
190064
2F41F8
3F00BD
7D147D
BD3C7E
BC3C7E
7D3C7D
7D7DBD
2FFFF8
0BD7E0
ENDCHAR
STARTCHAR iotadieresis
ENCODING 970
SWIDTH 600 0
DWIDTH 12 0
BBX 10 15 1 0
BITMAP
2D1E00
7F2F40
2D1E00
000000
000000
BFF000
BFF000
03F000
03F000
03F000
03F000
02F000
02F400
01FFD0
006FD0
ENDCHAR
STARTCHAR upsilondieresis
ENCODING 971
SWIDTH 600 0
DWIDTH 12 0
BBX 10 15 1 0
BITMAP
1E0F40
3F5F80
1E0F40
000000
000000
BC06C0
BD0BD0
BD07E0
BD07E0
BD07E0
BC07E0
BD07E0
7E1FC0
2FFF80
07F900
ENDCHAR
STARTCHAR omicrontonos
ENCODING 972
SWIDTH 600 0
DWIDTH 12 0
BBX 10 16 1 0
BITMAP
007900
00BC00
00B800
00F400
00B000
000000
06F900
2FFF80
7E0BD0
BD07E0
FC03F0
FC03F0
BD07E0
7E0BD0
2FFF80
06F900
ENDCHAR
STARTCHAR upsilontonos
ENCODING 973
SWIDTH 600 0
DWIDTH 12 0
BBX 10 16 1 0
BITMAP
00B800
00BC00
00F800
00F400
00B000
000000
BC06C0
BD0BD0
BD07E0
BD07E0
BD07E0
BC07E0
BD07E0
7E1FC0
2FFF80
07F900
ENDCHAR
STARTCHAR omegatonos
ENCODING 974
SWIDTH 600 0
DWIDTH 12 0
BBX 12 16 0 0
BITMAP
001E40
002F00
002E00
003D00
002C00
000000
190064
2F41F8
3F00BD
7D147D
BD3C7E
BC3C7E
7D3C7D
7D7DBD
2FFFF8
0BD7E0
ENDCHAR
STARTCHAR uni03D0
ENCODING 976
SWIDTH 600 0
DWIDTH 12 0
BBX 10 14 1 0
BITMAP
06F900
2FFF40
7F1FC0
7D0BC0
BD0FC0
BD2F40
BEFE00
BFFFD0
BE47E0
BD02F0
7D02F0
3F47F0
1FFFD0
06FE00
ENDCHAR
STARTCHAR uni03D1
ENCODING 977
SWIDTH 600 0
DWIDTH 12 0
BBX 10 14 1 0
BITMAP
0BF800
3FFF40
BD1FC0
BC07D0
BC07E0
BE03E0
2FFFF0
07FFF0
5403E0
7D03E0
7D07D0
7E0BC0
2FFF40
0BF900
ENDCHAR
STARTCHAR uni03D5
ENCODING 981
SWIDTH 600 0
DWIDTH 12 0
BBX 12 17 0 -4
BITMAP
007D00
007D00
007D00
06FF90
1FFFF4
3E7DBC
7D7D7D
7C7D3D
7C7D3D
7D7D7D
3E7DBC
1FFFF4
06FF90
007D00
007D00
007D00
007D00
ENDCHAR
STARTCHAR uni03D7
ENCODING 983
SWIDTH 600 0
DWIDTH 12 0
BBX 11 14 1 -4
BITMAP
7D01A0
7E0BE0
7E2F80
7EBD00
7FFC00
7FFD00
7F7F00
7E1F80
7E0BE0
7D03F4
0003F4
000BE0
001FC0
002F40
ENDCHAR
STARTCHAR uni03D9
ENCODING 985
SWIDTH 600 0
DWIDTH 12 0
BBX 10 14 1 -4
BITMAP
06F900
2FFF80
7E0BD0
BD07E0
FC03F0
FC03F0
FD07F0
7E0BD0
2FFF80
0BFE00
01F400
01F800
01F800
01F800
ENDCHAR
STARTCHAR uni03DB
ENCODING 987
SWIDTH 600 0
DWIDTH 12 0
BBX 10 14 1 -4
BITMAP
02BFE0
1FFFE0
3F8000
7E0000
7E0000
7E0000
7F0000
2F9000
0FFE40
01BFC0
000BD0
0007D0
000BC0
000640
ENDCHAR
STARTCHAR uni03DD
ENCODING 989
SWIDTH 600 0
DWIDTH 12 0
BBX 9 14 2 -4
BITMAP
BFFF80
BFFF80
BC0000
BC0000
BC0000
BEAA00
BFFF00
BEAA00
BC0000
BC0000
BC0000
BD0000
BD0000
BD0000
ENDCHAR
STARTCHAR uni03E1
ENCODING 993
SWIDTH 600 0
DWIDTH 12 0
BBX 10 18 1 -4
BITMAP
060000
1F8000
1FF000
07F800
01FD00
007F00
06FF80
6FFFC0
FF8BD0
7807E0
006FE0
06FFF0
0FFBF0
0B82F0
0003F0
0003F0
0003F0
000150
ENDCHAR
STARTCHAR uni0400
ENCODING 1024
SWIDTH 600 0
DWIDTH 12 0
BBX 9 18 2 0
BITMAP
060000
1FD000
07F400
00A000
000000
FFFF40
FFFF40
F80000
F80000
F80000
F80000
FFFE00
FFFE00
F80000
F80000
F80000
FFFF80
FFFF80
ENDCHAR
STARTCHAR uni0401
ENCODING 1025
SWIDTH 600 0
DWIDTH 12 0
BBX 9 17 2 0
BITMAP
2D1E00
7E2F00
2D1E00
000000
FFFF40
FFFF40
F80000
F80000
F80000
F80000
FFFE00
FFFE00
F80000
F80000
F80000
FFFF80
FFFF80
ENDCHAR
STARTCHAR uni0402
ENCODING 1026
SWIDTH 600 0
DWIDTH 12 0
BBX 12 13 0 0
BITMAP
BFFFD0
BFFFD0
03F000
03F000
03F000
03FFE0
03FFF8
03F0FC
03F07D
03F07D
03F0BD
03F2FC
03F3E4
ENDCHAR
STARTCHAR uni0403
ENCODING 1027
SWIDTH 600 0
DWIDTH 12 0
BBX 9 18 2 0
BITMAP
006000
02F800
0BE000
064000
000000
FFFF80
FFFF80
FC0000
FC0000
FC0000
FC0000
FC0000
FC0000
FC0000
FC0000
FC0000
FC0000
FC0000
ENDCHAR
STARTCHAR uni0404
ENCODING 1028
SWIDTH 600 0
DWIDTH 12 0
BBX 10 13 1 0
BITMAP
01BF80
0BFFF0
2F8190
7E0000
BD0000
BFFE00
FFFE00
FC0000
BD0000
7E0000
3F81D0
0FFFF0
01BF80
ENDCHAR
STARTCHAR uni0405
ENCODING 1029
SWIDTH 600 0
DWIDTH 12 0
BBX 10 13 1 0
BITMAP
06FE40
2FFFD0
7E0680
7E0000
7F4000
3FF800
0BFF80
01BFE0
000BF0
0003F0
3D07E0
BFFFC0
1BFE00
ENDCHAR
STARTCHAR uni0406
ENCODING 1030
SWIDTH 600 0
DWIDTH 12 0
BBX 10 13 1 0
BITMAP
BFFFE0
BFFFE0
01F400
01F400
01F400
01F400
01F400
01F400
01F400
01F400
01F400
BFFFE0
BFFFE0
ENDCHAR
STARTCHAR uni0407
ENCODING 1031
SWIDTH 600 0
DWIDTH 12 0
BBX 10 17 1 0
BITMAP
1E0B40
2F5F80
1E0B40
000000
BFFFE0
BFFFE0
01F400
01F400
01F400
01F400
01F400
01F400
01F400
01F400
01F400
BFFFE0
BFFFE0
ENDCHAR
STARTCHAR uni0408
ENCODING 1032
SWIDTH 600 0
DWIDTH 12 0
BBX 10 13 1 0
BITMAP
2FFFD0
2FFFD0
000BD0
000BD0
000BD0
000BD0
000BD0
000BD0
000BD0
000BC0
391FC0
7FFF40
1BF900
ENDCHAR
STARTCHAR uni0409
ENCODING 1033
SWIDTH 600 0
DWIDTH 12 0
BBX 13 13 -1 0
BITMAP
03FF8000
07FF8000
07CF8000
07CF8000
07CF8000
07CFF900
07CFFF00
0B8F9F40
0B8F8B80
0B8F8B80
0F4F9F40
3F0FFF00
7D0FF800
ENDCHAR
STARTCHAR uni040A
ENCODING 1034
SWIDTH 600 0
DWIDTH 12 0
BBX 12 13 0 0
BITMAP
7D3E00
7D3E00
7D3E00
7D3E00
7D3E00
7FFFE4
7FFFFC
7D3E7D
7D3E3E
7D3E3E
7D3E7D
7D3FFC
7D3FE0
ENDCHAR
STARTCHAR uni040B
ENCODING 1035
SWIDTH 600 0
DWIDTH 12 0
BBX 12 13 0 0
BITMAP
BFFFD0
BFFFD0
03F000
03F000
03F000
03FFE0
03FFF8
03F0BD
03F0BD
03F0BD
03F0BD
03F0BD
03F0BD
ENDCHAR
STARTCHAR uni040C
ENCODING 1036
SWIDTH 600 0
DWIDTH 12 0
BBX 11 18 1 0
BITMAP
000900
007F40
01FD00
00A000
000000
BD01F4
BD07F0
BD0F80
BD1F00
BD2E00
BD7D00
BFFC00
BFFD00
BD7F00
BD2F80
BD0FD0
BD07F0
BD02F8
ENDCHAR
STARTCHAR uni040D
ENCODING 1037
SWIDTH 600 0
DWIDTH 12 0
BBX 10 18 1 0
BITMAP
024000
0BE000
02F800
006400
000000
BC0BE0
BC0FE0
BC1FE0
BC3FE0
BC7EE0
BCBAE0
B9F6E0
BAE3E0
BBD3E0
BFC3E0
BF43E0
BF03E0
BE03E0
ENDCHAR
STARTCHAR uni040E
ENCODING 1038
SWIDTH 600 0
DWIDTH 12 0
BBX 12 16 0 0
BITMAP
07D3E0
01BF80
000000
7E00BD
3F40FC
1F81F8
0FC2F4
07D3E0
03E7D0
02FBC0
00FF80
00BF40
007E00
00BD00
0BF800
0FD000
ENDCHAR
STARTCHAR uni040F
ENCODING 1039
SWIDTH 600 0
DWIDTH 12 0
BBX 10 17 1 -4
BITMAP
BD07E0
BD07E0
BD07E0
BD07E0
BD07E0
BD07E0
BD07E0
BD07E0
BD07E0
BD07E0
BD07E0
BFFFE0
BFFFE0
01F400
01F400
01F400
01F400
ENDCHAR
STARTCHAR uni0410
ENCODING 1040
SWIDTH 600 0
DWIDTH 12 0
BBX 12 13 0 0
BITMAP
00FF00
01FF40
02FF80
03EBC0
07DBC0
07C7D0
0BC3E0
0F82F0
1FFFF4
2FFFF8
3F00FC
7E00BD
BD007E
ENDCHAR
STARTCHAR uni0411
ENCODING 1041
SWIDTH 600 0
DWIDTH 12 0
BBX 11 13 1 0
BITMAP
BFFFD0
BFFFD0
BD0000
BD0000
BD0000
BFFE40
BFFFD0
BD07F0
BD02F4
BD02F4
BD07F0
BFFFD0
BFFE40
ENDCHAR
STARTCHAR uni0412
ENCODING 1042
SWIDTH 600 0
DWIDTH 12 0
BBX 11 13 1 0
BITMAP
BFFE40
BFFFD0
BD0BE0
BD07E0
BD0BD0
BFFE40
BFFF80
BD07F0
BD02F0
BD02F4
BD07F0
BFFFD0
BFFE40
ENDCHAR
STARTCHAR uni0413
ENCODING 1043
SWIDTH 600 0
DWIDTH 12 0
BBX 9 13 2 0
BITMAP
FFFF80
FFFF80
FC0000
FC0000
FC0000
FC0000
FC0000
FC0000
FC0000
FC0000
FC0000
FC0000
FC0000
ENDCHAR
STARTCHAR uni0414
ENCODING 1044
SWIDTH 600 0
DWIDTH 12 0
BBX 12 17 0 -4
BITMAP
02FFF4
03FFF4
03D2F4
07D2F4
07D2F4
0BC2F4
0BC2F4
0F82F4
0F82F4
1F42F4
2F02F4
BFFFFE
BFFFFE
BC003E
BC003E
BC003E
BC003E
ENDCHAR
STARTCHAR uni0415
ENCODING 1045
SWIDTH 600 0
DWIDTH 12 0
BBX 9 13 2 0
BITMAP
FFFF40
FFFF40
F80000
F80000
F80000
F80000
FFFE00
FFFE00
F80000
F80000
F80000
FFFF80
FFFF80
ENDCHAR
STARTCHAR uni0416
ENCODING 1046
SWIDTH 600 0
DWIDTH 12 0
BBX 12 13 0 0
BITMAP
B47D1E
BD7D7E
2E7DB8
1E7DB4
0F7DF0
0F7DF0
0BFFE0
0FFFF0
1F7DF4
2E7DB8
3D7D7C
7C7D3D
BC7D3E
ENDCHAR
STARTCHAR uni0417
ENCODING 1047
SWIDTH 600 0
DWIDTH 12 0
BBX 10 13 1 0
BITMAP
1BFA00
7FFFC0
290BD0
0007D0
000BD0
03FF40
03FF80
0007E0
0003F0
0003F0
790BE0
BFFFD0
1BFA00
ENDCHAR
STARTCHAR uni0418
ENCODING 1048
SWIDTH 600 0
DWIDTH 12 0
BBX 10 13 1 0
BITMAP
BC0BE0
BC0FE0
BC1FE0
BC3FE0
BC7EE0
BCBAE0
B9F6E0
BAE3E0
BBD3E0
BFC3E0
BF43E0
BF03E0
BE03E0
ENDCHAR
STARTCHAR uni0419
ENCODING 1049
SWIDTH 600 0
DWIDTH 12 0
BBX 10 16 1 0
BITMAP
1F4F40
07FE00
000000
BC0BE0
BC0FE0
BC1FE0
BC3FE0
BC7EE0
BCBAE0
B9F6E0
BAE3E0
BBD3E0
BFC3E0
BF43E0
BF03E0
BE03E0
ENDCHAR
STARTCHAR uni041A
ENCODING 1050
SWIDTH 600 0
DWIDTH 12 0
BBX 11 13 1 0
BITMAP
BD01F4
BD07F0
BD0F80
BD1F00
BD2E00
BD7D00
BFFC00
BFFD00
BD7F00
BD2F80
BD0FD0
BD07F0
BD02F8
ENDCHAR
STARTCHAR uni041B
ENCODING 1051
SWIDTH 600 0
DWIDTH 12 0
BBX 11 13 0 0
BITMAP
01FFF8
01FFF8
02F1F8
02E1F8
03E1F8
03D1F8
07D1F8
0BC1F8
0BC1F8
0F81F8
1F41F8
BF01F8
F901F8
ENDCHAR
STARTCHAR uni041C
ENCODING 1052
SWIDTH 600 0
DWIDTH 12 0
BBX 10 13 1 0
BITMAP
FD07F0
FE0BF0
FF0FF0
FF5FF0
FB5EF0
F7ADF0
F6FAF0
F9F6F0
F8F2F0
F852F0
F802F0
F802F0
F802F0
ENDCHAR
STARTCHAR uni041D
ENCODING 1053
SWIDTH 600 0
DWIDTH 12 0
BBX 10 13 1 0
BITMAP
BD07E0
BD07E0
BD07E0
BD07E0
BD07E0
BD07E0
BFFFE0
BFFFE0
BD07E0
BD07E0
BD07E0
BD07E0
BD07E0
ENDCHAR
STARTCHAR uni041E
ENCODING 1054
SWIDTH 600 0
DWIDTH 12 0
BBX 12 13 0 0
BITMAP
01BE40
0BFFE0
1F82F4
2F41F8
3F00FC
7E00BD
7E00BD
7E00BD
3F00FC
2F41F8
1F82F4
0BFFE0
01BE40
ENDCHAR
STARTCHAR uni041F
ENCODING 1055
SWIDTH 600 0
DWIDTH 12 0
BBX 10 13 1 0
BITMAP
BFFFE0
BFFFE0
BD07E0
BD07E0
BD07E0
BD07E0
BD07E0
BD07E0
BD07E0
BD07E0
BD07E0
BD07E0
BD07E0
ENDCHAR
STARTCHAR uni0420
ENCODING 1056
SWIDTH 600 0
DWIDTH 12 0
BBX 11 13 1 0
BITMAP
BFFE40
BFFFD0
BD07F0
BD02F0
BD02F4
BD03F0
BD0BE0
BFFFC0
BFFE00
BD0000
BD0000
BD0000
BD0000
ENDCHAR
STARTCHAR uni0421
ENCODING 1057
SWIDTH 600 0
DWIDTH 12 0
BBX 10 13 1 0
BITMAP
01BF80
0BFFF0
2F8180
7E0000
BD0000
FD0000
FC0000
FD0000
BD0000
7F0000
2F81D0
0BFFF0
01BF80
ENDCHAR
STARTCHAR uni0422
ENCODING 1058
SWIDTH 600 0
DWIDTH 12 0
BBX 12 13 0 0
BITMAP
7FFFFD
7FFFFD
007D00
007D00
007D00
007D00
007D00
007D00
007D00
007D00
007D00
007D00
007D00
ENDCHAR
STARTCHAR uni0423
ENCODING 1059
SWIDTH 600 0
DWIDTH 12 0
BBX 12 13 0 0
BITMAP
7E00BD
3F40FC
1F81F8
0FC2F4
07D3E0
03E7D0
02FBC0
00FF80
00BF40
007E00
00BD00
0BF800
0FD000
ENDCHAR
STARTCHAR uni0424
ENCODING 1060
SWIDTH 600 0
DWIDTH 12 0
BBX 12 13 0 0
BITMAP
003C00
003C00
06FF90
2FFFF8
7E7DBD
BC3C3E
BC3C3E
BC3C3E
7E7DBD
2FFFF8
06FF90
003C00
003C00
ENDCHAR
STARTCHAR uni0425
ENCODING 1061
SWIDTH 600 0
DWIDTH 12 0
BBX 12 13 0 0
BITMAP
3F00FC
2F81F8
0FC3F0
07E7D0
03FFC0
01FF40
00FF00
02FF40
03EFC0
0BD7E0
1F83F4
2F41F8
7E00FD
ENDCHAR
STARTCHAR uni0426
ENCODING 1062
SWIDTH 600 0
DWIDTH 12 0
BBX 11 17 1 -4
BITMAP
BD07E0
BD07E0
BD07E0
BD07E0
BD07E0
BD07E0
BD07E0
BD07E0
BD07E0
BD07E0
BD07E0
BFFFFC
BFFFFC
0000BC
0000BC
0000BC
0000BC
ENDCHAR
STARTCHAR uni0427
ENCODING 1063
SWIDTH 600 0
DWIDTH 12 0
BBX 10 13 1 0
BITMAP
F803E0
F803E0
F803E0
F803E0
FC03E0
BE07E0
7FFFE0
0BFFE0
0003E0
0003E0
0003E0
0003E0
0003E0
ENDCHAR
STARTCHAR uni0428
ENCODING 1064
SWIDTH 600 0
DWIDTH 12 0
BBX 12 13 0 0
BITMAP
7D7D7D
7D7D7D
7D7D7D
7D7D7D
7D7D7D
7D7D7D
7D7D7D
7D7D7D
7D7D7D
7D7D7D
7D7D7D
7FFFFD
7FFFFD
ENDCHAR
STARTCHAR uni0429
ENCODING 1065
SWIDTH 600 0
DWIDTH 12 0
BBX 12 17 0 -4
BITMAP
7C7CBC
7C7CBC
7C7CBC
7C7CBC
7C7CBC
7C7CBC
7C7CBC
7C7CBC
7C7CBC
7C7CBC
7C7CBC
7FFFFF
7FFFFF
00001F
00001F
00001F
00001F
ENDCHAR
STARTCHAR uni042A
ENCODING 1066
SWIDTH 600 0
DWIDTH 12 0
BBX 12 13 0 0
BITMAP
7FF400
7FF400
02F400
02F400
02F400
02FF90
02FFF8
02F5FC
02F47D
02F47D
02F4FC
02FFF8
02FF90
ENDCHAR
STARTCHAR uni042B
ENCODING 1067
SWIDTH 600 0
DWIDTH 12 0
BBX 12 13 0 0
BITMAP
7D007D
7D007D
7D007D
7D007D
7D007D
7FE07D
7FFC7D
7D7D7D
7D3E7D
7D3E7D
7D7D7D
7FFC7D
7FE07D
ENDCHAR
STARTCHAR uni042C
ENCODING 1068
SWIDTH 600 0
DWIDTH 12 0
BBX 11 13 1 0
BITMAP
BD0000
BD0000
BD0000
BD0000
BD0000
BFFE40
BFFFD0
BD07F0
BD02F4
BD02F4
BD07F0
BFFFD0
BFFE40
ENDCHAR
STARTCHAR uni042D
ENCODING 1069
SWIDTH 600 0
DWIDTH 12 0
BBX 10 13 1 0
BITMAP
2BE800
FFFF00
642F80
000BD0
0007E0
0BFFE0
0BFFF0
0003F0
0007E0
000BD0
742FC0
FFFF00
2FE800
ENDCHAR
STARTCHAR uni042E
ENCODING 1070
SWIDTH 600 0
DWIDTH 12 0
BBX 12 13 0 0
BITMAP
7D0BD0
7D2FF8
7D3DBC
7D787D
7DB87D
7DB87E
7FF87E
7FF87E
7DB87D
7DBC7D
7D7DBC
7D2FF4
7D0BD0
ENDCHAR
STARTCHAR uni042F
ENCODING 1071
SWIDTH 600 0
DWIDTH 12 0
BBX 11 13 0 0
BITMAP
06FFF8
1FFFF8
3F41F8
3F01F8
3F01F8
2F81F8
1FFFF8
03FFF8
03F1F8
0BD1F8
1F81F8
3F41F8
BE01F8
ENDCHAR
STARTCHAR uni0430
ENCODING 1072
SWIDTH 600 0
DWIDTH 12 0
BBX 10 10 1 0
BITMAP
1AFE00
7FFF80
291FD0
0007E0
06BFE0
3FFFE0
BE47E0
BD1BE0
7FFFE0
1FE2E0
ENDCHAR
STARTCHAR uni0431
ENCODING 1073
SWIDTH 600 0
DWIDTH 12 0
BBX 10 14 1 0
BITMAP
0016C0
02FFD0
1FFE40
3F4000
7D0000
BDBE00
BFFFC0
BE0BE0
BC07E0
BC07E0
7D07E0
3E0BD0
1FFF80
06F900
ENDCHAR
STARTCHAR uni0432
ENCODING 1074
SWIDTH 600 0
DWIDTH 12 0
BBX 10 10 1 0
BITMAP
7FFE40
7FFFD0
7E0BE0
7E0BD0
7FFF80
7FFFD0
7E07E0
7E07F0
7FFFE0
7FFE40
ENDCHAR
STARTCHAR uni0433
ENCODING 1075
SWIDTH 600 0
DWIDTH 12 0
BBX 9 10 2 0
BITMAP
BFFF80
BFFF80
BD0000
BD0000
BD0000
BD0000
BD0000
BD0000
BD0000
BD0000
ENDCHAR
STARTCHAR uni0434
ENCODING 1076
SWIDTH 600 0
DWIDTH 12 0
BBX 12 14 0 -4
BITMAP
07FFF0
0BFFF0
0BC3F0
0B83F0
0F83F0
0F83F0
1F43F0
2F03F0
BFFFFE
BFFFFE
BC003E
BC003E
7C003D
7C003D
ENDCHAR
STARTCHAR uni0435
ENCODING 1077
SWIDTH 600 0
DWIDTH 12 0
BBX 10 10 1 0
BITMAP
06FE00
1FFF80
7F47D0
BD02E0
FFFFF0
FFFFF0
BD0000
7F4140
1FFFD0
06FE40
ENDCHAR
STARTCHAR uni0436
ENCODING 1078
SWIDTH 600 0
DWIDTH 12 0
BBX 12 10 0 0
BITMAP
B83C2E
BD3C7E
1E3CB4
0F7DF0
0BFFE0
0FFFF0
1F3CF4
3E3CBC
7D3C7D
BC3C3E
ENDCHAR
STARTCHAR uni0437
ENCODING 1079
SWIDTH 600 0
DWIDTH 12 0
BBX 10 10 1 0
BITMAP
1BFA00
BFFFC0
240BD0
000BD0
07FF40
07FF80
0007E0
6407E0
BFFFD0
1BFA00
ENDCHAR
STARTCHAR uni0438
ENCODING 1080
SWIDTH 600 0
DWIDTH 12 0
BBX 10 10 1 0
BITMAP
BD07E0
BD0FE0
BD2FE0
BD7FE0
BDFBE0
BEF7E0
BFD7E0
BF87E0
BF07E0
BD07E0
ENDCHAR
STARTCHAR uni0439
ENCODING 1081
SWIDTH 600 0
DWIDTH 12 0
BBX 10 15 1 0
BITMAP
0F4B80
0F8F80
07FF00
02FD00
000000
BD07E0
BD0FE0
BD2FE0
BD7FE0
BDFBE0
BEF7E0
BFD7E0
BF87E0
BF07E0
BD07E0
ENDCHAR
STARTCHAR uni043A
ENCODING 1082
SWIDTH 600 0
DWIDTH 12 0
BBX 11 10 1 0
BITMAP
7D02F0
7D0BE0
7D1F40
7D2E00
7FFD00
7FFE00
7D2F40
7D0FC0
7D07E0
7D03F4
ENDCHAR
STARTCHAR uni043B
ENCODING 1083
SWIDTH 600 0
DWIDTH 12 0
BBX 11 10 0 0
BITMAP
03FFF8
03FFF8
07D1F8
07C1F8
07C1F8
0BC1F8
0B81F8
0F81F8
7F01F8
B901F8
ENDCHAR
STARTCHAR uni043C
ENCODING 1084
SWIDTH 600 0
DWIDTH 12 0
BBX 12 10 0 0
BITMAP
7F41FD
7F82FD
7FC3FD
7FD7FD
7EEBBD
7DFF7D
7DBE7D
7D7D7D
7D3C7D
7D007D
ENDCHAR
STARTCHAR uni043D
ENCODING 1085
SWIDTH 600 0
DWIDTH 12 0
BBX 10 10 1 0
BITMAP
BD07E0
BD07E0
BD07E0
BD07E0
BFFFE0
BFFFE0
BD07E0
BD07E0
BD07E0
BD07E0
ENDCHAR
STARTCHAR uni043E
ENCODING 1086
SWIDTH 600 0
DWIDTH 12 0
BBX 10 10 1 0
BITMAP
06F900
2FFF80
7E0BD0
FD07F0
FC03F0
FC03F0
FD07F0
7E0BD0
2FFF80
06F900
ENDCHAR
STARTCHAR uni043F
ENCODING 1087
SWIDTH 600 0
DWIDTH 12 0
BBX 10 10 1 0
BITMAP
BFFFE0
BFFFE0
BD07E0
BD07E0
BD07E0
BD07E0
BD07E0
BD07E0
BD07E0
BD07E0
ENDCHAR
STARTCHAR uni0440
ENCODING 1088
SWIDTH 600 0
DWIDTH 12 0
BBX 10 14 1 -4
BITMAP
BCBE40
BFFFC0
BF4BE0
BD03F0
BD03F0
BD03F0
BD07F0
BE4BD0
BFFF80
BDBE00
BD0000
BD0000
BD0000
BD0000
ENDCHAR
STARTCHAR uni0441
ENCODING 1089
SWIDTH 600 0
DWIDTH 12 0
BBX 10 10 1 0
BITMAP
01BF80
1FFFD0
3F8180
7E0000
BD0000
BD0000
7E0000
3F8180
1FFFE0
02FE80
ENDCHAR
STARTCHAR uni0442
ENCODING 1090
SWIDTH 600 0
DWIDTH 12 0
BBX 10 10 1 0
BITMAP
FFFFF0
FFFFF0
01F400
01F400
01F400
01F400
01F400
01F400
01F400
01F400
ENDCHAR
STARTCHAR uni0443
ENCODING 1091
SWIDTH 600 0
DWIDTH 12 0
BBX 11 14 1 -4
BITMAP
F802F4
BC03F0
7E07D0
2F0BC0
1F4F80
0F9F40
07DF00
03FE00
01FC00
00F800
01F400
07F000
7FD000
7E4000
ENDCHAR
STARTCHAR uni0444
ENCODING 1092
SWIDTH 600 0
DWIDTH 12 0
BBX 12 18 0 -4
BITMAP
007D00
007D00
007D00
007D00
0BBEF4
2FFFFC
7E7D7D
7C3C3D
BC3C3E
BC3C3E
7C3C3D
7E7CBC
3FFFF8
0BFFE0
007D00
007D00
007D00
007D00
ENDCHAR
STARTCHAR uni0445
ENCODING 1093
SWIDTH 600 0
DWIDTH 12 0
BBX 10 10 1 0
BITMAP
BD07E0
3F0FC0
1F9F40
0BFE00
03FD00
07FC00
0FFE00
2F6F40
7E0FD0
FC07F0
ENDCHAR
STARTCHAR uni0446
ENCODING 1094
SWIDTH 600 0
DWIDTH 12 0
BBX 11 14 1 -4
BITMAP
BD0BC0
BD0BC0
BD0BC0
BD0BC0
BD0BC0
BD0BC0
BD0BC0
BD0BC0
BFFFF8
BFFFF8
0000F8
0000F8
0000F8
0000F4
ENDCHAR
STARTCHAR uni0447
ENCODING 1095
SWIDTH 600 0
DWIDTH 12 0
BBX 10 10 1 0
BITMAP
BD0BD0
BD0BD0
BD0BD0
BD0BD0
7E0BD0
3FFFD0
0BFFD0
000BD0
000BD0
000BD0
ENDCHAR
STARTCHAR uni0448
ENCODING 1096
SWIDTH 600 0
DWIDTH 12 0
BBX 12 10 0 0
BITMAP
7D7D7D
7D7D7D
7D7D7D
7D7D7D
7D7D7D
7D7D7D
7D7D7D
7D7D7D
7FFFFD
7FFFFD
ENDCHAR
STARTCHAR uni0449
ENCODING 1097
SWIDTH 600 0
DWIDTH 12 0
BBX 12 14 0 -4
BITMAP
7D7CBC
7D7CBC
7D7CBC
7D7CBC
7D7CBC
7D7CBC
7D7CBC
7D7CBC
7FFFFF
7FFFFF
00001F
00001F
00001F
00001F
ENDCHAR
STARTCHAR uni044A
ENCODING 1098
SWIDTH 600 0
DWIDTH 12 0
BBX 12 10 0 0
BITMAP
7FF400
7FF400
02F400
02FF90
02FFF8
02F4FC
02F4BD
02F4FC
02FFF8
02FF90
ENDCHAR
STARTCHAR uni044B
ENCODING 1099
SWIDTH 600 0
DWIDTH 12 0
BBX 12 10 0 0
BITMAP
7D007D
7D007D
7D007D
7FE47D
7FFD7D
7D3E7D
7D2E7D
7D3E7D
7FFD7D
7FE47D
ENDCHAR
STARTCHAR uni044C
ENCODING 1100
SWIDTH 600 0
DWIDTH 12 0
BBX 10 10 1 0
BITMAP
7E0000
7E0000
7E0000
7FFE40
7FFFE0
7E07F0
7E02F0
7E07F0
7FFFD0
7FFE40
ENDCHAR
STARTCHAR uni044D
ENCODING 1101
SWIDTH 600 0
DWIDTH 12 0
BBX 10 10 1 0
BITMAP
2FF800
7FFF40
241FC0
0007D0
07FFE0
07FFE0
0007D0
241FC0
BFFF40
2BF800
ENDCHAR
STARTCHAR uni044E
ENCODING 1102
SWIDTH 600 0
DWIDTH 12 0
BBX 12 10 0 0
BITMAP
7D0BE0
7D2FF8
7D3CBD
7D787D
7FF87E
7FF87E
7D787D
7D7CBD
7D2FF8
7D0BE0
ENDCHAR
STARTCHAR uni044F
ENCODING 1103
SWIDTH 600 0
DWIDTH 12 0
BBX 10 10 1 0
BITMAP
1BFFE0
3FFFE0
BE07E0
BD07E0
7E07E0
3FFFE0
0FFFE0
1F87E0
7F07E0
FD07E0
ENDCHAR
STARTCHAR uni0450
ENCODING 1104
SWIDTH 600 0
DWIDTH 12 0
BBX 10 16 1 0
BITMAP
024000
0BC000
0BE000
01F800
006000
000000
06FE00
1FFF80
7F47D0
BD02E0
FFFFF0
FFFFF0
BD0000
7F4140
1FFFD0
06FE40
ENDCHAR
STARTCHAR uni0451
ENCODING 1105
SWIDTH 600 0
DWIDTH 12 0
BBX 10 15 1 0
BITMAP
1F4B80
2F8FC0
1F4B80
000000
000000
06FE00
1FFF80
7F47D0
BD02E0
FFFFF0
FFFFF0
BD0000
7F4140
1FFFD0
06FE40
ENDCHAR
STARTCHAR uni0452
ENCODING 1106
SWIDTH 600 0
DWIDTH 12 0
BBX 11 18 0 -4
BITMAP
2F4000
BFFF00
FFFF00
2F4000
2F5F80
2FFFF0
2FD2F4
2F41F8
2F40FC
2F40FC
2F40FC
2F40FC
2F40FC
2F41F8
0001F8
0007F0
003FE0
003F40
ENDCHAR
STARTCHAR uni0453
ENCODING 1107
SWIDTH 600 0
DWIDTH 12 0
BBX 9 16 2 0
BITMAP
001800
003E00
00FE00
02F400
009000
000000
BFFF80
BFFF80
BD0000
BD0000
BD0000
BD0000
BD0000
BD0000
BD0000
BD0000
ENDCHAR
STARTCHAR uni0454
ENCODING 1108
SWIDTH 600 0
DWIDTH 12 0
BBX 10 10 1 0
BITMAP
01BF80
1FFFD0
3F4180
7D0000
BFFD00
BFFD00
7D0000
3F4180
1FFFE0
02FE80
ENDCHAR
STARTCHAR uni0455
ENCODING 1109
SWIDTH 600 0
DWIDTH 12 0
BBX 10 10 1 0
BITMAP
06FE40
2FFFD0
7E0680
7F5000
2FFE40
06FFD0
001BE0
7907E0
BFFFD0
1BFE00
ENDCHAR
STARTCHAR uni0456
ENCODING 1110
SWIDTH 600 0
DWIDTH 12 0
BBX 8 15 1 0
BITMAP
007D
00FE
00FE
007D
0000
7FFE
7FFE
007E
007E
007E
007E
007E
007E
007E
007E
ENDCHAR
STARTCHAR uni0457
ENCODING 1111
SWIDTH 600 0
DWIDTH 12 0
BBX 10 15 1 0
BITMAP
0783D0
0FD7E0
0783D0
000000
000000
7FFE00
7FFE00
007E00
007E00
007E00
007E00
007E00
007E00
007E00
007E00
ENDCHAR
STARTCHAR uni0458
ENCODING 1112
SWIDTH 600 0
DWIDTH 12 0
BBX 8 19 1 -4
BITMAP
007D
00FE
00FE
007D
0000
7FFE
7FFE
007E
007E
007E
007E
007E
007E
007E
007D
00BD
50FC
BFF8
BF90
ENDCHAR
STARTCHAR uni0459
ENCODING 1113
SWIDTH 600 0
DWIDTH 12 0
BBX 12 10 0 0
BITMAP
0FFE00
0FFE00
1F3E00
1F3FE4
1F3FFC
1E3E7D
2E3E3D
3E3E7D
FD3FFC
F43FE4
ENDCHAR
STARTCHAR uni045A
ENCODING 1114
SWIDTH 600 0
DWIDTH 12 0
BBX 12 10 0 0
BITMAP
7D3E00
7D3E00
7D3E00
7EBFE4
7FFFFC
7FBE7D
7D3E3D
7D3E7D
7D3FFC
7D3FE4
ENDCHAR
STARTCHAR uni045B
ENCODING 1115
SWIDTH 600 0
DWIDTH 12 0
BBX 11 14 0 0
BITMAP
2F4000
BFFF00
FFFF00
2F4000
2F5FD0
2FBFF4
2FD2F8
2F41F8
2F40F8
2F40F8
2F40F8
2F40F8
2F40F8
2F40F8
ENDCHAR
STARTCHAR uni045C
ENCODING 1116
SWIDTH 600 0
DWIDTH 12 0
BBX 11 16 1 0
BITMAP
000900
001F40
007F40
00FD00
006000
000000
7D02F0
7D0BE0
7D1F40
7D2E00
7FFD00
7FFE00
7D2F40
7D0FC0
7D07E0
7D03F4
ENDCHAR
STARTCHAR uni045D
ENCODING 1117
SWIDTH 600 0
DWIDTH 12 0
BBX 10 16 1 0
BITMAP
024000
0BD000
07F000
01F800
006000
000000
BD07E0
BD0FE0
BD2FE0
BD7FE0
BDFBE0
BEF7E0
BFD7E0
BF87E0
BF07E0
BD07E0
ENDCHAR
STARTCHAR uni045E
ENCODING 1118
SWIDTH 600 0
DWIDTH 12 0
BBX 11 19 1 -4
BITMAP
1F0B80
0F4F40
0BFF00
02F900
000000
F802F4
BC03F0
7E07D0
2F0BC0
1F4F80
0F9F40
07DF00
03FE00
01FC00
00F800
01F400
07F000
7FD000
7E4000
ENDCHAR
STARTCHAR uni045F
ENCODING 1119
SWIDTH 600 0
DWIDTH 12 0
BBX 10 14 1 -4
BITMAP
BD07E0
BD07E0
BD07E0
BD07E0
BD07E0
BD07E0
BD07E0
BD07E0
BFFFE0
BFFFE0
01F950
01F400
01F400
01F400
ENDCHAR
STARTCHAR uni0462
ENCODING 1122
SWIDTH 600 0
DWIDTH 12 0
BBX 12 14 0 0
BITMAP
07E000
07E000
BFFFF0
BFFFF0
07E000
07E000
07FF90
07FFF8
07E1FD
07E0BD
07E0BD
07E1FC
07FFF8
07FF90
ENDCHAR
STARTCHAR uni0463
ENCODING 1123
SWIDTH 600 0
DWIDTH 12 0
BBX 12 12 0 0
BITMAP
02F400
02F400
7FFFD0
7FFFD0
02F400
02F400
02FFE0
02FFF8
02F4BD
02F4BD
02FFF8
02FFE0
ENDCHAR
STARTCHAR uni0472
ENCODING 1138
SWIDTH 600 0
DWIDTH 12 0
BBX 12 13 0 0
BITMAP
01BE40
0BFFE0
1F82F4
2F00F8
3F00FC
7FFFFD
7FFFFD
7E00BC
3F00FC
2F41F8
1FC2F4
0BFFE0
01BE40
ENDCHAR
STARTCHAR uni0473
ENCODING 1139
SWIDTH 600 0
DWIDTH 12 0
BBX 10 10 1 0
BITMAP
06F900
2FFF80
7E0BD0
FC03F0
FFFFF0
FFFFF0
FC03F0
7E0BD0
2FFF80
06F900
ENDCHAR
STARTCHAR uni0474
ENCODING 1140
SWIDTH 600 0
DWIDTH 12 0
BBX 13 13 0 0
BITMAP
BD002F40
7E00BF00
3F00F800
2F01F000
2F42F000
1F83E000
0FC7D000
0BC7C000
07DBC000
03EF8000
02FF4000
01FF0000
00FF0000
ENDCHAR
STARTCHAR uni0475
ENCODING 1141
SWIDTH 600 0
DWIDTH 12 0
BBX 11 10 1 0
BITMAP
FC01F8
BC03F4
7D07C0
3E0B80
2F0F40
1F5F00
0FAE00
0BFE00
07FD00
03FC00
ENDCHAR
STARTCHAR uni0490
ENCODING 1168
SWIDTH 600 0
DWIDTH 12 0
BBX 9 16 2 0
BITMAP
000B80
000F80
000F80
FFFF80
FFFF80
FC0000
FC0000
FC0000
FC0000
FC0000
FC0000
FC0000
FC0000
FC0000
FC0000
FC0000
ENDCHAR
STARTCHAR uni0491
ENCODING 1169
SWIDTH 600 0
DWIDTH 12 0
BBX 9 13 2 0
BITMAP
000F80
000F80
000F40
BFFF40
BFFF40
BD0000
BD0000
BD0000
BD0000
BD0000
BD0000
BD0000
BD0000
ENDCHAR
STARTCHAR uni0492
ENCODING 1170
SWIDTH 600 0
DWIDTH 12 0
BBX 10 13 1 0
BITMAP
1FFFE0
1FFFE0
1F4000
1F4000
1F4000
FFFD00
FFFD00
1F4000
1F4000
1F4000
1F4000
1F4000
1F4000
ENDCHAR
STARTCHAR uni0493
ENCODING 1171
SWIDTH 600 0
DWIDTH 12 0
BBX 10 10 1 0
BITMAP
1FFFE0
1FFFE0
1F8000
1F8000
1F8000
FFFE00
FFFE00
1F8000
1F8000
1F8000
ENDCHAR
STARTCHAR uni0496
ENCODING 1174
SWIDTH 600 0
DWIDTH 12 0
BBX 13 17 0 -4
BITMAP
B47D1E00
BD7D7E00
2E7DB800
1E7DB400
0F7DF000
0F7DF000
0BFFE000
0FFFF000
1F7DF400
2E7DB800
3D7D7C00
7C7D3F40
BC7D3F40
00000F40
00000F00
00000F00
00000F00
ENDCHAR
STARTCHAR uni0497
ENCODING 1175
SWIDTH 600 0
DWIDTH 12 0
BBX 13 14 0 -4
BITMAP
B83C2E00
BD3C7E00
1E3CB400
0F7DF000
0BFFE000
0FFFF000
1F3CF400
3E3CB800
7D3C7F40
BC3C3F40
00000F40
00000F00
00000F00
00000F00
ENDCHAR
STARTCHAR uni0498
ENCODING 1176
SWIDTH 600 0
DWIDTH 12 0
BBX 10 17 1 -4
BITMAP
1BFA00
7FFFC0
290BD0
0007D0
000BD0
03FF40
03FF80
0007E0
0003F0
0003F0
790BE0
BFFFD0
1BFE00
01F400
01F400
01F400
01F400
ENDCHAR
STARTCHAR uni0499
ENCODING 1177
SWIDTH 600 0
DWIDTH 12 0
BBX 10 14 1 -4
BITMAP
1BFA00
BFFFC0
240BD0
000BD0
07FF40
07FF80
0007E0
6407E0
BFFFD0
2BFE40
02F400
02F000
02F000
02F000
ENDCHAR
STARTCHAR uni049A
ENCODING 1178
SWIDTH 600 0
DWIDTH 12 0
BBX 11 17 1 -4
BITMAP
BD01F4
BD07F0
BD0F80
BD1F00
BD2E00
BD7D00
BFFC00
BFFD00
BD7F00
BD2F80
BD0FC0
BD07FC
BD02FC
00007C
00007C
00007C
00007C
ENDCHAR
STARTCHAR uni049B
ENCODING 1179
SWIDTH 600 0
DWIDTH 12 0
BBX 11 14 1 -4
BITMAP
7D02F0
7D0BE0
7D1F40
7D2E00
7FFD00
7FFE00
7D2F40
7D0F80
7D07FC
7D03FC
0000BC
0000B8
0000B8
0000B8
ENDCHAR
STARTCHAR uni04A0
ENCODING 1184
SWIDTH 600 0
DWIDTH 12 0
BBX 12 13 0 0
BITMAP
7FF02E
7FF07D
02F0F4
02F0F0
02F1E0
02F2D0
02FFD0
02FFD0
02F2F0
02F1F4
02F0BC
02F07D
02F03E
ENDCHAR
STARTCHAR uni04A1
ENCODING 1185
SWIDTH 600 0
DWIDTH 12 0
BBX 12 10 0 0
BITMAP
7FF06D
7FF0FC
02F1F0
02F2E0
02FFD0
02FFD0
02F2F0
02F0F4
02F0BC
02F03E
ENDCHAR
STARTCHAR uni04A2
ENCODING 1186
SWIDTH 600 0
DWIDTH 12 0
BBX 11 17 1 -4
BITMAP
BD07E0
BD07E0
BD07E0
BD07E0
BD07E0
BD07E0
BFFFE0
BFFFE0
BD07E0
BD07E0
BD07E0
BD07FC
BD07FC
00007C
00007C
00007C
00007C
ENDCHAR
STARTCHAR uni04A3
ENCODING 1187
SWIDTH 600 0
DWIDTH 12 0
BBX 11 14 1 -4
BITMAP
BD0BC0
BD0BC0
BD0BC0
BD0BC0
BFFFC0
BFFFC0
BD0BC0
BD0BC0
BD0BF8
BD0BF8
0000F8
0000F8
0000F8
0000F4
ENDCHAR
STARTCHAR uni04AA
ENCODING 1194
SWIDTH 600 0
DWIDTH 12 0
BBX 10 17 1 -4
BITMAP
01BF80
0BFFF0
2F8180
7E0000
BD0000
BD0000
FC0000
FD0000
BD0000
7F0000
3F81D0
0FFFF0
02FF90
007E00
007E00
007D00
007D00
ENDCHAR
STARTCHAR uni04AB
ENCODING 1195
SWIDTH 600 0
DWIDTH 12 0
BBX 10 14 1 -4
BITMAP
01BF80
1FFFD0
3F8180
7E0000
BD0000
BD0000
7E0000
3F8180
1FFFE0
06FF80
00BD00
00BD00
00BC00
007C00
ENDCHAR
STARTCHAR uni04AE
ENCODING 1198
SWIDTH 600 0
DWIDTH 12 0
BBX 12 13 0 0
BITMAP
7E00BD
3F00FC
1F81F4
0FC3F0
07D7D0
03EBC0
02FF80
00FF00
00BE00
007D00
007D00
007D00
007D00
ENDCHAR
STARTCHAR uni04AF
ENCODING 1199
SWIDTH 600 0
DWIDTH 12 0
BBX 12 14 0 -4
BITMAP
7E00BD
2F00F8
1F41F4
0F82F0
0BC3E0
07D7D0
03EBC0
02FF80
00FF40
00BF00
007E00
007E00
007E00
007E00
ENDCHAR
STARTCHAR uni04B0
ENCODING 1200
SWIDTH 600 0
DWIDTH 12 0
BBX 12 13 0 0
BITMAP
7E00BD
3F00FC
1F81F4
0FC3F0
07D7D0
03EBC0
01FF40
1FFFF4
1FFFF4
007D00
007D00
007D00
007D00
ENDCHAR
STARTCHAR uni04B1
ENCODING 1201
SWIDTH 600 0
DWIDTH 12 0
BBX 10 14 1 -4
BITMAP
F802F0
BC03E0
7D07D0
3E0BC0
1F0F80
0F5F00
0BAE00
07FD00
7FFFD0
7FFFD0
01F800
01F800
01F800
01F800
ENDCHAR
STARTCHAR uni04B2
ENCODING 1202
SWIDTH 600 0
DWIDTH 12 0
BBX 12 17 0 -4
BITMAP
3F00FC
2F81F8
0FC3F0
07E7D0
03FFC0
01FF40
00FF00
02FF40
03EFC0
0BD7D0
1F83F0
2F41FF
7E00FF
00002F
00002F
00002E
00002E
ENDCHAR
STARTCHAR uni04B3
ENCODING 1203
SWIDTH 600 0
DWIDTH 12 0
BBX 11 14 1 -4
BITMAP
BD07E0
3F0FC0
1F9F40
0BFE00
03FD00
07FC00
0FFE00
2F6F40
7E0FF8
FC07F8
0001F8
0001F4
0001F4
0001F4
ENDCHAR
STARTCHAR uni04B6
ENCODING 1206
SWIDTH 600 0
DWIDTH 12 0
BBX 11 17 1 -4
BITMAP
F807E0
F807E0
F807E0
F807E0
FC07E0
BE07E0
7FFFE0
1BFFE0
0007E0
0007E0
0007E0
0007FC
0007FC
0000BC
0000BC
0000BC
0000BC
ENDCHAR
STARTCHAR uni04B7
ENCODING 1207
SWIDTH 600 0
DWIDTH 12 0
BBX 11 14 1 -4
BITMAP
BD0BC0
BD0BC0
BD0BC0
BD0BC0
BE0BC0
3FFFC0
0BFFC0
000BC0
000BF8
000BF8
0000F8
0000F8
0000F8
0000F4
ENDCHAR
STARTCHAR uni04BA
ENCODING 1210
SWIDTH 600 0
DWIDTH 12 0
BBX 10 13 1 0
BITMAP
BD0000
BD0000
BD0000
BD0000
BD0000
BFFE40
BFFFD0
BD0BE0
BD03F0
BD02F0
BD02F0
BD02F0
BD02F0
ENDCHAR
STARTCHAR uni04BB
ENCODING 1211
SWIDTH 600 0
DWIDTH 12 0
BBX 10 14 1 0
BITMAP
BD0000
BD0000
BD0000
BD0000
BD7F40
BFFFD0
BF4BE0
BD07E0
BD03E0
BD03E0
BD03E0
BD03E0
BD03E0
BD03E0
ENDCHAR
STARTCHAR uni04C0
ENCODING 1216
SWIDTH 600 0
DWIDTH 12 0
BBX 10 13 1 0
BITMAP
BFFFE0
BFFFE0
01F400
01F400
01F400
01F400
01F400
01F400
01F400
01F400
01F400
BFFFE0
BFFFE0
ENDCHAR
STARTCHAR uni04C1
ENCODING 1217
SWIDTH 600 0
DWIDTH 12 0
BBX 12 16 0 0
BITMAP
07D7D0
02FF40
000000
B47D1E
BD7D7E
2E7DB8
1E7DB4
0F7DF0
0F7DF0
0BFFE0
0FFFF0
1F7DF4
2E7DB8
3D7D7C
7C7D3D
BC7D3E
ENDCHAR
STARTCHAR uni04C2
ENCODING 1218
SWIDTH 600 0
DWIDTH 12 0
BBX 12 15 0 0
BITMAP
07C3D0
07D7D0
02FF80
00BE00
000000
B83C2E
BD3C7E
1E3CB4
0F7DF0
0BFFE0
0FFFF0
1F3CF4
3E3CBC
7D3C7D
BC3C3E
ENDCHAR
STARTCHAR uni04CF
ENCODING 1231
SWIDTH 600 0
DWIDTH 12 0
BBX 10 14 1 0
BITMAP
FFF000
FFF000
03F000
03F000
03F000
03F000
03F000
03F000
03F000
03F000
02F000
02F800
00FFE0
006FE0
ENDCHAR
STARTCHAR uni04D0
ENCODING 1232
SWIDTH 600 0
DWIDTH 12 0
BBX 12 16 0 0
BITMAP
07D7D0
02FF40
000000
00FF00
01FF40
02FF80
03EBC0
07DBC0
07C7D0
0BC3E0
0F82F0
1FFFF4
2FFFF8
3F00FC
7E00BD
BD007E
ENDCHAR
STARTCHAR uni04D1
ENCODING 1233
SWIDTH 600 0
DWIDTH 12 0
BBX 10 15 1 0
BITMAP
0F4B80
0B8B80
07FF40
02FD00
000000
1AFE00
7FFF80
291FD0
0007E0
06BFE0
3FFFE0
BE47E0
BD1BE0
7FFFE0
1FE2E0
ENDCHAR
STARTCHAR uni04D4
ENCODING 1236
SWIDTH 600 0
DWIDTH 12 0
BBX 12 13 0 0
BITMAP
00FFFE
01FFFE
02FF80
03EB80
07EB80
0BDB80
0FCBFD
1F8BFD
2FFF80
3FFF80
7E0B80
BD0BFF
FC0BFF
ENDCHAR
STARTCHAR uni04D5
ENCODING 1237
SWIDTH 600 0
DWIDTH 12 0
BBX 12 10 0 0
BITMAP
1BD2F4
3FFFFC
147E2D
06FD1E
2FFFFE
7E7FFE
BC3D00
BC7E04
7FFFFD
1F86F8
ENDCHAR
STARTCHAR uni04D6
ENCODING 1238
SWIDTH 600 0
DWIDTH 12 0
BBX 9 16 2 0
BITMAP
3E2F00
1BF900
000000
FFFF40
FFFF40
F80000
F80000
F80000
F80000
FFFE00
FFFE00
F80000
F80000
F80000
FFFF80
FFFF80
ENDCHAR
STARTCHAR uni04D7
ENCODING 1239
SWIDTH 600 0
DWIDTH 12 0
BBX 10 15 1 0
BITMAP
0F0B80
0F4F40
0BFF00
02F900
000000
06FE00
1FFF80
7F47D0
BD02E0
FFFFF0
FFFFF0
BD0000
7F4140
1FFFD0
06FE40
ENDCHAR
STARTCHAR uni04D8
ENCODING 1240
SWIDTH 600 0
DWIDTH 12 0
BBX 11 13 1 0
BITMAP
0BF900
1FFF80
091FD0
0007E0
0003F0
0002F0
FFFFF4
FFFFF0
FC03F0
BD03E0
7E0BD0
1FFF80
06F900
ENDCHAR
STARTCHAR uni04D9
ENCODING 1241
SWIDTH 600 0
DWIDTH 12 0
BBX 10 10 1 0
BITMAP
1BF900
3FFF80
141BD0
0007E0
FFFFF0
FFFFF0
BC07E0
7D0BD0
2FFF80
07F900
ENDCHAR
STARTCHAR uni04E2
ENCODING 1250
SWIDTH 600 0
DWIDTH 12 0
BBX 10 16 1 0
BITMAP
0FFF00
0FFF00
000000
BC0BE0
BC0FE0
BC1FE0
BC3FE0
BC7EE0
BCBAE0
B9F6E0
BAE3E0
BBD3E0
BFC3E0
BF43E0
BF03E0
BE03E0
ENDCHAR
STARTCHAR uni04E3
ENCODING 1251
SWIDTH 600 0
DWIDTH 12 0
BBX 10 14 1 0
BITMAP
0BFF40
0BFF40
000000
000000
BD07E0
BD0FE0
BD2FE0
BD7FE0
BDFBE0
BEF7E0
BFD7E0
BF87E0
BF07E0
BD07E0
ENDCHAR
STARTCHAR uni04E6
ENCODING 1254
SWIDTH 600 0
DWIDTH 12 0
BBX 12 17 0 0
BITMAP
0782D0
0BD7E0
0782D0
000000
01BE40
0BFFE0
1F82F4
2F41F8
3F00FC
7E00BD
7E00BD
7E00BD
3F00FC
2F41F8
1F82F4
0BFFE0
01BE40
ENDCHAR
STARTCHAR uni04E7
ENCODING 1255
SWIDTH 600 0
DWIDTH 12 0
BBX 10 15 1 0
BITMAP
1E0B40
2F5F80
1E0B40
000000
000000
06F900
2FFF80
7E0BD0
FD07F0
FC03F0
FC03F0
FD07F0
7E0BD0
2FFF80
06F900
ENDCHAR
STARTCHAR uni04E8
ENCODING 1256
SWIDTH 600 0
DWIDTH 12 0
BBX 12 13 0 0
BITMAP
01BE40
0BFFE0
1F82F4
2F00F8
3F00FC
7FFFFD
7FFFFD
7E00BC
3F00FC
2F41F8
1FC2F4
0BFFE0
01BE40
ENDCHAR
STARTCHAR uni04E9
ENCODING 1257
SWIDTH 600 0
DWIDTH 12 0
BBX 10 10 1 0
BITMAP
06F900
2FFF80
7E0BD0
FC03F0
FFFFF0
FFFFF0
FC03F0
7E0BD0
2FFF80
06F900
ENDCHAR
STARTCHAR uni04EE
ENCODING 1262
SWIDTH 600 0
DWIDTH 12 0
BBX 12 16 0 0
BITMAP
03FFD0
03FFD0
000000
7E00BD
3F40FC
1F81F8
0FC2F4
07D3E0
03E7D0
02FBC0
00FF80
00BF40
007E00
00BD00
0BF800
0FD000
ENDCHAR
STARTCHAR uni04EF
ENCODING 1263
SWIDTH 600 0
DWIDTH 12 0
BBX 11 18 1 -4
BITMAP
0BFF00
0BFF00
000000
000000
F802F4
BC03F0
7E07D0
2F0BC0
1F4F80
0F9F40
07DF00
03FE00
01FC00
00F800
01F400
07F000
7FD000
7E4000
ENDCHAR
STARTCHAR uni04F2
ENCODING 1266
SWIDTH 600 0
DWIDTH 12 0
BBX 12 18 0 0
BITMAP
002464
00BCB8
00F1E0
019180
000000
7E00BD
3F40FC
1F81F8
0FC2F4
07D3E0
03E7D0
02FBC0
00FF80
00BF40
007E00
00BD00
0BF800
0FD000
ENDCHAR
STARTCHAR uni04F3
ENCODING 1267
SWIDTH 600 0
DWIDTH 12 0
BBX 11 19 1 -4
BITMAP
009190
01E3D0
03C780
064600
000000
F802F4
BC03F0
7E07D0
2F0BC0
1F4F80
0F9F40
07DF00
03FE00
01FC00
00F800
01F400
07F000
7FD000
7E4000
ENDCHAR
STARTCHAR a.sups
ENCODING 7491
SWIDTH 600 0
DWIDTH 12 0
BBX 7 7 3 7
BITMAP
2F90
BFF0
11F0
2BF4
FFF4
FFF4
7EB4
ENDCHAR
STARTCHAR b.sups
ENCODING 7495
SWIDTH 600 0
DWIDTH 12 0
BBX 7 10 3 7
BITMAP
5000
F000
F000
FBD0
FFF0
F4B4
F0B8
F4F4
FFF0
EB90
ENDCHAR
STARTCHAR d.sups
ENCODING 7496
SWIDTH 600 0
DWIDTH 12 0
BBX 7 10 2 7
BITMAP
0014
003C
003C
0BBC
3FFC
7C3C
783C
7C7C
3FFC
1BAC
ENDCHAR
STARTCHAR e.sups
ENCODING 7497
SWIDTH 600 0
DWIDTH 12 0
BBX 8 7 2 7
BITMAP
0BE0
2FF8
3D2C
7FFD
3FFD
2FF8
0BE4
ENDCHAR
STARTCHAR g.sups
ENCODING 7501
SWIDTH 600 0
DWIDTH 12 0
BBX 8 10 2 4
BITMAP
0BFE
2FFE
3C74
2FF4
2FE0
3FF8
2FFE
782E
7FFD
1FE4
ENDCHAR
STARTCHAR k.sups
ENCODING 7503
SWIDTH 600 0
DWIDTH 12 0
BBX 7 10 3 7
BITMAP
A400
B400
B400
B4B4
B6D0
BF80
BFC0
BAE0
B4F4
6064
ENDCHAR
STARTCHAR m.sups
ENCODING 7504
SWIDTH 600 0
DWIDTH 12 0
BBX 10 7 1 7
BITMAP
E7D780
FFFFE0
F5F5F0
F0F0F0
F0F0F0
F0F0F0
F0F0F0
ENDCHAR
STARTCHAR o.sups
ENCODING 7506
SWIDTH 600 0
DWIDTH 12 0
BBX 8 7 2 7
BITMAP
0BE0
2FF8
7C3D
782D
7C3D
2FF8
0BE0
ENDCHAR
STARTCHAR p.sups
ENCODING 7510
SWIDTH 600 0
DWIDTH 12 0
BBX 7 9 3 5
BITMAP
F7D0
FFF0
F4B4
F0B8
F4F4
FFF0
FB90
F000
F000
ENDCHAR
STARTCHAR t.sups
ENCODING 7511
SWIDTH 600 0
DWIDTH 12 0
BBX 7 9 3 7
BITMAP
1D00
1D00
FFF0
FFF0
2D00
2D00
2E00
1FF0
0BE4
ENDCHAR
STARTCHAR u.sups
ENCODING 7512
SWIDTH 600 0
DWIDTH 12 0
BBX 6 7 3 7
BITMAP
F0F0
F0F0
F0F0
F0F0
F1F0
FFF0
7DB0
ENDCHAR
STARTCHAR v.sups
ENCODING 7515
SWIDTH 600 0
DWIDTH 12 0
BBX 8 7 2 7
BITMAP
B82D
7C3C
2D78
1EB4
0EF0
0BE0
07D0
ENDCHAR
STARTCHAR c.sups
ENCODING 7580
SWIDTH 600 0
DWIDTH 12 0
BBX 6 7 3 7
BITMAP
0BE0
3FE0
7C00
B800
7C10
3FF0
0BE0
ENDCHAR
STARTCHAR f.sups
ENCODING 7584
SWIDTH 600 0
DWIDTH 12 0
BBX 7 10 3 7
BITMAP
02F8
0BFC
0B40
7FF4
7FF4
0F40
0F40
0F40
0F40
0F40
ENDCHAR
STARTCHAR z.sups
ENCODING 7611
SWIDTH 600 0
DWIDTH 12 0
BBX 7 7 3 7
BITMAP
BFF4
BFF0
03C0
0F40
2D00
BFF4
FFF4
ENDCHAR
STARTCHAR uni1E06
ENCODING 7686
SWIDTH 600 0
DWIDTH 12 0
BBX 11 17 1 -4
BITMAP
BFFE40
BFFFD0
BD0BE0
BD07E0
BD0BD0
BFFE40
BFFF80
BD07F0
BD02F0
BD02F4
BD07F0
BFFFD0
BFFE40
000000
000000
0BFF00
0BFF00
ENDCHAR
STARTCHAR uni1E07
ENCODING 7687
SWIDTH 600 0
DWIDTH 12 0
BBX 10 18 1 -4
BITMAP
BD0000
BD0000
BD0000
BD0000
BDBE40
BFFFC0
BF4BE0
BD03F0
BD03F0
BD03F0
BD07F0
BF4BD0
BFFF80
BCBE00
000000
000000
0BFF00
0BFF00
ENDCHAR
STARTCHAR uni1E0C
ENCODING 7692
SWIDTH 600 0
DWIDTH 12 0
BBX 11 18 1 -5
BITMAP
BFF900
BFFF40
BD1FD0
BD07E0
BD03F0
BD02F4
BD02F4
BD02F4
BD03F0
BD07E0
BD1FD0
BFFF40
BFF900
000000
01F400
03FC00
03FC00
01F400
ENDCHAR
STARTCHAR uni1E0D
ENCODING 7693
SWIDTH 600 0
DWIDTH 12 0
BBX 10 19 1 -5
BITMAP
0007E0
0007E0
0007E0
0007E0
0BE7E0
2FFFE0
BE0BE0
FD07E0
FC07E0
FC07E0
FC07E0
BE1FE0
3FFFE0
0BE3E0
000000
01F400
02FC00
02FC00
01F400
ENDCHAR
STARTCHAR uni1E0E
ENCODING 7694
SWIDTH 600 0
DWIDTH 12 0
BBX 11 17 1 -4
BITMAP
BFF900
BFFF40
BD1FD0
BD07E0
BD03F0
BD02F4
BD02F4
BD02F4
BD03F0
BD07E0
BD1FD0
BFFF40
BFF900
000000
000000
0FFF00
0FFF00
ENDCHAR
STARTCHAR uni1E0F
ENCODING 7695
SWIDTH 600 0
DWIDTH 12 0
BBX 10 18 1 -4
BITMAP
0007E0
0007E0
0007E0
0007E0
0BE7E0
2FFFE0
BE0BE0
FD07E0
FC07E0
FC07E0
FC07E0
BE1FE0
3FFFE0
0BE3E0
000000
000000
0BFF00
0BFF00
ENDCHAR
STARTCHAR uni1E10
ENCODING 7696
SWIDTH 600 0
DWIDTH 12 0
BBX 11 18 1 -5
BITMAP
BFF900
BFFF40
BD1FD0
BD07E0
BD03F0
BD02F4
BD02F4
BD02F4
BD03F0
BD07E0
BD1FD0
BFFF40
BFF900
01D000
02E000
00B800
00B400
079000
ENDCHAR
STARTCHAR uni1E11
ENCODING 7697
SWIDTH 600 0
DWIDTH 12 0
BBX 10 19 1 -5
BITMAP
0007E0
0007E0
0007E0
0007E0
0BE7E0
2FFFE0
BE0BE0
FD07E0
FC07E0
FC07E0
FC07E0
BE1FE0
3FFFE0
0BE3E0
01D000
03E000
01F400
01F400
0B9000
ENDCHAR
STARTCHAR uni1E16
ENCODING 7702
SWIDTH 600 0
DWIDTH 12 0
BBX 9 20 2 0
BITMAP
002400
02F800
029000
000000
2FFD00
2FFD00
000000
FFFF40
FFFF40
F80000
F80000
F80000
F80000
FFFE00
FFFE00
F80000
F80000
F80000
FFFF80
FFFF80
ENDCHAR
STARTCHAR uni1E17
ENCODING 7703
SWIDTH 600 0
DWIDTH 12 0
BBX 10 18 1 0
BITMAP
001800
00BD00
00A000
000000
0BFF40
0BFF40
000000
000000
06FE00
1FFF80
7F47D0
BD02E0
FFFFF0
FFFFF0
BD0000
7F4140
1FFFD0
06FE40
ENDCHAR
STARTCHAR uni1E20
ENCODING 7712
SWIDTH 600 0
DWIDTH 12 0
BBX 10 16 1 0
BITMAP
07FF80
07FF80
000000
02BE40
1FFFD0
3F8280
BE0000
FD0000
FC0000
FC2FF0
FC2FF0
FD02F0
BE02F0
3F42F0
1FFFE0
02FE40
ENDCHAR
STARTCHAR uni1E21
ENCODING 7713
SWIDTH 600 0
DWIDTH 12 0
BBX 11 18 1 -4
BITMAP
0FFF00
0FFF00
000000
000000
06FFF4
2FFFF4
7E1F80
BD0F80
7E5F80
2FFF00
2EA800
7C0000
7FFF90
2FFFF4
B802F4
F906F4
BFFFD0
1BFA40
ENDCHAR
STARTCHAR uni1E24
ENCODING 7716
SWIDTH 600 0
DWIDTH 12 0
BBX 10 18 1 -5
BITMAP
BD07E0
BD07E0
BD07E0
BD07E0
BD07E0
BD07E0
BFFFE0
BFFFE0
BD07E0
BD07E0
BD07E0
BD07E0
BD07E0
000000
01F400
03FC00
03FC00
01F400
ENDCHAR
STARTCHAR uni1E25
ENCODING 7717
SWIDTH 600 0
DWIDTH 12 0
BBX 10 19 1 -5
BITMAP
BD0000
BD0000
BD0000
BD0000
BD7F40
BFFFD0
BF4BE0
BD07E0
BD03E0
BD03E0
BD03E0
BD03E0
BD03E0
BD03E0
000000
01F400
02FC00
02FC00
01F400
ENDCHAR
STARTCHAR uni1E26
ENCODING 7718
SWIDTH 600 0
DWIDTH 12 0
BBX 10 17 1 0
BITMAP
1E0B40
2F5F80
1E0B40
000000
BD07E0
BD07E0
BD07E0
BD07E0
BD07E0
BD07E0
BFFFE0
BFFFE0
BD07E0
BD07E0
BD07E0
BD07E0
BD07E0
ENDCHAR
STARTCHAR uni1E27
ENCODING 7719
SWIDTH 600 0
DWIDTH 12 0
BBX 12 18 -1 0
BITMAP
782D00
BC7E00
782D00
000000
0BD000
0BD000
0BD000
0BD000
0BD7F4
0BFFFD
0BF4BE
0BD07E
0BD03E
0BD03E
0BD03E
0BD03E
0BD03E
0BD03E
ENDCHAR
STARTCHAR uni1E28
ENCODING 7720
SWIDTH 600 0
DWIDTH 12 0
BBX 11 18 0 -5
BITMAP
2F41F8
2F41F8
2F41F8
2F41F8
2F41F8
2F41F8
2FFFF8
2FFFF8
2F41F8
2F41F8
2F41F8
2F41F8
2F41F8
1D0000
2F4000
0B8000
0B4000
790000
ENDCHAR
STARTCHAR uni1E29
ENCODING 7721
SWIDTH 600 0
DWIDTH 12 0
BBX 11 19 0 -5
BITMAP
2F4000
2F4000
2F4000
2F4000
2F5FD0
2FFFF4
2FD2F8
2F41F8
2F40F8
2F40F8
2F40F8
2F40F8
2F40F8
2F40F8
0E0000
2F4000
0B8000
0B8000
790000
ENDCHAR
STARTCHAR uni1E2A
ENCODING 7722
SWIDTH 600 0
DWIDTH 12 0
BBX 10 18 1 -5
BITMAP
BD07E0
BD07E0
BD07E0
BD07E0
BD07E0
BD07E0
BFFFE0
BFFFE0
BD07E0
BD07E0
BD07E0
BD07E0
BD07E0
000000
000000
1E0B40
0FFF00
02F800
ENDCHAR
STARTCHAR uni1E2B
ENCODING 7723
SWIDTH 600 0
DWIDTH 12 0
BBX 10 19 1 -5
BITMAP
BD0000
BD0000
BD0000
BD0000
BD7F40
BFFFD0
BF4BE0
BD07E0
BD03E0
BD03E0
BD03E0
BD03E0
BD03E0
BD03E0
000000
000100
0E0B40
0BFF00
02F900
ENDCHAR
STARTCHAR uni1E32
ENCODING 7730
SWIDTH 600 0
DWIDTH 12 0
BBX 11 18 1 -5
BITMAP
BD03F4
BD0BD0
BD2F80
BD7E00
BDFC00
BFF800
BFFD00
BFFF00
BF2F40
BD0FC0
BD0BE0
BD03F0
BD02F8
000000
00B800
01FD00
01FD00
00B800
ENDCHAR
STARTCHAR uni1E33
ENCODING 7731
SWIDTH 600 0
DWIDTH 12 0
BBX 11 19 1 -5
BITMAP
7D0000
7D0000
7D0000
7D0000
7D07F0
7D1FC0
7D3F40
7EFD00
7FFC00
7FFE00
7F6F40
7E0FC0
7D07E0
7D02F4
000000
00B800
01FD00
01FD00
00B800
ENDCHAR
STARTCHAR uni1E34
ENCODING 7732
SWIDTH 600 0
DWIDTH 12 0
BBX 11 17 1 -4
BITMAP
BD03F4
BD0BD0
BD2F80
BD7E00
BDFC00
BFF800
BFFD00
BFFF00
BF2F40
BD0FC0
BD0BE0
BD03F0
BD02F8
000000
000000
07FF40
07FF40
ENDCHAR
STARTCHAR uni1E35
ENCODING 7733
SWIDTH 600 0
DWIDTH 12 0
BBX 11 18 1 -4
BITMAP
7D0000
7D0000
7D0000
7D0000
7D07F0
7D1FC0
7D3F40
7EFD00
7FFC00
7FFE00
7F6F40
7E0FC0
7D07E0
7D02F4
000000
000000
07FF40
07FF40
ENDCHAR
STARTCHAR uni1E36
ENCODING 7734
SWIDTH 600 0
DWIDTH 12 0
BBX 9 18 2 -5
BITMAP
FC0000
FC0000
FC0000
FC0000
FC0000
FC0000
FC0000
FC0000
FC0000
FC0000
FC0000
FFFFC0
FFFFC0
000000
02E000
03F800
03F800
02E000
ENDCHAR
STARTCHAR uni1E37
ENCODING 7735
SWIDTH 600 0
DWIDTH 12 0
BBX 10 19 1 -5
BITMAP
FFF000
FFF000
03F000
03F000
03F000
03F000
03F000
03F000
03F000
03F000
02F000
02F800
00FFE0
006FE0
000000
002E00
00BF40
00BF40
002E00
ENDCHAR
STARTCHAR uni1E38
ENCODING 7736
SWIDTH 600 0
DWIDTH 12 0
BBX 10 21 1 -5
BITMAP
FFF000
FFF000
000000
3F0000
3F0000
3F0000
3F0000
3F0000
3F0000
3F0000
3F0000
3F0000
3F0000
3F0000
3FFFF0
3FFFF0
000000
00B800
00FE00
00FE00
00B800
ENDCHAR
STARTCHAR uni1E39
ENCODING 7737
SWIDTH 600 0
DWIDTH 12 0
BBX 10 22 1 -5
BITMAP
2FFE00
2FFE00
000000
FFF000
FFF000
03F000
03F000
03F000
03F000
03F000
03F000
03F000
03F000
02F000
02F800
00FFE0
006FE0
000000
002E00
00BF40
00BF40
002E00
ENDCHAR
STARTCHAR uni1E3A
ENCODING 7738
SWIDTH 600 0
DWIDTH 12 0
BBX 9 17 2 -4
BITMAP
FC0000
FC0000
FC0000
FC0000
FC0000
FC0000
FC0000
FC0000
FC0000
FC0000
FC0000
FFFFC0
FFFFC0
000000
000000
1FFE00
1FFE00
ENDCHAR
STARTCHAR uni1E3B
ENCODING 7739
SWIDTH 600 0
DWIDTH 12 0
BBX 10 18 1 -4
BITMAP
FFF000
FFF000
03F000
03F000
03F000
03F000
03F000
03F000
03F000
03F000
02F000
02F800
00FFE0
006FE0
000000
000000
02FFD0
02FFD0
ENDCHAR
STARTCHAR uni1E3E
ENCODING 7742
SWIDTH 600 0
DWIDTH 12 0
BBX 10 18 1 0
BITMAP
001800
00BE00
02F800
019000
000000
FD07F0
FE0BF0
FF0FF0
FF5FF0
FB5EF0
F7ADF0
F6FAF0
F9F6F0
F8F2F0
F852F0
F802F0
F802F0
F802F0
ENDCHAR
STARTCHAR uni1E3F
ENCODING 7743
SWIDTH 600 0
DWIDTH 12 0
BBX 12 16 0 0
BITMAP
000240
0007D0
001FD0
003F40
001800
000000
7CB5F8
7FFFFD
7F7E7D
7E3D7D
7E3D7D
7E3D7D
7E3D7D
7E3D7D
7E3D7D
7E3D7D
ENDCHAR
STARTCHAR uni1E40
ENCODING 7744
SWIDTH 600 0
DWIDTH 12 0
BBX 10 17 1 0
BITMAP
01F400
02F800
01F400
000000
FD07F0
FE0BF0
FF0FF0
FF5FF0
FB5EF0
F7ADF0
F6FAF0
F9F6F0
F8F2F0
F852F0
F802F0
F802F0
F802F0
ENDCHAR
STARTCHAR uni1E41
ENCODING 7745
SWIDTH 600 0
DWIDTH 12 0
BBX 12 15 0 0
BITMAP
002E00
007F40
007F40
002E00
000000
7CB5F8
7FFFFD
7F7E7D
7E3D7D
7E3D7D
7E3D7D
7E3D7D
7E3D7D
7E3D7D
7E3D7D
ENDCHAR
STARTCHAR uni1E42
ENCODING 7746
SWIDTH 600 0
DWIDTH 12 0
BBX 10 18 1 -5
BITMAP
FD07F0
FE0BF0
FF0FF0
FF5FF0
FB5EF0
F7ADF0
F6FAF0
F9F6F0
F8F2F0
F852F0
F802F0
F802F0
F802F0
000000
01F400
03FC00
03FC00
01F400
ENDCHAR
STARTCHAR uni1E43
ENCODING 7747
SWIDTH 600 0
DWIDTH 12 0
BBX 12 15 0 -5
BITMAP
7CB5F8
7FFFFD
7F7E7D
7E3D7D
7E3D7D
7E3D7D
7E3D7D
7E3D7D
7E3D7D
7E3D7D
000000
007D00
00BF00
00BF00
007D00
ENDCHAR
STARTCHAR uni1E44
ENCODING 7748
SWIDTH 600 0
DWIDTH 12 0
BBX 10 17 1 0
BITMAP
01F400
02FC00
01F400
000000
BE03E0
BF03E0
BF43E0
BF83E0
BBD3E0
BDE3E0
BCF3E0
BCB7E0
BC7EE0
BC2FE0
BC1FE0
BC0FE0
BC0BE0
ENDCHAR
STARTCHAR uni1E45
ENCODING 7749
SWIDTH 600 0
DWIDTH 12 0
BBX 10 15 1 0
BITMAP
00B800
02FC00
02FC00
00B800
000000
BC7F40
BEFFD0
BF4BE0
BD07E0
BD03E0
BD03E0
BD03E0
BD03E0
BD03E0
BD03E0
ENDCHAR
STARTCHAR uni1E46
ENCODING 7750
SWIDTH 600 0
DWIDTH 12 0
BBX 10 18 1 -5
BITMAP
BE03E0
BF03E0
BF43E0
BF83E0
BBD3E0
BDE3E0
BCF3E0
BCB7E0
BC7EE0
BC2FE0
BC1FE0
BC0FE0
BC0BE0
000000
01F400
03FC00
03FC00
01F400
ENDCHAR
STARTCHAR uni1E47
ENCODING 7751
SWIDTH 600 0
DWIDTH 12 0
BBX 10 15 1 -5
BITMAP
BC7F40
BEFFD0
BF4BE0
BD07E0
BD03E0
BD03E0
BD03E0
BD03E0
BD03E0
BD03E0
000000
01F400
02FC00
02FC00
01F400
ENDCHAR
STARTCHAR uni1E48
ENCODING 7752
SWIDTH 600 0
DWIDTH 12 0
BBX 10 17 1 -4
BITMAP
BE03E0
BF03E0
BF43E0
BF83E0
BBD3E0
BDE3E0
BCF3E0
BCB7E0
BC7EE0
BC2FE0
BC1FE0
BC0FE0
BC0BE0
000000
000000
0FFF00
0FFF00
ENDCHAR
STARTCHAR uni1E49
ENCODING 7753
SWIDTH 600 0
DWIDTH 12 0
BBX 10 14 1 -4
BITMAP
BC7F40
BEFFD0
BF4BE0
BD07E0
BD03E0
BD03E0
BD03E0
BD03E0
BD03E0
BD03E0
000000
000000
0BFF00
0BFF00
ENDCHAR
STARTCHAR uni1E52
ENCODING 7762
SWIDTH 600 0
DWIDTH 12 0
BBX 12 20 0 0
BITMAP
000600
006F40
002400
000000
03FFC0
03FFC0
000000
01BE40
0BFFE0
1F82F4
2F41F8
3F00FC
7E00BD
7E00BD
7E00BD
3F00FC
2F41F8
1F82F4
0BFFE0
01BE40
ENDCHAR
STARTCHAR uni1E53
ENCODING 7763
SWIDTH 600 0
DWIDTH 12 0
BBX 10 18 1 0
BITMAP
001800
00BD00
009000
000000
0FFF00
0FFF00
000000
000000
06F900
2FFF80
7E0BD0
FD07F0
FC03F0
FC03F0
FD07F0
7E0BD0
2FFF80
06F900
ENDCHAR
STARTCHAR uni1E58
ENCODING 7768
SWIDTH 600 0
DWIDTH 12 0
BBX 11 17 1 0
BITMAP
01F400
02F800
01F400
000000
BFFE40
BFFFD0
BD07E0
BD03F0
BD03F0
BD0BE0
BFFFD0
BFFF00
BD3F40
BD1F80
BD0FD0
BD07F0
BD03F4
ENDCHAR
STARTCHAR uni1E59
ENCODING 7769
SWIDTH 600 0
DWIDTH 12 0
BBX 9 15 2 0
BITMAP
01F400
03FC00
03FC00
01F400
000000
B86F80
BDFF80
BF9000
BE0000
BD0000
BD0000
BD0000
BD0000
BD0000
BD0000
ENDCHAR
STARTCHAR uni1E5A
ENCODING 7770
SWIDTH 600 0
DWIDTH 12 0
BBX 11 18 1 -5
BITMAP
BFFE40
BFFFD0
BD07E0
BD03F0
BD03F0
BD0BE0
BFFFD0
BFFF00
BD3F40
BD1F80
BD0FD0
BD07F0
BD03F4
000000
00B800
01FD00
01FD00
00B800
ENDCHAR
STARTCHAR uni1E5B
ENCODING 7771
SWIDTH 600 0
DWIDTH 12 0
BBX 9 15 2 -5
BITMAP
B86F80
BDFF80
BF9000
BE0000
BD0000
BD0000
BD0000
BD0000
BD0000
BD0000
000000
7D0000
FE0000
FE0000
7D0000
ENDCHAR
STARTCHAR uni1E5C
ENCODING 7772
SWIDTH 600 0
DWIDTH 12 0
BBX 11 21 1 -5
BITMAP
0FFF00
0FFF00
000000
BFFE40
BFFFD0
BD07E0
BD03F0
BD03F0
BD0BE0
BFFFD0
BFFF00
BD3F40
BD1F80
BD0FD0
BD07F0
BD03F4
000000
00B800
01FD00
01FD00
00B800
ENDCHAR
STARTCHAR uni1E5D
ENCODING 7773
SWIDTH 600 0
DWIDTH 12 0
BBX 9 19 2 -5
BITMAP
0FFF00
0FFF00
000000
000000
B86F80
BDFF80
BF9000
BE0000
BD0000
BD0000
BD0000
BD0000
BD0000
BD0000
000000
7D0000
FE0000
FE0000
7D0000
ENDCHAR
STARTCHAR uni1E5E
ENCODING 7774
SWIDTH 600 0
DWIDTH 12 0
BBX 11 17 1 -4
BITMAP
BFFE40
BFFFD0
BD07E0
BD03F0
BD03F0
BD0BE0
BFFFD0
BFFF00
BD3F40
BD1F80
BD0FD0
BD07F0
BD03F4
000000
000000
0BFF40
0BFF40
ENDCHAR
STARTCHAR uni1E5F
ENCODING 7775
SWIDTH 600 0
DWIDTH 12 0
BBX 10 14 1 -4
BITMAP
2E1BE0
2F7FE0
2FE400
2F8000
2F4000
2F4000
2F4000
2F4000
2F4000
2F4000
000000
000000
FFF000
FFF000
ENDCHAR
STARTCHAR uni1E60
ENCODING 7776
SWIDTH 600 0
DWIDTH 12 0
BBX 10 17 1 0
BITMAP
00B800
01FC00
00B800
000000
06FE40
2FFFD0
7E0680
7E0000
7F4000
3FF800
0BFF80
01BFE0
000BF0
0003F0
3D07E0
BFFFC0
1BFE00
ENDCHAR
STARTCHAR uni1E61
ENCODING 7777
SWIDTH 600 0
DWIDTH 12 0
BBX 10 15 1 0
BITMAP
00B400
02FC00
02FC00
00B800
000000
06FE40
2FFFD0
7E0680
7F5000
2FFE40
06FFD0
001BE0
7907E0
BFFFD0
1BFE00
ENDCHAR
STARTCHAR uni1E62
ENCODING 7778
SWIDTH 600 0
DWIDTH 12 0
BBX 10 18 1 -5
BITMAP
06FE40
2FFFD0
7E0680
7E0000
7F4000
3FF800
0BFF80
01BFE0
000BF0
0003F0
3D07E0
BFFFC0
1BFE00
000000
01F400
02FC00
02FC00
01F400
ENDCHAR
STARTCHAR uni1E63
ENCODING 7779
SWIDTH 600 0
DWIDTH 12 0
BBX 10 15 1 -5
BITMAP
06FE40
2FFFD0
7E0680
7F5000
2FFE40
06FFD0
001BE0
7907E0
BFFFD0
1BFE00
000000
01F400
02FC00
02FC00
01F400
ENDCHAR
STARTCHAR uni1E6C
ENCODING 7788
SWIDTH 600 0
DWIDTH 12 0
BBX 12 18 0 -5
BITMAP
7FFFFD
7FFFFD
007D00
007D00
007D00
007D00
007D00
007D00
007D00
007D00
007D00
007D00
007D00
000000
007D00
00FF00
00FF00
007D00
ENDCHAR
STARTCHAR uni1E6D
ENCODING 7789
SWIDTH 600 0
DWIDTH 12 0
BBX 10 18 1 -5
BITMAP
03D000
07D000
07D000
FFFFE0
FFFFE0
0BD000
0BD000
0BD000
0BD000
07E000
07F400
02FFE0
00BFE0
000000
002E00
007F40
00BF40
002E00
ENDCHAR
STARTCHAR uni1E6E
ENCODING 7790
SWIDTH 600 0
DWIDTH 12 0
BBX 12 17 0 -4
BITMAP
7FFFFD
7FFFFD
007D00
007D00
007D00
007D00
007D00
007D00
007D00
007D00
007D00
007D00
007D00
000000
000000
03FFC0
03FFC0
ENDCHAR
STARTCHAR uni1E6F
ENCODING 7791
SWIDTH 600 0
DWIDTH 12 0
BBX 10 17 1 -4
BITMAP
03D000
07D000
07D000
FFFFE0
FFFFE0
0BD000
0BD000
0BD000
0BD000
07E000
07F400
02FFE0
00BFE0
000000
000000
02FFD0
02FFD0
ENDCHAR
STARTCHAR uni1E7E
ENCODING 7806
SWIDTH 600 0
DWIDTH 12 0
BBX 12 18 0 -5
BITMAP
BE007E
7E00BD
3F00FC
2F41F8
1F81F4
0FC2F0
0BC3E0
07D7D0
03EBC0
02FBC0
02FF80
01FF40
00FF00
000000
007D00
00FF00
00FF00
007D00
ENDCHAR
STARTCHAR uni1E7F
ENCODING 7807
SWIDTH 600 0
DWIDTH 12 0
BBX 12 15 0 -5
BITMAP
7E00BD
2F00F8
1F41F4
0F82F0
0BC3E0
07D7D0
03EBC0
02FB80
01FF40
00BF00
000000
007D00
00FF00
00FF00
007D00
ENDCHAR
STARTCHAR Wgrave
ENCODING 7808
SWIDTH 600 0
DWIDTH 12 0
BBX 12 18 0 0
BITMAP
009000
02F800
00BE00
001900
000000
FD003F
BD003E
BD003E
7D283D
7D3D7D
7D7E7D
3EBE7C
3EBF7C
2EEBBC
2EE7B8
2FD7F8
1FC3F4
1FC3F4
ENDCHAR
STARTCHAR wgrave
ENCODING 7809
SWIDTH 600 0
DWIDTH 12 0
BBX 12 16 0 0
BITMAP
008000
03E000
02F800
00BD00
001800
000000
FC003F
BC283E
BD7D3E
7D7E7D
7EBE7D
3EAB7C
3EEBBC
2FE7F8
2FD7F8
1FD3F4
ENDCHAR
STARTCHAR Wacute
ENCODING 7810
SWIDTH 600 0
DWIDTH 12 0
BBX 12 18 0 0
BITMAP
000600
002F80
00BE00
006400
000000
FD003F
BD003E
BD003E
7D283D
7D3D7D
7D7E7D
3EBE7C
3EBF7C
2EEBBC
2EE7B8
2FD7F8
1FC3F4
1FC3F4
ENDCHAR
STARTCHAR wacute
ENCODING 7811
SWIDTH 600 0
DWIDTH 12 0
BBX 12 16 0 0
BITMAP
000200
000BC0
002F80
007E00
002400
000000
FC003F
BC283E
BD7D3E
7D7E7D
7EBE7D
3EAB7C
3EEBBC
2FE7F8
2FD7F8
1FD3F4
ENDCHAR
STARTCHAR Wdieresis
ENCODING 7812
SWIDTH 600 0
DWIDTH 12 0
BBX 12 17 0 0
BITMAP
0782D0
0BD7E0
0782D0
000000
FD003F
BD003E
BD003E
7D283D
7D3D7D
7D7E7D
3EBE7C
3EBF7C
2EEBBC
2EE7B8
2FD7F8
1FC3F4
1FC3F4
ENDCHAR
STARTCHAR wdieresis
ENCODING 7813
SWIDTH 600 0
DWIDTH 12 0
BBX 12 15 0 0
BITMAP
0782D0
0BD7E0
0782D0
000000
000000
FC003F
BC283E
BD7D3E
7D7E7D
7EBE7D
3EAB7C
3EEBBC
2FE7F8
2FD7F8
1FD3F4
ENDCHAR
STARTCHAR uni1E8E
ENCODING 7822
SWIDTH 600 0
DWIDTH 12 0
BBX 12 17 0 0
BITMAP
007D00
00BE00
007D00
000000
7E00BD
3F00FC
1F81F4
0FC3F0
07D7D0
03EBC0
02FF80
00FF00
00BE00
007D00
007D00
007D00
007D00
ENDCHAR
STARTCHAR uni1E8F
ENCODING 7823
SWIDTH 600 0
DWIDTH 12 0
BBX 11 19 1 -4
BITMAP
01F400
02FC00
02FC00
01F400
000000
F802F4
BC03F0
7E07D0
2F0BC0
1F4F80
0F9F40
07DF00
03FE00
01FC00
00F800
01F400
07F000
7FD000
7E4000
ENDCHAR
STARTCHAR uni1E90
ENCODING 7824
SWIDTH 600 0
DWIDTH 12 0
BBX 10 17 1 0
BITMAP
02FD00
07DF40
0A0640
000000
7FFFF0
7FFFE0
000FC0
002F40
007E00
00FD00
02F800
07F000
0FD000
1F8000
3F0000
BFFFF0
FFFFF0
ENDCHAR
STARTCHAR uni1E91
ENCODING 7825
SWIDTH 600 0
DWIDTH 12 0
BBX 10 15 1 0
BITMAP
01FD00
03FF40
0B8BC0
060280
000000
3FFFE0
3FFFD0
002F80
00BF00
01FD00
03F400
0FE000
2F8000
7FFFE0
BFFFE0
ENDCHAR
STARTCHAR uni1E92
ENCODING 7826
SWIDTH 600 0
DWIDTH 12 0
BBX 10 18 1 -5
BITMAP
7FFFF0
7FFFE0
000FC0
002F40
007E00
00FD00
02F800
07F000
0FD000
1F8000
3F0000
BFFFF0
FFFFF0
000000
00B400
02FC00
02FC00
01F400
ENDCHAR
STARTCHAR uni1E93
ENCODING 7827
SWIDTH 600 0
DWIDTH 12 0
BBX 10 15 1 -5
BITMAP
3FFFE0
3FFFD0
002F80
00BF00
01FD00
03F400
0FE000
2F8000
7FFFE0
BFFFE0
000000
00B400
02FC00
02FC00
01F400
ENDCHAR
STARTCHAR uni1E94
ENCODING 7828
SWIDTH 600 0
DWIDTH 12 0
BBX 10 17 1 -4
BITMAP
7FFFF0
7FFFE0
000FC0
002F40
007E00
00FD00
02F800
07F000
0FD000
1F8000
3F0000
BFFFF0
FFFFF0
000000
000000
0BFF00
0BFF00
ENDCHAR
STARTCHAR uni1E95
ENCODING 7829
SWIDTH 600 0
DWIDTH 12 0
BBX 10 14 1 -4
BITMAP
3FFFE0
3FFFD0
002F80
00BF00
01FD00
03F400
0FE000
2F8000
7FFFE0
BFFFE0
000000
000000
0BFF40
0BFF40
ENDCHAR
STARTCHAR uni1E96
ENCODING 7830
SWIDTH 600 0
DWIDTH 12 0
BBX 10 18 1 -4
BITMAP
BD0000
BD0000
BD0000
BD0000
BD7F40
BFFFD0
BF4BE0
BD07E0
BD03E0
BD03E0
BD03E0
BD03E0
BD03E0
BD03E0
000000
000000
0BFF00
0BFF00
ENDCHAR
STARTCHAR uni1E97
ENCODING 7831
SWIDTH 600 0
DWIDTH 12 0
BBX 10 18 1 0
BITMAP
3D2E00
7E3F00
3D2E00
000000
000000
03D000
07D000
07D000
FFFFE0
FFFFE0
0BD000
0BD000
0BD000
0BD000
07E000
07F400
02FFE0
00BFE0
ENDCHAR
STARTCHAR uni1E9E
ENCODING 7838
SWIDTH 600 0
DWIDTH 12 0
BBX 11 13 1 0
BITMAP
06F900
2FFF80
7E0BD0
BD0BD0
BD1F80
BD3F40
BD3FD0
BD2FF0
BD03F4
BD02F8
BD52F4
BDFFF0
BD6F80
ENDCHAR
STARTCHAR uni1EA0
ENCODING 7840
SWIDTH 600 0
DWIDTH 12 0
BBX 12 18 0 -5
BITMAP
00FF00
01FF40
02FF80
03EBC0
07DBC0
07C7D0
0BC3E0
0F82F0
1FFFF4
2FFFF8
3F00FC
7E00BD
BD007E
000000
007D00
00FF00
00FF00
007D00
ENDCHAR
STARTCHAR uni1EA1
ENCODING 7841
SWIDTH 600 0
DWIDTH 12 0
BBX 10 15 1 -5
BITMAP
1AFE00
7FFF80
291FD0
0007E0
06BFE0
3FFFE0
BE47E0
BD1BE0
7FFFE0
1FE2E0
000000
01F400
03FC00
03FC00
01F400
ENDCHAR
STARTCHAR uni1EA2
ENCODING 7842
SWIDTH 600 0
DWIDTH 12 0
BBX 12 17 0 0
BITMAP
00B900
001F00
003900
000000
00FF00
01FF40
02FF80
03EBC0
07DBC0
07C7D0
0BC3E0
0F82F0
1FFFF4
2FFFF8
3F00FC
7E00BD
BD007E
ENDCHAR
STARTCHAR uni1EA3
ENCODING 7843
SWIDTH 600 0
DWIDTH 12 0
BBX 10 16 1 0
BITMAP
01E400
01FC00
007D00
003C00
00A400
000000
1AFE00
7FFF80
291FD0
0007E0
06BFE0
3FFFE0
BE47E0
BD1BE0
7FFFE0
1FE2E0
ENDCHAR
STARTCHAR uni1EA4
ENCODING 7844
SWIDTH 600 0
DWIDTH 12 0
BBX 12 18 0 0
BITMAP
000018
00BE78
02EBE0
028280
000000
00FF00
01FF40
02FF80
03EBC0
07DBC0
07C7D0
0BC3E0
0F82F0
1FFFF4
2FFFF8
3F00FC
7E00BD
BD007E
ENDCHAR
STARTCHAR uni1EA5
ENCODING 7845
SWIDTH 600 0
DWIDTH 12 0
BBX 11 16 1 0
BITMAP
000024
0000B4
01FD90
07EF00
064600
000000
1AFE00
7FFF80
291FD0
0007E0
06BFE0
3FFFE0
BE47E0
BD1BE0
7FFFE0
1FE2E0
ENDCHAR
STARTCHAR uni1EA6
ENCODING 7846
SWIDTH 600 0
DWIDTH 12 0
BBX 12 18 0 0
BITMAP
140000
2DBE00
0BEB80
028280
000000
00FF00
01FF40
02FF80
03EBC0
07DBC0
07C7D0
0BC3E0
0F82F0
1FFFF4
2FFFF8
3F00FC
7E00BD
BD007E
ENDCHAR
STARTCHAR uni1EA7
ENCODING 7847
SWIDTH 600 0
DWIDTH 12 0
BBX 10 16 1 0
BITMAP
A00000
B40000
29FC00
07EF00
064600
000000
1AFE00
7FFF80
291FD0
0007E0
06BFE0
3FFFE0
BE47E0
BD1BE0
7FFFE0
1FE2E0
ENDCHAR
STARTCHAR uni1EA8
ENCODING 7848
SWIDTH 600 0
DWIDTH 12 0
BBX 12 18 0 0
BITMAP
0000F4
00BE3C
02EBF4
028280
000000
00FF00
01FF40
02FF80
03EBC0
07DBC0
07C7D0
0BC3E0
0F82F0
1FFFF4
2FFFF8
3F00FC
7E00BD
BD007E
ENDCHAR
STARTCHAR uni1EA9
ENCODING 7849
SWIDTH 600 0
DWIDTH 12 0
BBX 11 16 1 0
BITMAP
0002E0
0000B4
01FCE0
07EF00
064600
000000
1AFE00
7FFF80
291FD0
0007E0
06BFE0
3FFFE0
BE47E0
BD1BE0
7FFFE0
1FE2E0
ENDCHAR
STARTCHAR uni1EAA
ENCODING 7850
SWIDTH 600 0
DWIDTH 12 0
BBX 12 21 0 0
BITMAP
004000
01F6C0
03FF80
024B40
00BE00
02FF80
028280
000000
00FF00
01FF40
02FF80
03EBC0
07DBC0
07C7D0
0BC3E0
0F82F0
1FFFF4
2FFFF8
3F00FC
7E00BD
BD007E
ENDCHAR
STARTCHAR uni1EAB
ENCODING 7851
SWIDTH 600 0
DWIDTH 12 0
BBX 10 17 1 0
BITMAP
03E740
07FF00
062E00
01FC00
07FF00
024600
000000
1AFE00
7FFF80
291FD0
0007E0
06BFE0
3FFFE0
BE47E0
BD1BE0
7FFFE0
1FE2E0
ENDCHAR
STARTCHAR uni1EAC
ENCODING 7852
SWIDTH 600 0
DWIDTH 12 0
BBX 12 22 0 -5
BITMAP
00FF00
02EB80
024180
000000
00FF00
01FF40
02FF80
03EBC0
07DBC0
07C7D0
0BC3E0
0F82F0
1FFFF4
2FFFF8
3F00FC
7E00BD
BD007E
000000
007D00
00FF00
00FF00
007D00
ENDCHAR
STARTCHAR uni1EAD
ENCODING 7853
SWIDTH 600 0
DWIDTH 12 0
BBX 10 20 1 -5
BITMAP
01FD00
07FF00
0F8B80
090240
000000
1AFE00
7FFF80
291FD0
0007E0
06BFE0
3FFFE0
BE47E0
BD1BE0
7FFFE0
1FE2E0
000000
01F400
03FC00
03FC00
01F400
ENDCHAR
STARTCHAR uni1EAE
ENCODING 7854
SWIDTH 600 0
DWIDTH 12 0
BBX 12 21 0 0
BITMAP
000A00
001F40
002E00
001800
0382C0
02FF80
00BE00
000000
00FF00
01FF40
02FF80
03EBC0
07DBC0
07C7D0
0BC3E0
0F82F0
1FFFF4
2FFFF8
3F00FC
7E00BD
BD007E
ENDCHAR
STARTCHAR uni1EAF
ENCODING 7855
SWIDTH 600 0
DWIDTH 12 0
BBX 10 18 1 0
BITMAP
000800
002E00
007C00
006000
0F4780
0BFF40
02FD00
000000
1AFE00
7FFF80
291FD0
0007E0
06BFE0
3FFFE0
BE47E0
BD1BE0
7FFFE0
1FE2E0
ENDCHAR
STARTCHAR uni1EB0
ENCODING 7856
SWIDTH 600 0
DWIDTH 12 0
BBX 12 21 0 0
BITMAP
00A000
01F400
00B800
002400
0382C0
02FF80
00BE00
000000
00FF00
01FF40
02FF80
03EBC0
07DBC0
07C7D0
0BC3E0
0F82F0
1FFFF4
2FFFF8
3F00FC
7E00BD
BD007E
ENDCHAR
STARTCHAR uni1EB1
ENCODING 7857
SWIDTH 600 0
DWIDTH 12 0
BBX 10 18 1 0
BITMAP
008000
02E000
01F400
006000
0F4780
0BFF40
02FD00
000000
1AFE00
7FFF80
291FD0
0007E0
06BFE0
3FFFE0
BE47E0
BD1BE0
7FFFE0
1FE2E0
ENDCHAR
STARTCHAR uni1EB2
ENCODING 7858
SWIDTH 600 0
DWIDTH 12 0
BBX 12 20 0 0
BITMAP
007800
001E00
002900
0382C0
02FF80
00BE00
000000
00FF00
01FF40
02FF80
03EBC0
07DBC0
07C7D0
0BC3E0
0F82F0
1FFFF4
2FFFF8
3F00FC
7E00BD
BD007E
ENDCHAR
STARTCHAR uni1EB3
ENCODING 7859
SWIDTH 600 0
DWIDTH 12 0
BBX 10 18 1 0
BITMAP
00E400
00FC00
003C00
006400
0F4780
0BFF40
02FD00
000000
1AFE00
7FFF80
291FD0
0007E0
06BFE0
3FFFE0
BE47E0
BD1BE0
7FFFE0
1FE2E0
ENDCHAR
STARTCHAR uni1EB4
ENCODING 7860
SWIDTH 600 0
DWIDTH 12 0
BBX 12 21 0 0
BITMAP
004000
01F6C0
03FF80
024B40
000000
0382C0
01BE40
000000
00FF00
01FF40
02FF80
03EBC0
07DBC0
07C7D0
0BC3E0
0F82F0
1FFFF4
2FFFF8
3F00FC
7E00BD
BD007E
ENDCHAR
STARTCHAR uni1EB5
ENCODING 7861
SWIDTH 600 0
DWIDTH 12 0
BBX 10 17 1 0
BITMAP
03E740
07FF40
0B2E00
0B4740
02FD00
000000
000000
1AFE00
7FFF80
291FD0
0007E0
06BFE0
3FFFE0
BE47E0
BD1BE0
7FFFE0
1FE2E0
ENDCHAR
STARTCHAR uni1EB6
ENCODING 7862
SWIDTH 600 0
DWIDTH 12 0
BBX 12 22 0 -5
BITMAP
0382C0
03FFC0
00BE00
000000
00FF00
01FF40
02FF80
03EBC0
07DBC0
07C7D0
0BC3E0
0F82F0
1FFFF4
2FFFF8
3F00FC
7E00BD
BD007E
000000
007D00
00FF00
00FF00
007D00
ENDCHAR
STARTCHAR uni1EB7
ENCODING 7863
SWIDTH 600 0
DWIDTH 12 0
BBX 10 20 1 -5
BITMAP
010100
0F4780
0BFF40
02FD00
000000
1AFE00
7FFF80
291FD0
0007E0
06BFE0
3FFFE0
BE47E0
BD1BE0
7FFFE0
1FE2E0
000000
01F400
03FC00
03FC00
01F400
ENDCHAR
STARTCHAR uni1EB8
ENCODING 7864
SWIDTH 600 0
DWIDTH 12 0
BBX 9 18 2 -5
BITMAP
FFFF40
FFFF40
F80000
F80000
F80000
F80000
FFFE00
FFFE00
F80000
F80000
F80000
FFFF80
FFFF80
000000
02E000
07F400
07F400
02E000
ENDCHAR
STARTCHAR uni1EB9
ENCODING 7865
SWIDTH 600 0
DWIDTH 12 0
BBX 10 15 1 -5
BITMAP
06FE00
1FFF80
7F47D0
BD02E0
FFFFF0
FFFFF0
BD0000
7F4140
1FFFD0
06FE40
000000
00B400
02FC00
02FC00
00B800
ENDCHAR
STARTCHAR uni1EBA
ENCODING 7866
SWIDTH 600 0
DWIDTH 12 0
BBX 9 17 2 0
BITMAP
07E000
00F400
02E000
000000
FFFF40
FFFF40
F80000
F80000
F80000
F80000
FFFE00
FFFE00
F80000
F80000
F80000
FFFF80
FFFF80
ENDCHAR
STARTCHAR uni1EBB
ENCODING 7867
SWIDTH 600 0
DWIDTH 12 0
BBX 10 16 1 0
BITMAP
01E000
02FC00
007C00
007C00
00A400
000000
06FE00
1FFF80
7F47D0
BD02E0
FFFFF0
FFFFF0
BD0000
7F4140
1FFFD0
06FE40
ENDCHAR
STARTCHAR uni1EBC
ENCODING 7868
SWIDTH 600 0
DWIDTH 12 0
BBX 9 17 2 0
BITMAP
1F8A40
7FFF00
64BD00
000000
FFFF40
FFFF40
F80000
F80000
F80000
F80000
FFFE00
FFFE00
F80000
F80000
F80000
FFFF80
FFFF80
ENDCHAR
STARTCHAR uni1EBD
ENCODING 7869
SWIDTH 600 0
DWIDTH 12 0
BBX 10 14 1 0
BITMAP
0BE3C0
1FFF80
192E00
000000
06FE00
1FFF80
7F47D0
BD02E0
FFFFF0
FFFFF0
BD0000
7F4140
1FFFD0
06FE40
ENDCHAR
STARTCHAR uni1EBE
ENCODING 7870
SWIDTH 600 0
DWIDTH 12 0
BBX 10 18 2 0
BITMAP
000080
07F7D0
0FBF40
191800
000000
FFFF40
FFFF40
F80000
F80000
F80000
F80000
FFFE00
FFFE00
F80000
F80000
F80000
FFFF80
FFFF80
ENDCHAR
STARTCHAR uni1EBF
ENCODING 7871
SWIDTH 600 0
DWIDTH 12 0
BBX 11 16 1 0
BITMAP
000024
0000B4
01F990
07EE00
060600
000000
06FE00
1FFF80
7F47D0
BD02E0
FFFFF0
FFFFF0
BD0000
7F4140
1FFFD0
06FE40
ENDCHAR
STARTCHAR uni1EC0
ENCODING 7872
SWIDTH 600 0
DWIDTH 12 0
BBX 10 18 1 0
BITMAP
200000
79FD00
1FEF00
064600
000000
3FFFD0
3FFFD0
3E0000
3E0000
3E0000
3E0000
3FFF80
3FFF80
3E0000
3E0000
3E0000
3FFFE0
3FFFE0
ENDCHAR
STARTCHAR uni1EC1
ENCODING 7873
SWIDTH 600 0
DWIDTH 12 0
BBX 10 16 1 0
BITMAP
A00000
B40000
25F800
07EE00
060600
000000
06FE00
1FFF80
7F47D0
BD02E0
FFFFF0
FFFFF0
BD0000
7F4140
1FFFD0
06FE40
ENDCHAR
STARTCHAR uni1EC2
ENCODING 7874
SWIDTH 600 0
DWIDTH 12 0
BBX 10 18 2 0
BITMAP
000B80
07F6D0
0FBF80
191800
000000
FFFF40
FFFF40
F80000
F80000
F80000
F80000
FFFE00
FFFE00
F80000
F80000
F80000
FFFF80
FFFF80
ENDCHAR
STARTCHAR uni1EC3
ENCODING 7875
SWIDTH 600 0
DWIDTH 12 0
BBX 11 16 1 0
BITMAP
0002E0
0000B4
01F8E0
07EE00
060600
000000
06FE00
1FFF80
7F47D0
BD02E0
FFFFF0
FFFFF0
BD0000
7F4140
1FFFD0
06FE40
ENDCHAR
STARTCHAR uni1EC4
ENCODING 7876
SWIDTH 600 0
DWIDTH 12 0
BBX 9 21 2 0
BITMAP
010000
0F8D00
1FFD00
187800
07F400
0FBC00
191800
000000
FFFF40
FFFF40
F80000
F80000
F80000
F80000
FFFE00
FFFE00
F80000
F80000
F80000
FFFF80
FFFF80
ENDCHAR
STARTCHAR uni1EC5
ENCODING 7877
SWIDTH 600 0
DWIDTH 12 0
BBX 10 17 1 0
BITMAP
03D700
0BFF00
0A2D00
01F800
07FE00
064A00
000000
06FE00
1FFF80
7F47D0
BD02E0
FFFFF0
FFFFF0
BD0000
7F4140
1FFFD0
06FE40
ENDCHAR
STARTCHAR uni1EC6
ENCODING 7878
SWIDTH 600 0
DWIDTH 12 0
BBX 9 22 2 -5
BITMAP
0BF400
1F7D00
181900
000000
FFFF40
FFFF40
F80000
F80000
F80000
F80000
FFFE00
FFFE00
F80000
F80000
F80000
FFFF80
FFFF80
000000
02E000
07F400
07F400
02E000
ENDCHAR
STARTCHAR uni1EC7
ENCODING 7879
SWIDTH 600 0
DWIDTH 12 0
BBX 10 20 1 -5
BITMAP
02FC00
07FE00
1F9F80
090240
000000
06FE00
1FFF80
7F47D0
BD02E0
FFFFF0
FFFFF0
BD0000
7F4140
1FFFD0
06FE40
000000
00B400
02FC00
02FC00
00B800
ENDCHAR
STARTCHAR uni1EC8
ENCODING 7880
SWIDTH 600 0
DWIDTH 12 0
BBX 10 17 1 0
BITMAP
02E400
007C00
00E400
000000
BFFFE0
BFFFE0
01F400
01F400
01F400
01F400
01F400
01F400
01F400
01F400
01F400
BFFFE0
BFFFE0
ENDCHAR
STARTCHAR uni1EC9
ENCODING 7881
SWIDTH 600 0
DWIDTH 12 0
BBX 8 16 1 0
BITMAP
00B8
00FE
002E
002E
0038
0000
7FFE
7FFE
007E
007E
007E
007E
007E
007E
007E
007E
ENDCHAR
STARTCHAR uni1ECA
ENCODING 7882
SWIDTH 600 0
DWIDTH 12 0
BBX 10 18 1 -5
BITMAP
BFFFE0
BFFFE0
01F400
01F400
01F400
01F400
01F400
01F400
01F400
01F400
01F400
BFFFE0
BFFFE0
000000
01F400
03FC00
03FC00
01F400
ENDCHAR
STARTCHAR uni1ECB
ENCODING 7883
SWIDTH 600 0
DWIDTH 12 0
BBX 8 20 1 -5
BITMAP
007D
00FE
00FE
007D
0000
7FFE
7FFE
007E
007E
007E
007E
007E
007E
007E
007E
0000
007D
00FE
00FE
007D
ENDCHAR
STARTCHAR uni1ECC
ENCODING 7884
SWIDTH 600 0
DWIDTH 12 0
BBX 12 18 0 -5
BITMAP
01BE40
0BFFE0
1F82F4
2F41F8
3F00FC
7E00BD
7E00BD
7E00BD
3F00FC
2F41F8
1F82F4
0BFFE0
01BE40
000000
007D00
00FF00
00FF00
007D00
ENDCHAR
STARTCHAR uni1ECD
ENCODING 7885
SWIDTH 600 0
DWIDTH 12 0
BBX 10 15 1 -5
BITMAP
06F900
2FFF80
7E0BD0
FD07F0
FC03F0
FC03F0
FD07F0
7E0BD0
2FFF80
06F900
000000
01F400
03FC00
03FC00
01F400
ENDCHAR
STARTCHAR uni1ECE
ENCODING 7886
SWIDTH 600 0
DWIDTH 12 0
BBX 12 17 0 0
BITMAP
00B900
001F00
003900
000000
01BE40
0BFFE0
1F82F4
2F41F8
3F00FC
7E00BD
7E00BD
7E00BD
3F00FC
2F41F8
1F82F4
0BFFE0
01BE40
ENDCHAR
STARTCHAR uni1ECF
ENCODING 7887
SWIDTH 600 0
DWIDTH 12 0
BBX 10 16 1 0
BITMAP
02E000
02F800
00BC00
007800
00E000
000000
06F900
2FFF80
7E0BD0
FD07F0
FC03F0
FC03F0
FD07F0
7E0BD0
2FFF80
06F900
ENDCHAR
STARTCHAR uni1ED0
ENCODING 7888
SWIDTH 600 0
DWIDTH 12 0
BBX 12 18 0 0
BITMAP
000018
00BE78
02EBE0
028280
000000
01BE40
0BFFE0
1F82F4
2F41F8
3F00FC
7E00BD
7E00BD
7E00BD
3F00FC
2F41F8
1F82F4
0BFFE0
01BE40
ENDCHAR
STARTCHAR uni1ED1
ENCODING 7889
SWIDTH 600 0
DWIDTH 12 0
BBX 10 16 1 0
BITMAP
000060
0000F0
02F980
0BFE00
0A0A00
000000
06F900
2FFF80
7E0BD0
FD07F0
FC03F0
FC03F0
FD07F0
7E0BD0
2FFF80
06F900
ENDCHAR
STARTCHAR uni1ED2
ENCODING 7890
SWIDTH 600 0
DWIDTH 12 0
BBX 12 18 0 0
BITMAP
140000
2DBE00
0BEB80
028280
000000
01BE40
0BFFE0
1F82F4
2F41F8
3F00FC
7E00BD
7E00BD
7E00BD
3F00FC
2F41F8
1F82F4
0BFFE0
01BE40
ENDCHAR
STARTCHAR uni1ED3
ENCODING 7891
SWIDTH 600 0
DWIDTH 12 0
BBX 10 16 1 0
BITMAP
900000
F00000
26F800
0BFE00
0A0A00
000000
06F900
2FFF80
7E0BD0
FD07F0
FC03F0
FC03F0
FD07F0
7E0BD0
2FFF80
06F900
ENDCHAR
STARTCHAR uni1ED4
ENCODING 7892
SWIDTH 600 0
DWIDTH 12 0
BBX 12 18 0 0
BITMAP
0000F4
00BE3C
02EBF4
028280
000000
01BE40
0BFFE0
1F82F4
2F41F8
3F00FC
7E00BD
7E00BD
7E00BD
3F00FC
2F41F8
1F82F4
0BFFE0
01BE40
ENDCHAR
STARTCHAR uni1ED5
ENCODING 7893
SWIDTH 600 0
DWIDTH 12 0
BBX 10 16 1 0
BITMAP
0003D0
0000F0
02F9D0
0BFE00
0A0A00
000000
06F900
2FFF80
7E0BD0
FD07F0
FC03F0
FC03F0
FD07F0
7E0BD0
2FFF80
06F900
ENDCHAR
STARTCHAR uni1ED6
ENCODING 7894
SWIDTH 600 0
DWIDTH 12 0
BBX 12 21 0 0
BITMAP
004000
01F6C0
03FF80
024B40
00BE00
02FF80
028280
000000
01BE40
0BFFE0
1F82F4
2F41F8
3F00FC
7E00BD
7E00BD
7E00BD
3F00FC
2F41F8
1F82F4
0BFFE0
01BE40
ENDCHAR
STARTCHAR uni1ED7
ENCODING 7895
SWIDTH 600 0
DWIDTH 12 0
BBX 10 17 1 0
BITMAP
07DB00
0BFE00
092D00
02F800
0BFE00
060900
000000
06F900
2FFF80
7E0BD0
FD07F0
FC03F0
FC03F0
FD07F0
7E0BD0
2FFF80
06F900
ENDCHAR
STARTCHAR uni1ED8
ENCODING 7896
SWIDTH 600 0
DWIDTH 12 0
BBX 12 22 0 -5
BITMAP
00FF00
02EB80
024180
000000
01BE40
0BFFE0
1F82F4
2F41F8
3F00FC
7E00BD
7E00BD
7E00BD
3F00FC
2F41F8
1F82F4
0BFFE0
01BE40
000000
007D00
00FF00
00FF00
007D00
ENDCHAR
STARTCHAR uni1ED9
ENCODING 7897
SWIDTH 600 0
DWIDTH 12 0
BBX 10 20 1 -5
BITMAP
03FC00
0BFE00
1F5F40
090600
000000
06F900
2FFF80
7E0BD0
FD07F0
FC03F0
FC03F0
FD07F0
7E0BD0
2FFF80
06F900
000000
01F400
03FC00
03FC00
01F400
ENDCHAR
STARTCHAR uni1EDA
ENCODING 7898
SWIDTH 600 0
DWIDTH 12 0
BBX 12 18 0 0
BITMAP
000600
002F80
00BE1A
00642F
00002E
01BEBD
0BFFF0
1F82F4
2F41FC
3F00FC
7E00BD
7E00BD
7E00BC
3F00FC
2F41F8
1F82F4
0BFFE0
01BE40
ENDCHAR
STARTCHAR uni1EDB
ENCODING 7899
SWIDTH 600 0
DWIDTH 12 0
BBX 11 16 1 0
BITMAP
000800
002F00
00BE64
01F8B8
0090B8
0000F4
06FAE0
2FFF80
7E0BD0
FD07F0
FC03F0
FC03F0
FD07E0
7E0BD0
2FFF80
06F900
ENDCHAR
STARTCHAR uni1EDC
ENCODING 7900
SWIDTH 600 0
DWIDTH 12 0
BBX 12 18 0 0
BITMAP
009000
02F800
00BE1A
00192F
00002E
01BEBD
0BFFF0
1F82F4
2F41FC
3F00FC
7E00BD
7E00BD
7E00BC
3F00FC
2F41F8
1F82F4
0BFFE0
01BE40
ENDCHAR
STARTCHAR uni1EDD
ENCODING 7901
SWIDTH 600 0
DWIDTH 12 0
BBX 11 16 1 0
BITMAP
020000
0F8000
0BE064
02F4B8
0060B8
0000F4
06FAE0
2FFF80
7E0BD0
FD07F0
FC03F0
FC03F0
FD07E0
7E0BD0
2FFF80
06F900
ENDCHAR
STARTCHAR uni1EDE
ENCODING 7902
SWIDTH 600 0
DWIDTH 12 0
BBX 12 17 0 0
BITMAP
00B900
001F1A
00392F
00002E
01BEBD
0BFFF0
1F82F4
2F41FC
3F00FC
7E00BD
7E00BD
7E00BC
3F00FC
2F41F8
1F82F4
0BFFE0
01BE40
ENDCHAR
STARTCHAR uni1EDF
ENCODING 7903
SWIDTH 600 0
DWIDTH 12 0
BBX 11 16 1 0
BITMAP
02E000
02F800
00BC64
0078B8
00E0B8
0000F4
06FAE0
2FFF80
7E0BD0
FD07F0
FC03F0
FC03F0
FD07E0
7E0BD0
2FFF80
06F900
ENDCHAR
STARTCHAR uni1EE0
ENCODING 7904
SWIDTH 600 0
DWIDTH 12 0
BBX 12 17 0 0
BITMAP
07E190
0FFFEA
1A2FAF
00002E
01BEBD
0BFFF0
1F82F4
2F41FC
3F00FC
7E00BD
7E00BD
7E00BC
3F00FC
2F41F8
1F82F4
0BFFE0
01BE40
ENDCHAR
STARTCHAR uni1EE1
ENCODING 7905
SWIDTH 600 0
DWIDTH 12 0
BBX 11 15 1 0
BITMAP
010000
1F9BA4
3FFFF8
287DB8
0000F4
06FAE0
2FFF80
7E0BD0
FD07F0
FC03F0
FC03F0
FD07E0
7E0BD0
2FFF80
06F900
ENDCHAR
STARTCHAR uni1EE2
ENCODING 7906
SWIDTH 600 0
DWIDTH 12 0
BBX 12 21 0 -5
BITMAP
00001A
00002F
00002E
01BEBD
0BFFF0
1F82F4
2F41FC
3F00FC
7E00BD
7E00BD
7E00BC
3F00FC
2F41F8
1F82F4
0BFFE0
01BE40
000000
007D00
00FF00
00FF00
007D00
ENDCHAR
STARTCHAR uni1EE3
ENCODING 7907
SWIDTH 600 0
DWIDTH 12 0
BBX 11 19 1 -5
BITMAP
000064
0000B8
0000B8
0000F4
06FAE0
2FFF80
7E0BD0
FD07F0
FC03F0
FC03F0
FD07E0
7E0BD0
2FFF80
06F900
000000
01F400
03FC00
03FC00
01F400
ENDCHAR
STARTCHAR uni1EE4
ENCODING 7908
SWIDTH 600 0
DWIDTH 12 0
BBX 10 18 1 -5
BITMAP
BD03E0
BD03E0
BD03E0
BD03E0
BD03E0
BD03E0
BD03E0
BD03E0
BD03E0
BD07E0
7E0BD0
2FFF80
06F900
000000
01F400
03FC00
03FC00
01F400
ENDCHAR
STARTCHAR uni1EE5
ENCODING 7909
SWIDTH 600 0
DWIDTH 12 0
BBX 10 15 1 -5
BITMAP
BD07E0
BD07E0
BD07E0
BD07E0
BD07E0
BD07E0
BD0BE0
BE1FE0
7FFBE0
1FD3E0
000000
00B800
02FC00
02FC00
00B800
ENDCHAR
STARTCHAR uni1EE6
ENCODING 7910
SWIDTH 600 0
DWIDTH 12 0
BBX 10 17 1 0
BITMAP
02E400
007C00
00E400
000000
BD03E0
BD03E0
BD03E0
BD03E0
BD03E0
BD03E0
BD03E0
BD03E0
BD03E0
BD07E0
7E0BD0
2FFF80
06F900
ENDCHAR
STARTCHAR uni1EE7
ENCODING 7911
SWIDTH 600 0
DWIDTH 12 0
BBX 10 16 1 0
BITMAP
02E000
02F800
00B800
007800
00E000
000000
BD07E0
BD07E0
BD07E0
BD07E0
BD07E0
BD07E0
BD0BE0
BE1FE0
7FFBE0
1FD3E0
ENDCHAR
STARTCHAR uni1EE8
ENCODING 7912
SWIDTH 600 0
DWIDTH 12 0
BBX 12 18 1 0
BITMAP
001800
00BE0A
02F81F
01901F
00002F
BD03F8
BD03E0
BD03E0
BD03E0
BD03E0
BD03E0
BD03E0
BD03E0
BD03E0
BD07E0
7E0BD0
2FFF80
06F900
ENDCHAR
STARTCHAR uni1EE9
ENCODING 7913
SWIDTH 600 0
DWIDTH 12 0
BBX 12 16 1 0
BITMAP
000800
002F00
00BE18
01F83D
00903D
0000BC
BD07F4
BD07E0
BD07E0
BD07E0
BD07E0
BD07E0
BD0BE0
BE1FE0
7FFBE0
1FD3E0
ENDCHAR
STARTCHAR uni1EEA
ENCODING 7914
SWIDTH 600 0
DWIDTH 12 0
BBX 12 18 1 0
BITMAP
024000
0BE00A
02F81F
00641F
00002F
BD03F8
BD03E0
BD03E0
BD03E0
BD03E0
BD03E0
BD03E0
BD03E0
BD03E0
BD07E0
7E0BD0
2FFF80
06F900
ENDCHAR
STARTCHAR uni1EEB
ENCODING 7915
SWIDTH 600 0
DWIDTH 12 0
BBX 12 16 1 0
BITMAP
060000
1F8000
0BE018
02F43D
00A03D
0000BC
BD07F4
BD07E0
BD07E0
BD07E0
BD07E0
BD07E0
BD0BE0
BE1FE0
7FFBE0
1FD3E0
ENDCHAR
STARTCHAR uni1EEC
ENCODING 7916
SWIDTH 600 0
DWIDTH 12 0
BBX 12 17 1 0
BITMAP
02E40A
007C1F
00E41F
00002F
BD03F8
BD03E0
BD03E0
BD03E0
BD03E0
BD03E0
BD03E0
BD03E0
BD03E0
BD07E0
7E0BD0
2FFF80
06F900
ENDCHAR
STARTCHAR uni1EED
ENCODING 7917
SWIDTH 600 0
DWIDTH 12 0
BBX 12 16 1 0
BITMAP
02E000
02F800
00B818
00783D
00E03D
0000BC
BD07F4
BD07E0
BD07E0
BD07E0
BD07E0
BD07E0
BD0BE0
BE1FE0
7FFBE0
1FD3E0
ENDCHAR
STARTCHAR uni1EEE
ENCODING 7918
SWIDTH 600 0
DWIDTH 12 0
BBX 12 17 1 0
BITMAP
0B928A
2FFF9F
286E1F
00002F
BD03F8
BD03E0
BD03E0
BD03E0
BD03E0
BD03E0
BD03E0
BD03E0
BD03E0
BD07E0
7E0BD0
2FFF80
06F900
ENDCHAR
STARTCHAR uni1EEF
ENCODING 7919
SWIDTH 600 0
DWIDTH 12 0
BBX 12 14 1 0
BITMAP
1F8B58
3FFF7D
287D3D
0000BC
BD07F4
BD07E0
BD07E0
BD07E0
BD07E0
BD07E0
BD0BE0
BE1FE0
7FFBE0
1FD3E0
ENDCHAR
STARTCHAR uni1EF0
ENCODING 7920
SWIDTH 600 0
DWIDTH 12 0
BBX 12 22 1 -5
BITMAP
00000A
00001F
00001F
00002F
BD03F8
BD03E0
BD03E0
BD03E0
BD03E0
BD03E0
BD03E0
BD03E0
BD03E0
BD07E0
7E0BD0
2FFF80
06F900
000000
01F400
03FC00
03FC00
01F400
ENDCHAR
STARTCHAR uni1EF1
ENCODING 7921
SWIDTH 600 0
DWIDTH 12 0
BBX 12 19 1 -5
BITMAP
000018
00003D
00003D
0000BC
BD07F4
BD07E0
BD07E0
BD07E0
BD07E0
BD07E0
BD0BE0
BE1FE0
7FFBE0
1FD3E0
000000
00B800
02FC00
02FC00
00B800
ENDCHAR
STARTCHAR Ygrave
ENCODING 7922
SWIDTH 600 0
DWIDTH 12 0
BBX 12 18 0 0
BITMAP
009000
02F800
00BE00
001900
000000
7E00BD
3F00FC
1F81F4
0FC3F0
07D7D0
03EBC0
02FF80
00FF00
00BE00
007D00
007D00
007D00
007D00
ENDCHAR
STARTCHAR ygrave
ENCODING 7923
SWIDTH 600 0
DWIDTH 12 0
BBX 11 20 1 -4
BITMAP
020000
0BC000
0BE000
01F400
006000
000000
F802F4
BC03F0
7E07D0
2F0BC0
1F4F80
0F9F40
07DF00
03FE00
01FC00
00F800
01F400
07F000
7FD000
7E4000
ENDCHAR
STARTCHAR uni1EF4
ENCODING 7924
SWIDTH 600 0
DWIDTH 12 0
BBX 12 18 0 -5
BITMAP
7E00BD
3F00FC
1F81F4
0FC3F0
07D7D0
03EBC0
02FF80
00FF00
00BE00
007D00
007D00
007D00
007D00
000000
007D00
00FF00
00FF00
007D00
ENDCHAR
STARTCHAR uni1EF5
ENCODING 7925
SWIDTH 600 0
DWIDTH 12 0
BBX 11 15 1 -5
BITMAP
F802F4
BC03F0
7E07D0
2F0BC0
1F4F80
0F9F40
07DF00
03FE00
01FC00
00F800
01F400
07F2E0
7FD3F8
7E43F8
0002E0
ENDCHAR
STARTCHAR uni1EF6
ENCODING 7926
SWIDTH 600 0
DWIDTH 12 0
BBX 12 17 0 0
BITMAP
00B900
001F00
003900
000000
7E00BD
3F00FC
1F81F4
0FC3F0
07D7D0
03EBC0
02FF80
00FF00
00BE00
007D00
007D00
007D00
007D00
ENDCHAR
STARTCHAR uni1EF7
ENCODING 7927
SWIDTH 600 0
DWIDTH 12 0
BBX 11 20 1 -4
BITMAP
02E000
02F800
007C00
007C00
00A400
000000
F802F4
BC03F0
7E07D0
2F0BC0
1F4F80
0F9F40
07DF00
03FE00
01FC00
00F800
01F400
07F000
7FD000
7E4000
ENDCHAR
STARTCHAR uni1EF8
ENCODING 7928
SWIDTH 600 0
DWIDTH 12 0
BBX 12 17 0 0
BITMAP
02E4A0
0BFFE0
0A1B80
000000
7E00BD
3F00FC
1F81F4
0FC3F0
07D7D0
03EBC0
02FF80
00FF00
00BE00
007D00
007D00
007D00
007D00
ENDCHAR
STARTCHAR uni1EF9
ENCODING 7929
SWIDTH 600 0
DWIDTH 12 0
BBX 11 19 1 -4
BITMAP
010000
0BD3C0
1FFF80
192E00
000000
F802F4
BC03F0
7E07D0
2F0BC0
1F4F80
0F9F40
07DF00
03FE00
01FC00
00F800
01F400
07F000
7FD000
7E4000
ENDCHAR
STARTCHAR uni1FBD
ENCODING 8125
SWIDTH 600 0
DWIDTH 12 0
BBX 4 5 4 11
BITMAP
B8
BE
2F
1E
38
ENDCHAR
STARTCHAR uni1FBE
ENCODING 8126
SWIDTH 600 0
DWIDTH 12 0
BBX 5 8 4 0
BITMAP
BD00
BD00
BC00
BC00
BC00
BD00
7F80
2F80
ENDCHAR
STARTCHAR uni1FBF
ENCODING 8127
SWIDTH 600 0
DWIDTH 12 0
BBX 4 5 4 11
BITMAP
B8
BE
2F
1E
38
ENDCHAR
STARTCHAR uni1FC0
ENCODING 8128
SWIDTH 600 0
DWIDTH 12 0
BBX 8 4 2 11
BITMAP
0400
3F5E
BFFE
A1B8
ENDCHAR
STARTCHAR uni1FC1
ENCODING 8129
SWIDTH 600 0
DWIDTH 12 0
BBX 8 6 2 12
BITMAP
1E18
3FFC
35F8
0010
782D
782D
ENDCHAR
STARTCHAR uni1FCD
ENCODING 8141
SWIDTH 600 0
DWIDTH 12 0
BBX 7 5 2 11
BITMAP
B4B4
FDB8
2D78
343C
0010
ENDCHAR
STARTCHAR uni1FCE
ENCODING 8142
SWIDTH 600 0
DWIDTH 12 0
BBX 7 5 2 11
BITMAP
B47C
FD78
2DB4
34B0
0010
ENDCHAR
STARTCHAR uni1FCF
ENCODING 8143
SWIDTH 600 0
DWIDTH 12 0
BBX 6 6 3 11
BITMAP
7DB0
FFE0
92D0
1E40
0B80
0A00
ENDCHAR
STARTCHAR uni1FDD
ENCODING 8157
SWIDTH 600 0
DWIDTH 12 0
BBX 7 5 2 11
BITMAP
2DB4
BDB8
B478
283C
0010
ENDCHAR
STARTCHAR uni1FDE
ENCODING 8158
SWIDTH 600 0
DWIDTH 12 0
BBX 7 5 2 11
BITMAP
2E7C
BE78
B4B4
28B0
0010
ENDCHAR
STARTCHAR uni1FDF
ENCODING 8159
SWIDTH 600 0
DWIDTH 12 0
BBX 6 6 3 11
BITMAP
7DB0
FFE0
92D0
1B40
2E00
0A00
ENDCHAR
STARTCHAR uni1FED
ENCODING 8173
SWIDTH 600 0
DWIDTH 12 0
BBX 8 5 2 11
BITMAP
0640
0780
B79E
B6DE
0180
ENDCHAR
STARTCHAR uni1FEE
ENCODING 8174
SWIDTH 600 0
DWIDTH 12 0
BBX 8 5 2 11
BITMAP
01E0
02D0
B6DE
B79E
0340
ENDCHAR
STARTCHAR uni1FEF
ENCODING 8175
SWIDTH 600 0
DWIDTH 12 0
BBX 4 5 3 11
BITMAP
6D
3E
2E
1F
0E
ENDCHAR
STARTCHAR uni1FFD
ENCODING 8189
SWIDTH 600 0
DWIDTH 12 0
BBX 4 5 5 11
BITMAP
79
BC
B8
F4
B0
ENDCHAR
STARTCHAR uni1FFE
ENCODING 8190
SWIDTH 600 0
DWIDTH 12 0
BBX 4 5 4 11
BITMAP
2E
BE
F8
B4
2C
ENDCHAR
STARTCHAR uni2007
ENCODING 8199
SWIDTH 600 0
DWIDTH 12 0
BBX 1 1 0 0
BITMAP
00
ENDCHAR
STARTCHAR uni2010
ENCODING 8208
SWIDTH 600 0
DWIDTH 12 0
BBX 10 2 1 6
BITMAP
BFFFE0
BFFFE0
ENDCHAR
STARTCHAR figuredash
ENCODING 8210
SWIDTH 600 0
DWIDTH 12 0
BBX 10 2 1 4
BITMAP
7FFFD0
7FFFD0
ENDCHAR
STARTCHAR endash
ENCODING 8211
SWIDTH 600 0
DWIDTH 12 0
BBX 10 2 1 4
BITMAP
7FFFD0
7FFFD0
ENDCHAR
STARTCHAR emdash
ENCODING 8212
SWIDTH 600 0
DWIDTH 12 0
BBX 12 2 0 4
BITMAP
FFFFFF
FFFFFF
ENDCHAR
STARTCHAR uni2015
ENCODING 8213
SWIDTH 600 0
DWIDTH 12 0
BBX 12 2 0 4
BITMAP
FFFFFF
FFFFFF
ENDCHAR
STARTCHAR uni2016
ENCODING 8214
SWIDTH 600 0
DWIDTH 12 0
BBX 8 20 2 -5
BITMAP
BC3E
BC3E
BC3E
BC3E
BC3E
BC3E
BC3E
BC3E
BC3E
BC3E
BC3E
BC3E
BC3E
BC3E
BC3E
BC3E
BC3E
BC3E
BC3E
BC3E
ENDCHAR
STARTCHAR underscoredbl
ENCODING 8215
SWIDTH 600 0
DWIDTH 12 0
BBX 10 5 1 -6
BITMAP
BFFFE0
BFFFE0
000000
BFFFE0
BFFFE0
ENDCHAR
STARTCHAR quoteleft
ENCODING 8216
SWIDTH 600 0
DWIDTH 12 0
BBX 5 8 3 6
BITMAP
0780
1F40
2D00
3C00
7F40
7FC0
3F80
1F40
ENDCHAR
STARTCHAR quoteright
ENCODING 8217
SWIDTH 600 0
DWIDTH 12 0
BBX 5 8 4 6
BITMAP
7D00
FF00
FF40
7F40
0F00
1E00
BD00
B400
ENDCHAR
STARTCHAR quotesinglbase
ENCODING 8218
SWIDTH 600 0
DWIDTH 12 0
BBX 5 8 4 -4
BITMAP
7D00
FF00
FF40
7F40
0F00
1E00
BD00
B400
ENDCHAR
STARTCHAR quotereversed
ENCODING 8219
SWIDTH 600 0
DWIDTH 12 0
BBX 5 8 3 6
BITMAP
1F40
3FC0
7FC0
7F40
3C00
2D00
1F80
0780
ENDCHAR
STARTCHAR quotedblleft
ENCODING 8220
SWIDTH 600 0
DWIDTH 12 0
BBX 10 8 1 6
BITMAP
0B01D0
2E0BD0
780F00
B41D00
FE2F80
FF6FE0
BF5FD0
2E0B80
ENDCHAR
STARTCHAR quotedblright
ENCODING 8221
SWIDTH 600 0
DWIDTH 12 0
BBX 10 8 1 6
BITMAP
2E0B80
7F5FE0
BF9FF0
2F8BF0
0B41E0
0F02D0
7E0B80
740E00
ENDCHAR
STARTCHAR quotedblbase
ENCODING 8222
SWIDTH 600 0
DWIDTH 12 0
BBX 10 8 1 -4
BITMAP
2E0B80
7F5FE0
BF9FF0
2F8BF0
0B41E0
0F02D0
7E0B80
740E00
ENDCHAR
STARTCHAR dagger
ENCODING 8224
SWIDTH 600 0
DWIDTH 12 0
BBX 10 16 1 -2
BITMAP
00F000
00F000
00F000
7FFFD0
7FFFD0
00F000
00F000
00F000
00F000
00F000
00F000
00F000
00F000
00F000
01F400
005000
ENDCHAR
STARTCHAR daggerdbl
ENCODING 8225
SWIDTH 600 0
DWIDTH 12 0
BBX 10 15 1 -1
BITMAP
00F000
00F000
00F000
7FFFD0
7FFFD0
10F040
00F000
01F400
00F000
10F040
7FFFD0
7FFFD0
00F000
00F000
00F000
ENDCHAR
STARTCHAR bullet
ENCODING 8226
SWIDTH 600 0
DWIDTH 12 0
BBX 8 6 2 2
BITMAP
0BE0
2FF8
7FFD
7FFD
2FF8
0BE0
ENDCHAR
STARTCHAR ellipsis
ENCODING 8230
SWIDTH 600 0
DWIDTH 12 0
BBX 12 4 0 0
BITMAP
787D2D
FEBEBF
FEBEBF
787D2D
ENDCHAR
STARTCHAR uni202F
ENCODING 8239
SWIDTH 600 0
DWIDTH 12 0
BBX 1 1 0 0
BITMAP
00
ENDCHAR
STARTCHAR perthousand
ENCODING 8240
SWIDTH 600 0
DWIDTH 12 0
BBX 12 13 0 0
BITMAP
1F8000
3FD000
74E000
74E06D
3FD6FD
1FFF90
0BE400
050000
1F82F4
7FD7FD
78EB5D
3FD7FD
1F82F4
ENDCHAR
STARTCHAR uni2032
ENCODING 8242
SWIDTH 600 0
DWIDTH 12 0
BBX 4 7 4 7
BITMAP
3F
3E
3E
7D
7C
7C
78
ENDCHAR
STARTCHAR uni2033
ENCODING 8243
SWIDTH 600 0
DWIDTH 12 0
BBX 9 7 2 7
BITMAP
7E2F40
7D2F00
7D2F00
BC3E00
B83D00
B83D00
B43C00
ENDCHAR
STARTCHAR uni2035
ENCODING 8245
SWIDTH 600 0
DWIDTH 12 0
BBX 4 7 4 7
BITMAP
FC
BC
BC
7D
3D
3D
2D
ENDCHAR
STARTCHAR guilsinglleft
ENCODING 8249
SWIDTH 600 0
DWIDTH 12 0
BBX 5 9 3 1
BITMAP
0240
0B80
2F00
7D00
B800
7D00
2F00
0B80
0240
ENDCHAR
STARTCHAR guilsinglright
ENCODING 8250
SWIDTH 600 0
DWIDTH 12 0
BBX 5 9 4 1
BITMAP
6000
B800
3E00
1F40
0B80
1F40
3E00
B800
6000
ENDCHAR
STARTCHAR exclamdbl
ENCODING 8252
SWIDTH 600 0
DWIDTH 12 0
BBX 10 13 1 0
BITMAP
7E0BC0
3E0BC0
3E0BC0
3E0BC0
3D0BC0
3D07C0
2D0780
2D0780
000000
2E0B80
BF5FE0
BF1FE0
2E0B80
ENDCHAR
STARTCHAR uni203D
ENCODING 8253
SWIDTH 600 0
DWIDTH 12 0
BBX 9 13 1 0
BITMAP
1BF900
7FFF80
281BC0
03DBC0
02EF40
02FD00
01F000
000000
000000
02E000
07F400
07F400
02E000
ENDCHAR
STARTCHAR uni203E
ENCODING 8254
SWIDTH 600 0
DWIDTH 12 0
BBX 10 2 1 11
BITMAP
BFFFE0
BFFFE0
ENDCHAR
STARTCHAR uni203F
ENCODING 8255
SWIDTH 600 0
DWIDTH 12 0
BBX 18 4 -3 -5
BITMAP
A0000000A0
BE90006BE0
1BFFFFFE40
006BFE9000
ENDCHAR
STARTCHAR fraction
ENCODING 8260
SWIDTH 600 0
DWIDTH 12 0
BBX 12 12 0 1
BITMAP
000018
00003D
0000B8
0002D0
000240
000000
000000
018000
078000
2E0000
7C0000
240000
ENDCHAR
STARTCHAR uni2047
ENCODING 8263
SWIDTH 600 0
DWIDTH 12 0
BBX 12 13 0 0
BITMAP
6F86F4
7FEBFD
13F17E
03F07D
07D0BC
0F81F4
1F42F0
1F03E0
000000
1F42E0
3F87F4
3F87F4
1F42E0
ENDCHAR
STARTCHAR uni2048
ENCODING 8264
SWIDTH 600 0
DWIDTH 12 0
BBX 11 13 0 0
BITMAP
6F82F4
7FE2F4
13F2F0
03F1F0
07D1F0
0F81F0
1F41F0
1F01E0
000000
1F41F4
3F83F8
3F83F8
1F41F4
ENDCHAR
STARTCHAR uni2049
ENCODING 8265
SWIDTH 600 0
DWIDTH 12 0
BBX 11 13 1 0
BITMAP
7E1BD0
7E2FF4
3E05F8
3D01F4
3D02F0
3D07D0
3D0BC0
2D0F80
000000
7D0B80
BF1FD0
BF1FD0
7D0B80
ENDCHAR
STARTCHAR zero.sups
ENCODING 8304
SWIDTH 600 0
DWIDTH 12 0
BBX 8 8 2 7
BITMAP
0BE0
2FF8
7C3D
782D
782D
7C3D
2FF8
0BE0
ENDCHAR
STARTCHAR i.sups
ENCODING 8305
SWIDTH 600 0
DWIDTH 12 0
BBX 5 10 3 7
BITMAP
07C0
07C0
0000
BFC0
BFC0
03C0
03C0
03C0
03C0
03C0
ENDCHAR
STARTCHAR four.sups
ENCODING 8308
SWIDTH 600 0
DWIDTH 12 0
BBX 8 8 2 7
BITMAP
0280
0740
0E78
2D78
7FFE
7FFE
0078
0078
ENDCHAR
STARTCHAR five.sups
ENCODING 8309
SWIDTH 600 0
DWIDTH 12 0
BBX 6 8 3 7
BITMAP
7FF0
7FF0
7F80
BFE0
11F0
91F0
FFE0
6F80
ENDCHAR
STARTCHAR six.sups
ENCODING 8310
SWIDTH 600 0
DWIDTH 12 0
BBX 8 8 2 7
BITMAP
07F4
1FF8
3D04
7EF4
7FFC
3D3D
2FFC
0BE0
ENDCHAR
STARTCHAR seven.sups
ENCODING 8311
SWIDTH 600 0
DWIDTH 12 0
BBX 7 8 3 7
BITMAP
FFF4
FFF0
01D0
03C0
0B40
0F40
1F00
1F00
ENDCHAR
STARTCHAR eight.sups
ENCODING 8312
SWIDTH 600 0
DWIDTH 12 0
BBX 6 9 3 7
BITMAP
2F80
BFE0
F5F0
B5E0
7FC0
7FD0
F5F0
FFF0
6F90
ENDCHAR
STARTCHAR nine.sups
ENCODING 8313
SWIDTH 600 0
DWIDTH 12 0
BBX 8 8 2 7
BITMAP
0BD0
3FF8
787C
3FFC
1FBD
107C
2FF4
1FD0
ENDCHAR
STARTCHAR parenleft.sups
ENCODING 8317
SWIDTH 600 0
DWIDTH 12 0
BBX 4 11 4 6
BITMAP
0A
2E
3C
78
B8
B4
B8
78
3C
2E
0A
ENDCHAR
STARTCHAR parenright.sups
ENCODING 8318
SWIDTH 600 0
DWIDTH 12 0
BBX 4 11 4 6
BITMAP
A0
B8
3C
2D
2E
1E
2E
2D
3C
B8
A0
ENDCHAR
STARTCHAR n.sups
ENCODING 8319
SWIDTH 600 0
DWIDTH 12 0
BBX 7 7 3 7
BITMAP
F7D0
FFF0
F4F4
F4B4
F4B4
F4B4
F4B4
ENDCHAR
STARTCHAR zero.subs
ENCODING 8320
SWIDTH 600 0
DWIDTH 12 0
BBX 8 8 2 -4
BITMAP
0BE0
2FF8
7C3D
782D
782D
7C3D
2FF8
0BE0
ENDCHAR
STARTCHAR one.subs
ENCODING 8321
SWIDTH 600 0
DWIDTH 12 0
BBX 7 8 3 -4
BITMAP
1BC0
7FC0
07C0
07C0
07C0
07C0
BFFC
BFFC
ENDCHAR
STARTCHAR two.subs
ENCODING 8322
SWIDTH 600 0
DWIDTH 12 0
BBX 6 8 3 -4
BITMAP
6F80
FFE0
92E0
01E0
07C0
1E00
BFF0
FFF0
ENDCHAR
STARTCHAR three.subs
ENCODING 8323
SWIDTH 600 0
DWIDTH 12 0
BBX 6 8 3 -4
BITMAP
2F80
FFE0
51E0
0FD0
0FE0
91F0
FFF0
6F80
ENDCHAR
STARTCHAR four.subs
ENCODING 8324
SWIDTH 600 0
DWIDTH 12 0
BBX 8 8 2 -4
BITMAP
0280
0740
0E78
2D78
7FFE
7FFE
0078
0078
ENDCHAR
STARTCHAR five.subs
ENCODING 8325
SWIDTH 600 0
DWIDTH 12 0
BBX 6 8 3 -4
BITMAP
7FF0
7FF0
7F80
BFE0
11F0
91F0
FFE0
6F80
ENDCHAR
STARTCHAR six.subs
ENCODING 8326
SWIDTH 600 0
DWIDTH 12 0
BBX 8 8 2 -4
BITMAP
07F4
1FF8
3D04
7EF4
7FFC
3D3D
2FFC
0BE0
ENDCHAR
STARTCHAR seven.subs
ENCODING 8327
SWIDTH 600 0
DWIDTH 12 0
BBX 7 8 3 -4
BITMAP
FFF4
FFF0
01D0
03C0
0B40
0F40
1F00
1F00
ENDCHAR
STARTCHAR eight.subs
ENCODING 8328
SWIDTH 600 0
DWIDTH 12 0
BBX 6 9 3 -4
BITMAP
2F80
BFE0
F5F0
B5E0
7FC0
7FD0
F5F0
FFF0
6F90
ENDCHAR
STARTCHAR nine.subs
ENCODING 8329
SWIDTH 600 0
DWIDTH 12 0
BBX 8 8 2 -4
BITMAP
0BD0
3FF8
787C
3FFC
1FBD
107C
2FF4
1FD0
ENDCHAR
STARTCHAR parenleft.subs
ENCODING 8333
SWIDTH 600 0
DWIDTH 12 0
BBX 4 11 4 -5
BITMAP
0A
2E
3C
78
B8
B4
B8
78
3C
2E
0A
ENDCHAR
STARTCHAR parenright.subs
ENCODING 8334
SWIDTH 600 0
DWIDTH 12 0
BBX 4 11 4 -5
BITMAP
A0
B8
3C
2D
2E
1E
2E
2D
3C
B8
A0
ENDCHAR
STARTCHAR uni0259.sups
ENCODING 8340
SWIDTH 600 0
DWIDTH 12 0
BBX 8 7 2 7
BITMAP
1BE0
2FF8
7FFC
7FFD
383C
2FF8
0BE0
ENDCHAR
STARTCHAR colonmonetary
ENCODING 8353
SWIDTH 600 0
DWIDTH 12 0
BBX 10 17 1 -2
BITMAP
001640
002640
01BF80
0BFFE0
1FF3D0
3F7600
7E6600
7E6600
7E6900
7E9900
7E9900
3FDC00
1FDDD0
0BFFF0
01FF80
019800
019800
ENDCHAR
STARTCHAR franc
ENCODING 8355
SWIDTH 600 0
DWIDTH 12 0
BBX 10 13 1 0
BITMAP
1FFFE0
1FFFE0
1F8000
1F8000
1F8000
1F8000
1FFFC0
1FFFC0
1F8000
1F8000
FFFD00
FFFD00
1F8000
ENDCHAR
STARTCHAR lira
ENCODING 8356
SWIDTH 600 0
DWIDTH 12 0
BBX 10 13 1 0
BITMAP
01BF80
07FFE0
0FD180
1F8000
1F8000
BFFF00
0BC000
BFFF00
07C000
0BC000
1F4000
7FFFF0
BFFFF0
ENDCHAR
STARTCHAR uni20A6
ENCODING 8358
SWIDTH 600 0
DWIDTH 12 0
BBX 12 13 0 0
BITMAP
0F80F0
0FC0F0
0FD0F0
0EF0F0
0EB4F0
7FFFFD
0F3CF0
7FFFFD
0F1EB0
0F0FB0
0F0BF0
0F03F0
0F02F0
ENDCHAR
STARTCHAR peseta
ENCODING 8359
SWIDTH 600 0
DWIDTH 12 0
BBX 12 13 0 0
BITMAP
0FFE40
0FFFE0
0F82F4
BFFFFE
BFFFFE
0F82F4
0FFFE0
0FFE40
0F8000
0F8000
0F8000
0F8000
0F8000
ENDCHAR
STARTCHAR uni20A9
ENCODING 8361
SWIDTH 600 0
DWIDTH 12 0
BBX 12 13 0 0
BITMAP
3D147C
3E3D7C
3E7D7C
2E7E78
2E7E78
2EBA78
BFFFFF
1FABB4
1FABB4
0FEBB4
0FD7F0
0FD7F0
0BD7F0
ENDCHAR
STARTCHAR dong
ENCODING 8363
SWIDTH 600 0
DWIDTH 12 0
BBX 10 14 2 0
BITMAP
002E00
0BFFD0
0BFFD0
002E00
1FAE00
BFFE00
F82E00
F42E00
F82E00
BFFE00
2F9A00
000000
FFFF40
FFFF40
ENDCHAR
STARTCHAR Euro
ENCODING 8364
SWIDTH 600 0
DWIDTH 12 0
BBX 11 13 1 0
BITMAP
00BF90
07FFF4
0FD090
2F4000
FFFFD0
FFFFD0
3F0000
FFFF40
FFFF40
2F4000
1FD0A0
07FFF4
01BF90
ENDCHAR
STARTCHAR uni20AE
ENCODING 8366
SWIDTH 600 0
DWIDTH 12 0
BBX 12 13 0 0
BITMAP
7FFFFD
7FFFFD
007D00
007D20
007FF4
00BF80
06FD60
1FBFF4
04BF40
07FD00
1EBD00
047D00
007D00
ENDCHAR
STARTCHAR uni20B1
ENCODING 8369
SWIDTH 600 0
DWIDTH 12 0
BBX 12 13 0 0
BITMAP
0FFE40
0FFFD0
0F87F0
BFFFFE
1FD5F8
6FEBFE
1FD7F4
0FFFD0
0FFF40
0FD000
0F8000
0F8000
0F8000
ENDCHAR
STARTCHAR uni20B2
ENCODING 8370
SWIDTH 600 0
DWIDTH 12 0
BBX 10 17 1 -2
BITMAP
003C00
003C00
02FF40
0BFFD0
2F8180
3F0000
7E0000
BD0000
BD1FE0
BD1FE0
7D03E0
7E03E0
2F83E0
0FFFE0
02FE40
003C00
003C00
ENDCHAR
STARTCHAR uni20B4
ENCODING 8372
SWIDTH 600 0
DWIDTH 12 0
BBX 10 13 1 0
BITMAP
0BF800
2FFF00
192F40
001F80
002F80
FFFFE0
0BF800
FFFFE0
FFFFE0
2F0000
2F4680
1FFFD0
06FE40
ENDCHAR
STARTCHAR uni20B5
ENCODING 8373
SWIDTH 600 0
DWIDTH 12 0
BBX 10 17 1 -2
BITMAP
002C00
002C00
01BF80
0BFFE0
1FAD80
3F2C00
7E2C00
7E2C00
7E2C00
7E2C00
7E2C00
3F2C00
1FAD90
0BFFF0
01BF80
002C00
002C00
ENDCHAR
STARTCHAR uni20B8
ENCODING 8376
SWIDTH 600 0
DWIDTH 12 0
BBX 12 13 0 0
BITMAP
7FFFFD
7FFFFD
000000
000000
7FFFFD
7FFFFD
007D00
007D00
007D00
007D00
007D00
007D00
007D00
ENDCHAR
STARTCHAR uni20B9
ENCODING 8377
SWIDTH 600 0
DWIDTH 12 0
BBX 10 13 1 0
BITMAP
7FFFD0
7FFFD0
00BD00
7FFFD0
7FFFD0
003F00
01BD00
7FF800
7FE000
03F400
01FC00
007E00
002F80
ENDCHAR
STARTCHAR uni20BA
ENCODING 8378
SWIDTH 600 0
DWIDTH 12 0
BBX 11 13 0 0
BITMAP
0BD000
0BD140
0BEF80
0BF800
2FD680
7FFF40
0BE400
7FD018
6BD0BC
0BD0BC
0BD6F4
0BFFE0
0BF900
ENDCHAR
STARTCHAR uni20BD
ENCODING 8381
SWIDTH 600 0
DWIDTH 12 0
BBX 12 13 0 0
BITMAP
07FF90
07FFF4
07D1FC
07D07D
07D07D
07D1FC
BFFFF4
BFFF90
07D000
BFFFF0
BFFFF0
07D000
07D000
ENDCHAR
STARTCHAR uni2105
ENCODING 8453
SWIDTH 600 0
DWIDTH 12 0
BBX 12 13 0 0
BITMAP
0B8004
3FD02D
78407D
7801F0
7842C0
3FD000
1B82E4
000FFC
03DE2D
0F5E2D
7D1E2D
780FFC
0002E4
ENDCHAR
STARTCHAR uni2113
ENCODING 8467
SWIDTH 600 0
DWIDTH 12 0
BBX 9 14 2 0
BITMAP
02F900
0BFF00
1F8F40
1F4F40
2F5F00
2F6E00
2FBC00
2FF000
2F8000
BF4000
FF4000
1FC200
0BFF80
02FD00
ENDCHAR
STARTCHAR uni2116
ENCODING 8470
SWIDTH 600 0
DWIDTH 12 0
BBX 14 13 -1 0
BITMAP
3E0B4000
3F0F5F40
3F5F3FD0
3F9F79D0
3FDF79E0
3EDF3FD0
3DDF1F80
3DEF0000
3DFF2FC0
3DBF2FC0
3D7F0000
BC3F0000
783F0000
ENDCHAR
STARTCHAR uni2117
ENCODING 8471
SWIDTH 600 0
DWIDTH 12 0
BBX 12 13 0 0
BITMAP
01BE40
0BFFE0
2E41B8
38502C
71FF4D
A1FFCA
A1E3CA
A1FFCA
71FE0D
38402C
1E41B4
0BFFE0
01BE40
ENDCHAR
STARTCHAR uni2120
ENCODING 8480
SWIDTH 600 0
DWIDTH 12 0
BBX 12 7 0 7
BITMAP
6E2E1F
BF6F2F
B12E7F
2E2EBB
57ADEB
FFADDB
7E180A
ENDCHAR
STARTCHAR trademark
ENCODING 8482
SWIDTH 600 0
DWIDTH 12 0
BBX 13 7 -1 7
BITMAP
7FEB87C0
7FEBCBC0
0B4B9EC0
0B4BAEC0
0B4B7AC0
0B4B76C0
0B4B42C0
ENDCHAR
STARTCHAR uni2126
ENCODING 8486
SWIDTH 600 0
DWIDTH 12 0
BBX 12 13 0 0
BITMAP
01BE40
0BFFE0
1FC3F4
2F41F8
3F00FC
7F00FD
7E00BD
3F00FC
2F00F8
1F41F4
0B82E0
7FC3FD
7FC3FD
ENDCHAR
STARTCHAR estimated
ENCODING 8494
SWIDTH 600 0
DWIDTH 12 0
BBX 12 12 0 0
BITMAP
050010
1C0034
3C0038
7C003C
7C003D
7FFFFD
7C0000
7C0000
3C0000
1C0000
050020
010040
ENDCHAR
STARTCHAR uni2150
ENCODING 8528
SWIDTH 600 0
DWIDTH 12 0
BBX 12 13 0 0
BITMAP
000018
1BC03D
3FC0B8
07C2D0
07C240
07C000
07C000
018BFE
078BFE
2E0038
7C00B4
2401F0
0001E0
ENDCHAR
STARTCHAR uni2151
ENCODING 8529
SWIDTH 600 0
DWIDTH 12 0
BBX 12 13 0 0
BITMAP
000018
1BC03D
3FC0B8
07C2D0
07C240
07C000
07C2F4
018BFC
078B6D
2E0BFE
7C07FD
240BFC
0006E4
ENDCHAR
STARTCHAR uni2152
ENCODING 8530
SWIDTH 600 0
DWIDTH 12 0
BBX 11 12 1 0
BITMAP
FE0000
FE0000
1E01B4
1E1BF4
1FFE40
2F9000
140000
2E0BD0
FE1FF4
9E2D74
1E1FF4
1E0BD0
ENDCHAR
STARTCHAR onethird
ENCODING 8531
SWIDTH 600 0
DWIDTH 12 0
BBX 12 13 0 0
BITMAP
000018
1BC03D
3FC0B8
07C2D0
07C240
07C000
07C2F4
0187FC
07813D
2E00F8
7C01FD
240BFD
0006F8
ENDCHAR
STARTCHAR twothirds
ENCODING 8532
SWIDTH 600 0
DWIDTH 12 0
BBX 12 13 0 0
BITMAP
2F8018
7FD03D
12E0B8
02D2D0
0B4240
7FE000
7FE2F4
0187FC
07813D
2E00F8
7C01FD
240BFD
0006F8
ENDCHAR
STARTCHAR uni2155
ENCODING 8533
SWIDTH 600 0
DWIDTH 12 0
BBX 12 13 0 0
BITMAP
000018
1BC03D
3FC0B8
07C2D0
07C240
07C000
07C000
0183FD
0783FD
2E07F8
7C03FE
240BFD
0006F8
ENDCHAR
STARTCHAR uni2156
ENCODING 8534
SWIDTH 600 0
DWIDTH 12 0
BBX 12 13 0 0
BITMAP
2F8018
7FD03D
12E0B8
02D2D0
0B4240
7FE000
7FE000
0183FD
0783FD
2E07F8
7C03FE
240BFD
0006F8
ENDCHAR
STARTCHAR uni2157
ENCODING 8535
SWIDTH 600 0
DWIDTH 12 0
BBX 12 13 0 0
BITMAP
2F8018
7FD03D
12D0B8
0BC2D0
1BE240
7FE000
2F8000
0183FD
0783FD
2E07F8
7C03FE
240BFD
0006F8
ENDCHAR
STARTCHAR uni2158
ENCODING 8536
SWIDTH 600 0
DWIDTH 12 0
BBX 12 13 0 0
BITMAP
000018
0D003D
2E90B8
79D2D0
BFF640
BFF400
01D000
0183FD
0783FD
2E07F8
7C03FE
240BFD
0006F8
ENDCHAR
STARTCHAR uni2159
ENCODING 8537
SWIDTH 600 0
DWIDTH 12 0
BBX 12 13 0 0
BITMAP
000018
1BC03D
3FC0B8
07C2D0
07C240
07C000
07C1F8
0187FD
078B44
2E0FF8
7C0BFE
2407FD
0002F8
ENDCHAR
STARTCHAR uni215A
ENCODING 8538
SWIDTH 600 0
DWIDTH 12 0
BBX 12 13 0 0
BITMAP
000018
2FE03D
3FE0B8
3FD2D0
3FE240
7FE000
2F81F8
0187FD
078B44
2E0FF8
7C0BFE
2407FD
0002F8
ENDCHAR
STARTCHAR oneeighth
ENCODING 8539
SWIDTH 600 0
DWIDTH 12 0
BBX 12 13 0 0
BITMAP
000018
1BC03D
3FC0B8
07C2D0
07C240
07C000
07C2F8
018BFD
0787BD
2E03F8
7C0BAD
240BFD
0002F8
ENDCHAR
STARTCHAR threeeighths
ENCODING 8540
SWIDTH 600 0
DWIDTH 12 0
BBX 12 13 0 0
BITMAP
2F8018
7FD03D
12D0B8
0BC2D0
1BE240
7FE000
2F82F8
018BFD
0787BD
2E03F8
7C0BAD
240BFD
0002F8
ENDCHAR
STARTCHAR fiveeighths
ENCODING 8541
SWIDTH 600 0
DWIDTH 12 0
BBX 12 13 0 0
BITMAP
000018
2FE03D
3FE0B8
3FD2D0
3FE240
7FE000
2F82F8
018BFD
0787BD
2E03F8
7C0BAD
240BFD
0002F8
ENDCHAR
STARTCHAR seveneighths
ENCODING 8542
SWIDTH 600 0
DWIDTH 12 0
BBX 12 13 0 0
BITMAP
000018
7FF03D
7FE0B8
02C2D0
078240
0F4000
0F02F8
018BFD
0787BD
2E03F8
7C0BAD
240BFD
0002F8
ENDCHAR
STARTCHAR uni2189
ENCODING 8585
SWIDTH 600 0
DWIDTH 12 0
BBX 12 13 0 0
BITMAP
1B8018
3FF03D
78B4B8
78B6D0
78B640
3FF000
1B82F4
0187FC
07813D
2E00F8
7C01FD
240BFD
0006F8
ENDCHAR
STARTCHAR uni2190
ENCODING 8592
SWIDTH 600 0
DWIDTH 12 0
BBX 12 10 0 0
BITMAP
003400
00FC00
07E000
1F8000
7FFFFD
7FFFFD
1F8000
07E000
00FC00
003400
ENDCHAR
STARTCHAR arrowup
ENCODING 8593
SWIDTH 600 0
DWIDTH 12 0
BBX 10 11 1 0
BITMAP
00A000
01F400
07FD00
1FFF40
7DF7D0
F4F1F0
60F090
00F000
00F000
00F000
00F000
ENDCHAR
STARTCHAR uni2192
ENCODING 8594
SWIDTH 600 0
DWIDTH 12 0
BBX 12 10 0 0
BITMAP
001800
003F00
000BD0
0002F4
7FFFFD
7FFFFD
0002F4
000BD0
003F00
001800
ENDCHAR
STARTCHAR arrowdown
ENCODING 8595
SWIDTH 600 0
DWIDTH 12 0
BBX 10 11 1 0
BITMAP
00F000
00F000
00F000
00F000
60F090
F4F1F0
7DF7D0
1FFF40
07FD00
01F400
00A000
ENDCHAR
STARTCHAR arrowboth
ENCODING 8596
SWIDTH 600 0
DWIDTH 12 0
BBX 12 8 0 1
BITMAP
0741D0
1F41F4
3E00BC
BFFFFE
BFFFFE
3E00BC
1F41F4
0741D0
ENDCHAR
STARTCHAR arrowupdn
ENCODING 8597
SWIDTH 600 0
DWIDTH 12 0
BBX 10 12 1 -1
BITMAP
00A000
02F800
1FFF40
7EFBD0
24F180
00F000
00F000
24F180
7EFBD0
1FFF40
02F800
00A000
ENDCHAR
STARTCHAR uni2196
ENCODING 8598
SWIDTH 600 0
DWIDTH 12 0
BBX 9 9 2 0
BITMAP
FFFE00
FFFE00
FF4400
FFC000
F7F000
F1FC00
F07F00
A01F40
000500
ENDCHAR
STARTCHAR uni2197
ENCODING 8599
SWIDTH 600 0
DWIDTH 12 0
BBX 9 9 1 0
BITMAP
2FFFC0
2FFFC0
147FC0
01FFC0
07F7C0
1FD3C0
7F47C0
7D0680
140000
ENDCHAR
STARTCHAR uni2198
ENCODING 8600
SWIDTH 600 0
DWIDTH 12 0
BBX 9 9 1 1
BITMAP
140000
7D0280
3F43C0
0FD3C0
03F7C0
00FFC0
057FC0
2FFFC0
1AFFC0
ENDCHAR
STARTCHAR uni2199
ENCODING 8601
SWIDTH 600 0
DWIDTH 12 0
BBX 9 9 2 1
BITMAP
000500
A41F40
F47F40
F1FD00
F7F400
FFD000
FF5500
FFFE00
FFEA00
ENDCHAR
STARTCHAR arrowupdnbse
ENCODING 8616
SWIDTH 600 0
DWIDTH 12 0
BBX 10 14 1 -3
BITMAP
00A000
07FD00
1FFF40
7EFBD0
24F180
00F000
00F000
24F180
7EFBD0
1FFF40
07FD00
00A000
BFFFE0
BFFFE0
ENDCHAR
STARTCHAR uni21D0
ENCODING 8656
SWIDTH 600 0
DWIDTH 12 0
BBX 12 12 0 -1
BITMAP
002400
00BC00
01F400
07FFFD
1FFFFD
7D0000
7D0000
1FFFFD
07FFFD
01F400
00BC00
002400
ENDCHAR
STARTCHAR uni21D1
ENCODING 8657
SWIDTH 600 0
DWIDTH 12 0
BBX 10 11 1 0
BITMAP
00A000
01F400
07FD00
1F5F40
7F5FD0
FB5EF0
675D90
075D00
075D00
075D00
075D00
ENDCHAR
STARTCHAR uni21D2
ENCODING 8658
SWIDTH 600 0
DWIDTH 12 0
BBX 12 12 0 -1
BITMAP
001800
003E00
001F40
7FFFD0
7FFFF4
00007D
00007D
7FFFF4
7FFFD0
001F40
003E00
001800
ENDCHAR
STARTCHAR uni21D3
ENCODING 8659
SWIDTH 600 0
DWIDTH 12 0
BBX 10 11 1 0
BITMAP
075D00
075D00
075D00
075D00
675D90
FB5EF0
7F5FD0
1F5F40
07FD00
01F400
00A000
ENDCHAR
STARTCHAR uni2200
ENCODING 8704
SWIDTH 600 0
DWIDTH 12 0
BBX 12 13 0 0
BITMAP
BD007E
7E00BD
3F00BC
2FAAF8
1FFFF4
0FD6F0
0BC3E0
07D3D0
07D7C0
03EBC0
02FF80
01FF40
00FF00
ENDCHAR
STARTCHAR partialdiff
ENCODING 8706
SWIDTH 600 0
DWIDTH 12 0
BBX 10 13 1 0
BITMAP
06F900
1FFF80
050BD0
0007E0
0003E0
07E7E0
2FFFE0
7E0BE0
BC07D0
BC0BC0
BD1F80
3FFE00
0BE400
ENDCHAR
STARTCHAR uni2203
ENCODING 8707
SWIDTH 600 0
DWIDTH 12 0
BBX 9 13 1 0
BITMAP
7FFFC0
7FFFC0
000BC0
000BC0
000BC0
000BC0
2FFFC0
2FFFC0
000BC0
000BC0
000BC0
BFFFC0
BFFFC0
ENDCHAR
STARTCHAR uni2206
ENCODING 8710
SWIDTH 600 0
DWIDTH 12 0
BBX 12 13 0 0
BITMAP
00FF00
01FF40
02FF80
03EBC0
07DBD0
0BC7E0
0FC3F0
1F82F4
2F42F4
2F01F8
3F00FC
7FFFFD
7FFFFD
ENDCHAR
STARTCHAR product
ENCODING 8719
SWIDTH 600 0
DWIDTH 12 0
BBX 12 15 0 -2
BITMAP
BFFFFE
BFFFFE
BD007E
BD007E
BD007E
BD007E
BD007E
BD007E
BD007E
BD007E
BD007E
BD007E
BD007E
BD007E
BD007E
ENDCHAR
STARTCHAR summation
ENCODING 8721
SWIDTH 600 0
DWIDTH 12 0
BBX 10 15 1 -2
BITMAP
BFFFE0
7FFFE0
2F4000
1F8000
0BD000
03F000
01F800
00FC00
01F800
03F000
0BD000
1F8000
3F0000
BFFFF0
BFFFF0
ENDCHAR
STARTCHAR minus
ENCODING 8722
SWIDTH 600 0
DWIDTH 12 0
BBX 10 2 1 6
BITMAP
BFFFE0
BFFFE0
ENDCHAR
STARTCHAR uni2215
ENCODING 8725
SWIDTH 600 0
DWIDTH 12 0
BBX 12 12 0 1
BITMAP
000018
00003D
0000B8
0002D0
000240
000000
000000
018000
078000
2E0000
7C0000
240000
ENDCHAR
STARTCHAR uni2219
ENCODING 8729
SWIDTH 600 0
DWIDTH 12 0
BBX 6 5 3 5
BITMAP
1F40
3FC0
7FD0
3FC0
1F40
ENDCHAR
STARTCHAR radical
ENCODING 8730
SWIDTH 600 0
DWIDTH 12 0
BBX 11 17 1 -1
BITMAP
00003C
000078
0000B4
0000B0
0000F0
0001E0
0001D0
0402C0
7D03C0
FE0780
0F0740
0B4B00
07CF00
02DE00
01ED00
00FC00
00B800
ENDCHAR
STARTCHAR infinity
ENCODING 8734
SWIDTH 600 0
DWIDTH 12 0
BBX 14 7 -1 3
BITMAP
0BE1BE00
2FFFFF80
3D7F47C0
7C2F03D0
3D7F87C0
2FF7FF80
0B91BE00
ENDCHAR
STARTCHAR orthogonal
ENCODING 8735
SWIDTH 600 0
DWIDTH 12 0
BBX 10 10 1 2
BITMAP
540000
B80000
B80000
B80000
B80000
B80000
B80000
B80000
BFFFE0
BFFFE0
ENDCHAR
STARTCHAR intersection
ENCODING 8745
SWIDTH 600 0
DWIDTH 12 0
BBX 10 10 1 1
BITMAP
06F900
1FFF40
3E0BC0
7C03D0
B802E0
B802E0
B802E0
B802E0
B802E0
640190
ENDCHAR
STARTCHAR integral
ENCODING 8747
SWIDTH 600 0
DWIDTH 12 0
BBX 7 19 3 -3
BITMAP
02F4
0BF0
1F40
1F00
2F00
2F00
1F00
1F40
1F40
1F40
0F80
0F80
0F80
0F80
0B80
0F80
1F80
FF00
F900
ENDCHAR
STARTCHAR uni2237
ENCODING 8759
SWIDTH 600 0
DWIDTH 12 0
BBX 10 12 1 1
BITMAP
6E0B90
FF5FF0
FF5FF0
FF5FF0
7E0BD0
000000
000000
6E0B90
FF5FF0
FF5FF0
FF5FF0
7E0BD0
ENDCHAR
STARTCHAR approxequal
ENCODING 8776
SWIDTH 600 0
DWIDTH 12 0
BBX 10 7 1 3
BITMAP
1F91E0
7FFFD0
B46F40
000000
1F91E0
7FFFD0
B46F40
ENDCHAR
STARTCHAR notequal
ENCODING 8800
SWIDTH 600 0
DWIDTH 12 0
BBX 10 11 1 1
BITMAP
0003C0
000B40
BFFFE0
BFFFE0
007400
00F000
01D000
BFFFE0
BFFFE0
1E0000
3C0000
ENDCHAR
STARTCHAR equivalence
ENCODING 8801
SWIDTH 600 0
DWIDTH 12 0
BBX 10 12 1 1
BITMAP
BFFFE0
BFFFE0
000000
000000
000000
BFFFE0
BFFFE0
000000
000000
000000
BFFFE0
BFFFE0
ENDCHAR
STARTCHAR lessequal
ENCODING 8804
SWIDTH 600 0
DWIDTH 12 0
BBX 10 11 1 0
BITMAP
0001A0
006FE0
1BFE40
BF9000
BF9000
1BFE40
006FE0
0001A0
000000
BFFFE0
BFFFE0
ENDCHAR
STARTCHAR greaterequal
ENCODING 8805
SWIDTH 600 0
DWIDTH 12 0
BBX 10 11 1 0
BITMAP
A40000
BF9000
1BFE40
006FE0
006FE0
1BFE40
BF9000
A40000
000000
BFFFE0
BFFFE0
ENDCHAR
STARTCHAR house
ENCODING 8962
SWIDTH 600 0
DWIDTH 12 0
BBX 12 13 0 0
BITMAP
00BE00
01FF40
03EBC0
0BC3E0
1F41F4
3E00BC
7D007D
7C003D
7C003D
7C003D
7C003D
7FFFFD
7FFFFD
ENDCHAR
STARTCHAR revlogicalnot
ENCODING 8976
SWIDTH 600 0
DWIDTH 12 0
BBX 10 6 1 2
BITMAP
BFFFE0
BFFFE0
B80000
B80000
B80000
640000
ENDCHAR
STARTCHAR uni231C
ENCODING 8988
SWIDTH 600 0
DWIDTH 12 0
BBX 6 15 4 -1
BITMAP
FFF0
FFF0
F400
F400
F400
F400
F400
F400
F400
F400
F400
F400
F400
F400
A000
ENDCHAR
STARTCHAR uni231D
ENCODING 8989
SWIDTH 600 0
DWIDTH 12 0
BBX 6 15 2 -1
BITMAP
FFF0
FFF0
01F0
01F0
01F0
01F0
01F0
01F0
01F0
01F0
01F0
01F0
01F0
01F0
00A0
ENDCHAR
STARTCHAR uni231E
ENCODING 8990
SWIDTH 600 0
DWIDTH 12 0
BBX 6 16 4 -3
BITMAP
A400
F400
F400
F400
F400
F400
F400
F400
F400
F400
F400
F400
F400
F400
FFF0
FFF0
ENDCHAR
STARTCHAR uni231F
ENCODING 8991
SWIDTH 600 0
DWIDTH 12 0
BBX 6 16 2 -3
BITMAP
01A0
01F0
01F0
01F0
01F0
01F0
01F0
01F0
01F0
01F0
01F0
01F0
01F0
01F0
FFF0
FFF0
ENDCHAR
STARTCHAR integraltp
ENCODING 8992
SWIDTH 600 0
DWIDTH 12 0
BBX 6 24 4 -8
BITMAP
0BE0
2FD0
3E00
3D00
7D00
7D00
7D00
7D00
7D00
7D00
7D00
7D00
7D00
7D00
7D00
7D00
7D00
7D00
7D00
7D00
7D00
7D00
7D00
2900
ENDCHAR
STARTCHAR integralbt
ENCODING 8993
SWIDTH 600 0
DWIDTH 12 0
BBX 6 23 2 -3
BITMAP
07D0
07D0
07D0
07D0
07D0
07D0
07D0
07D0
07D0
07D0
07D0
07D0
07D0
07D0
07D0
07D0
07D0
07D0
07D0
07D0
0BD0
7F80
7E00
ENDCHAR
STARTCHAR uni2500
ENCODING 9472
SWIDTH 600 0
DWIDTH 12 0
BBX 16 2 -2 5
BITMAP
7FFFFFFD
7FFFFFFD
ENDCHAR
STARTCHAR uni2501
ENCODING 9473
SWIDTH 600 0
DWIDTH 12 0
BBX 16 5 -2 3
BITMAP
7FFFFFFD
7FFFFFFD
7FFFFFFD
7FFFFFFD
7FFFFFFD
ENDCHAR
STARTCHAR uni2502
ENCODING 9474
SWIDTH 600 0
DWIDTH 12 0
BBX 4 28 4 -8
BITMAP
7D
7D
7D
7D
7D
7D
7D
7D
7D
7D
7D
7D
7D
7D
7D
7D
7D
7D
7D
7D
7D
7D
7D
7D
7D
7D
7D
7D
ENDCHAR
STARTCHAR uni2503
ENCODING 9475
SWIDTH 600 0
DWIDTH 12 0
BBX 6 28 3 -8
BITMAP
BFE0
BFE0
BFE0
BFE0
BFE0
BFE0
BFE0
BFE0
BFE0
BFE0
BFE0
BFE0
BFE0
BFE0
BFE0
BFE0
BFE0
BFE0
BFE0
BFE0
BFE0
BFE0
BFE0
BFE0
BFE0
BFE0
BFE0
BFE0
ENDCHAR
STARTCHAR uni2504
ENCODING 9476
SWIDTH 600 0
DWIDTH 12 0
BBX 12 2 0 5
BITMAP
7D7D7D
7D7D7D
ENDCHAR
STARTCHAR uni2505
ENCODING 9477
SWIDTH 600 0
DWIDTH 12 0
BBX 12 5 0 3
BITMAP
7D7D7D
7D7D7D
7D7D7D
7D7D7D
7D7D7D
ENDCHAR
STARTCHAR uni2506
ENCODING 9478
SWIDTH 600 0
DWIDTH 12 0
BBX 4 21 4 -5
BITMAP
7D
7D
7D
7D
7D
00
00
00
7D
7D
7D
7D
7D
00
00
00
7D
7D
7D
7D
7D
ENDCHAR
STARTCHAR uni2507
ENCODING 9479
SWIDTH 600 0
DWIDTH 12 0
BBX 6 21 3 -5
BITMAP
BFE0
BFE0
BFE0
BFE0
BFE0
0000
0000
0000
BFE0
BFE0
BFE0
BFE0
BFE0
0000
0000
0000
BFE0
BFE0
BFE0
BFE0
BFE0
ENDCHAR
STARTCHAR uni2508
ENCODING 9480
SWIDTH 600 0
DWIDTH 12 0
BBX 12 2 0 5
BITMAP
BAEBAE
BAEBAE
ENDCHAR
STARTCHAR uni2509
ENCODING 9481
SWIDTH 600 0
DWIDTH 12 0
BBX 12 5 0 3
BITMAP
BAEBAE
BAEBAE
BAEBAE
BAEBAE
BAEBAE
ENDCHAR
STARTCHAR uni250A
ENCODING 9482
SWIDTH 600 0
DWIDTH 12 0
BBX 4 24 4 -6
BITMAP
7D
7D
7D
7D
7D
00
7D
7D
7D
7D
7D
00
7D
7D
7D
7D
7D
00
00
7D
7D
7D
7D
7D
ENDCHAR
STARTCHAR uni250B
ENCODING 9483
SWIDTH 600 0
DWIDTH 12 0
BBX 6 24 3 -6
BITMAP
BFE0
BFE0
BFE0
BFE0
BFE0
0000
BFE0
BFE0
BFE0
BFE0
BFE0
0000
BFE0
BFE0
BFE0
BFE0
BFE0
0000
0000
BFE0
BFE0
BFE0
BFE0
BFE0
ENDCHAR
STARTCHAR uni250C
ENCODING 9484
SWIDTH 600 0
DWIDTH 12 0
BBX 10 15 4 -8
BITMAP
7FFFD0
7FFFD0
7D0000
7D0000
7D0000
7D0000
7D0000
7D0000
7D0000
7D0000
7D0000
7D0000
7D0000
7D0000
690000
ENDCHAR
STARTCHAR uni250D
ENCODING 9485
SWIDTH 600 0
DWIDTH 12 0
BBX 10 17 4 -9
BITMAP
7FFFD0
7FFFD0
7FFFD0
7FFFD0
7FFFD0
7D0000
7D0000
7D0000
7D0000
7D0000
7D0000
7D0000
7D0000
7D0000
7D0000
7D0000
140000
ENDCHAR
STARTCHAR uni250E
ENCODING 9486
SWIDTH 600 0
DWIDTH 12 0
BBX 11 15 3 -8
BITMAP
BFFFF4
BFFFF4
BFE000
BFE000
BFE000
BFE000
BFE000
BFE000
BFE000
BFE000
BFE000
BFE000
BFE000
BFE000
6A9000
ENDCHAR
STARTCHAR uni250F
ENCODING 9487
SWIDTH 600 0
DWIDTH 12 0
BBX 11 17 3 -9
BITMAP
BFFFF4
BFFFF4
BFFFF4
BFFFF4
BFFFF4
BFE000
BFE000
BFE000
BFE000
BFE000
BFE000
BFE000
BFE000
BFE000
BFE000
BFE000
555000
ENDCHAR
STARTCHAR uni2510
ENCODING 9488
SWIDTH 600 0
DWIDTH 12 0
BBX 10 15 -2 -8
BITMAP
7FFFD0
7FFFD0
0007D0
0007D0
0007D0
0007D0
0007D0
0007D0
0007D0
0007D0
0007D0
0007D0
0007D0
0007D0
000690
ENDCHAR
STARTCHAR uni2511
ENCODING 9489
SWIDTH 600 0
DWIDTH 12 0
BBX 10 17 -2 -9
BITMAP
7FFFD0
7FFFD0
7FFFD0
7FFFD0
7FFFD0
0007D0
0007D0
0007D0
0007D0
0007D0
0007D0
0007D0
0007D0
0007D0
0007D0
0007D0
000140
ENDCHAR
STARTCHAR uni2512
ENCODING 9490
SWIDTH 600 0
DWIDTH 12 0
BBX 11 15 -2 -8
BITMAP
7FFFF8
7FFFF8
002FF8
002FF8
002FF8
002FF8
002FF8
002FF8
002FF8
002FF8
002FF8
002FF8
002FF8
002FF8
001AA4
ENDCHAR
STARTCHAR uni2513
ENCODING 9491
SWIDTH 600 0
DWIDTH 12 0
BBX 11 17 -2 -9
BITMAP
7FFFF8
7FFFF8
7FFFF8
7FFFF8
7FFFF8
002FF8
002FF8
002FF8
002FF8
002FF8
002FF8
002FF8
002FF8
002FF8
002FF8
002FF8
001554
ENDCHAR
STARTCHAR uni2514
ENCODING 9492
SWIDTH 600 0
DWIDTH 12 0
BBX 10 15 4 5
BITMAP
690000
7D0000
7D0000
7D0000
7D0000
7D0000
7D0000
7D0000
7D0000
7D0000
7D0000
7D0000
7D0000
7FFFD0
7FFFD0
ENDCHAR
STARTCHAR uni2515
ENCODING 9493
SWIDTH 600 0
DWIDTH 12 0
BBX 10 17 4 3
BITMAP
140000
7D0000
7D0000
7D0000
7D0000
7D0000
7D0000
7D0000
7D0000
7D0000
7D0000
7D0000
7FFFD0
7FFFD0
7FFFD0
7FFFD0
7FFFD0
ENDCHAR
STARTCHAR uni2516
ENCODING 9494
SWIDTH 600 0
DWIDTH 12 0
BBX 11 15 3 5
BITMAP
6A9000
BFE000
BFE000
BFE000
BFE000
BFE000
BFE000
BFE000
BFE000
BFE000
BFE000
BFE000
BFE000
BFFFF4
BFFFF4
ENDCHAR
STARTCHAR uni2517
ENCODING 9495
SWIDTH 600 0
DWIDTH 12 0
BBX 11 17 3 3
BITMAP
555000
BFE000
BFE000
BFE000
BFE000
BFE000
BFE000
BFE000
BFE000
BFE000
BFE000
BFE000
BFFFF4
BFFFF4
BFFFF4
BFFFF4
BFFFF4
ENDCHAR
STARTCHAR uni2518
ENCODING 9496
SWIDTH 600 0
DWIDTH 12 0
BBX 10 15 -2 5
BITMAP
000690
0007D0
0007D0
0007D0
0007D0
0007D0
0007D0
0007D0
0007D0
0007D0
0007D0
0007D0
0007D0
7FFFD0
7FFFD0
ENDCHAR
STARTCHAR uni2519
ENCODING 9497
SWIDTH 600 0
DWIDTH 12 0
BBX 10 17 -2 3
BITMAP
000140
0007D0
0007D0
0007D0
0007D0
0007D0
0007D0
0007D0
0007D0
0007D0
0007D0
0007D0
7FFFD0
7FFFD0
7FFFD0
7FFFD0
7FFFD0
ENDCHAR
STARTCHAR uni251A
ENCODING 9498
SWIDTH 600 0
DWIDTH 12 0
BBX 11 15 -2 5
BITMAP
001AA4
002FF8
002FF8
002FF8
002FF8
002FF8
002FF8
002FF8
002FF8
002FF8
002FF8
002FF8
002FF8
7FFFF8
7FFFF8
ENDCHAR
STARTCHAR uni251B
ENCODING 9499
SWIDTH 600 0
DWIDTH 12 0
BBX 11 17 -2 3
BITMAP
001554
002FF8
002FF8
002FF8
002FF8
002FF8
002FF8
002FF8
002FF8
002FF8
002FF8
002FF8
7FFFF8
7FFFF8
7FFFF8
7FFFF8
7FFFF8
ENDCHAR
STARTCHAR uni251C
ENCODING 9500
SWIDTH 600 0
DWIDTH 12 0
BBX 10 28 4 -8
BITMAP
690000
7D0000
7D0000
7D0000
7D0000
7D0000
7D0000
7D0000
7D0000
7D0000
7D0000
7D0000
7D0000
7FFFD0
7FFFD0
7D0000
7D0000
7D0000
7D0000
7D0000
7D0000
7D0000
7D0000
7D0000
7D0000
7D0000
7D0000
690000
ENDCHAR
STARTCHAR uni251D
ENCODING 9501
SWIDTH 600 0
DWIDTH 12 0
BBX 10 29 4 -9
BITMAP
140000
7D0000
7D0000
7D0000
7D0000
7D0000
7D0000
7D0000
7D0000
7D0000
7D0000
7D0000
7FFFD0
7FFFD0
7FFFD0
7FFFD0
7FFFD0
7D0000
7D0000
7D0000
7D0000
7D0000
7D0000
7D0000
7D0000
7D0000
7D0000
7D0000
140000
ENDCHAR
STARTCHAR uni251E
ENCODING 9502
SWIDTH 600 0
DWIDTH 12 0
BBX 11 28 3 -8
BITMAP
6A9000
BFE000
BFE000
BFE000
BFE000
BFE000
BFE000
BFE000
BFE000
BFE000
BFE000
BFE000
BFE000
BFFFF4
BFFFF4
1F4000
1F4000
1F4000
1F4000
1F4000
1F4000
1F4000
1F4000
1F4000
1F4000
1F4000
1F4000
1A4000
ENDCHAR
STARTCHAR uni251F
ENCODING 9503
SWIDTH 600 0
DWIDTH 12 0
BBX 11 28 3 -8
BITMAP
1A4000
1F4000
1F4000
1F4000
1F4000
1F4000
1F4000
1F4000
1F4000
1F4000
1F4000
1F4000
1F4000
BFFFF4
BFFFF4
BFE000
BFE000
BFE000
BFE000
BFE000
BFE000
BFE000
BFE000
BFE000
BFE000
BFE000
BFE000
6A9000
ENDCHAR
STARTCHAR uni2520
ENCODING 9504
SWIDTH 600 0
DWIDTH 12 0
BBX 11 28 3 -8
BITMAP
6A9000
BFE000
BFE000
BFE000
BFE000
BFE000
BFE000
BFE000
BFE000
BFE000
BFE000
BFE000
BFE000
BFFFF4
BFFFF4
BFE000
BFE000
BFE000
BFE000
BFE000
BFE000
BFE000
BFE000
BFE000
BFE000
BFE000
BFE000
6A9000
ENDCHAR
ENDFONT
